<svg xmlns="http://www.w3.org/2000/svg" xmlns:xlink="http://www.w3.org/1999/xlink" xmlns:lucid="lucid" width="1809.97" height="720.77"><g transform="translate(655.274555078921 360)" lucid:page-tab-id="0_0"><path d="M-1806.87-1258.83h3677.74v2581.66h-3677.74z" fill="#fff"/><path d="M-60-340h655.27v183.87H-60z" fill="none"/><use xlink:href="#a" transform="matrix(1,0,0,1,-60,-340) translate(1.3540123456793367 105.82222222222221)"/><use xlink:href="#b" transform="matrix(1,0,0,1,-60,-340) translate(269.73549382716055 105.82222222222221)"/><path d="M-380.3 254.57h124.87v37.7H-380.3v-37.7z" fill="#29aae1"/><path d="M-374.3 296.6h112.87v2.93H-374.3v-2.93z" fill="#2188b4"/><path d="M-371.3 261.23h11.5v4.86h-11.5v-4.87z" fill="#fff"/><path d="M-365.8 264.52c2.87 0 2.87 0 2.87 2.65v.5c0 2.65 0 2.65-2.87 2.65-2.75 0-2.75 0-2.75-2.65v-.5c0-2.65 0-2.65 2.75-2.65zM-353.43 261.23h11.5v4.86h-11.5v-4.87z" fill="#fff"/><path d="M-347.8 264.52c2.75 0 2.75 0 2.75 2.65v.5c0 2.65 0 2.65-2.75 2.65-2.88 0-2.88 0-2.88-2.65v-.5c0-2.65 0-2.65 2.88-2.65zM-334.55 261.23h11.5v4.86h-11.5v-4.87z" fill="#fff"/><path d="M-328.93 264.52c2.75 0 2.75 0 2.75 2.65v.5c0 2.65 0 2.65-2.75 2.65-2.87 0-2.87 0-2.87-2.65v-.5c0-2.65 0-2.65 2.87-2.65zM-316.3 261.23h11.62v4.86h-11.62v-4.87z" fill="#fff"/><path d="M-310.68 264.52c2.75 0 2.75 0 2.75 2.65v.5c0 2.65 0 2.65-2.75 2.65s-2.75 0-2.75-2.65v-.5c0-2.65 0-2.65 2.75-2.65zM-293.18 257.5h33.5v30.73h-33.5V257.5z" fill="#fff"/><path d="M-292.05 258.53h31.12v28.53h-31.12v-28.53z" fill="#54bbe7"/><path d="M-371.05 276.4h11.62v4.8h-11.62v-4.8z" fill="#fff"/><path d="M-365.43 279.64c2.75 0 2.75 0 2.75 2.65v.5c0 2.64 0 2.64-2.75 2.64s-2.75 0-2.75-2.65v-.5c0-2.66 0-2.66 2.75-2.66zM-353.18 276.4h11.63v4.8h-11.63v-4.8z" fill="#fff"/><path d="M-347.55 279.64c2.75 0 2.75 0 2.75 2.65v.5c0 2.64 0 2.64-2.75 2.64s-2.75 0-2.75-2.65v-.5c0-2.66 0-2.66 2.75-2.66zM-334.3 276.4h11.62v4.8h-11.62v-4.8z" fill="#fff"/><path d="M-328.68 279.64c2.75 0 2.75 0 2.75 2.65v.5c0 2.64 0 2.64-2.75 2.64s-2.75 0-2.75-2.65v-.5c0-2.66 0-2.66 2.75-2.66zM-315.93 276.4h11.63v4.8h-11.63v-4.8z" fill="#fff"/><path d="M-310.3 279.64c2.75 0 2.75 0 2.75 2.65v.5c0 2.64 0 2.64-2.75 2.64s-2.75 0-2.75-2.65v-.5c0-2.66 0-2.66 2.75-2.66zM-288.55 259.84l-3.13 3.06 3.25 3-.12-6.06zM-288.55 279.82l-3.13 3.06 3.13 3v-6.06zM-264.68 285.94l3.13-3.02-3.13-3.06v6.08zM-264.55 266.05l3.12-3.02-3.12-3.06v6.08z" fill="#fff"/><path d="M-288.8 261.64h4.75v2.43h-4.75v-2.43zM-268.8 261.86h4.62v2.43h-4.62v-2.44zM-288.8 281.62h4.62v2.43h-4.62v-2.43zM-268.93 281.8h4.63v2.43h-4.63v-2.43z" fill="#fff"/><path d="M-286.3 263.26l2.12-1.62 17.38 20.97-2.13 1.63-17.37-20.97z" fill="#fff"/><path d="M-268.8 261.86l2 1.76-17.38 20.47-2.12-1.76 17.5-20.48z" fill="#fff"/><path d="M-276.18 270.46l2 2.47-.37.27-2-2.47.37-.27zM-278.43 272.8l2 2.47-.37.27-2-2.47.37-.27z" fill="#54bbe7"/><use xlink:href="#c" transform="matrix(1,0,0,1,-410.30233005047614,299.5728836423399) translate(79 18.6)"/><use xlink:href="#d" transform="matrix(1,0,0,1,-410.30233005047614,299.5728836423399) translate(96 18.6)"/><path d="M-591.17 297.13h9v6.97h-9v-6.97zM-634.67 234.57h95.2v62.56h-95.2v-62.56z" fill="#29aae1"/><path d="M-630.37 238.4h86.9v55.93h-86.9V238.4z" fill="#fff" fill-opacity=".98"/><path d="M-630.97 304.53h86.8l-4.3 14.96h-86.8l4.3-14.97z" fill="#29aae1"/><path d="M-631.47 304.02h88.8l7.4 15.47h-88.8l-7.4-15.48z" fill="#29aae1"/><path d="M-601.37 315.5h31.6v3.14h-31.6v-3.15zM-618.77 306.48h2.3v1.96h-2.3v-1.96zM-614.67 306.57h2.4v1.95h-2.4v-1.95zM-609.37 310.14h2.4v1.95h-2.4v-1.96zM-610.17 306.3h2.3v2.05h-2.3v-2.04zM-606.17 306.48h2.4v1.96h-2.4v-1.96zM-602.27 306.3h2.4v2.05h-2.4v-2.04zM-577.77 306.65h2.4v2.04h-2.4v-2.05zM-574.17 306.65h2.4v2.04h-2.4v-2.05zM-570.77 306.65h2.4v2.04h-2.4v-2.05zM-566.67 306.65h2.3v2.04h-2.3v-2.05zM-562.97 306.65h2.3v2.04h-2.3v-2.05zM-567.37 309.97h2.3v1.95h-2.3v-1.95zM-558.77 306.65h2.4v2.04h-2.4v-2.05zM-604.87 310.05h2.3V312h-2.3v-1.95zM-600.37 310.05h2.3V312h-2.3v-1.95zM-571.07 309.88h2v1.96h-2v-1.96zM-575.17 309.88h2.4v1.96h-2.4v-1.96zM-597.87 306.4h2.4v2.04h-2.4v-2.04zM-593.37 306.48h2.3v2.04h-2.3v-2.04zM-589.27 306.4h2.3v2.04h-2.3v-2.04zM-584.77 306.4h2.3v2.04h-2.3v-2.04zM-581.07 306.48h2.3v2.04h-2.3v-2.04zM-596.37 309.97h2.4v1.95h-2.4v-1.95zM-591.87 309.97h2.3v1.95h-2.3v-1.95zM-587.77 310.05h2.4V312h-2.4v-1.95zM-583.67 310.05h2.3V312h-2.3v-1.95zM-579.47 309.88h2.3v1.96h-2.3v-1.96z" fill="#fff"/><path d="M-635.17 319.5l99.9-.35-7.1-15.13-88.5.17-4.3 15.3z" fill="none"/><path d="M-591.67 297.13h9.8v.94h-9.8v-.94zM-591.27 302.9h9.3v1.12h-9.3v-1.1z" fill="#fff"/><use xlink:href="#e" transform="matrix(1,0,0,1,-665.274555078921,319.5728836423399) translate(66.025 18.6)"/><use xlink:href="#d" transform="matrix(1,0,0,1,-665.274555078921,319.5728836423399) translate(83.97500000000001 18.6)"/><path d="M-535.97 277.07h152.17" stroke="#282c33" stroke-width="7" fill="none"/><path d="M-535.88 280.57h-3.6v-7h3.6zM-380.3 280.57h-3.6v-7h3.6z" stroke="#282c33" stroke-width=".05" fill="#282c33"/><path d="M814.7-65.43h124.87v37.7H814.7v-37.7z" fill="#29aae1"/><path d="M820.7-23.4h112.87v2.93H820.7v-2.93z" fill="#2188b4"/><path d="M823.7-58.77h11.5v4.86h-11.5v-4.87z" fill="#fff"/><path d="M829.2-55.48c2.87 0 2.87 0 2.87 2.65v.5c0 2.65 0 2.65-2.87 2.65-2.75 0-2.75 0-2.75-2.65v-.5c0-2.65 0-2.65 2.75-2.65zM841.57-58.77h11.5v4.86h-11.5v-4.87z" fill="#fff"/><path d="M847.2-55.48c2.75 0 2.75 0 2.75 2.65v.5c0 2.65 0 2.65-2.75 2.65-2.88 0-2.88 0-2.88-2.65v-.5c0-2.65 0-2.65 2.88-2.65zM860.45-58.77h11.5v4.86h-11.5v-4.87z" fill="#fff"/><path d="M866.07-55.48c2.75 0 2.75 0 2.75 2.65v.5c0 2.65 0 2.65-2.75 2.65-2.87 0-2.87 0-2.87-2.65v-.5c0-2.65 0-2.65 2.87-2.65zM878.7-58.77h11.62v4.86H878.7v-4.87z" fill="#fff"/><path d="M884.32-55.48c2.75 0 2.75 0 2.75 2.65v.5c0 2.65 0 2.65-2.75 2.65s-2.75 0-2.75-2.65v-.5c0-2.65 0-2.65 2.75-2.65zM901.82-62.5h33.5v30.73h-33.5V-62.5z" fill="#fff"/><path d="M902.95-61.47h31.12v28.53h-31.12v-28.53z" fill="#54bbe7"/><path d="M823.95-43.6h11.62v4.8h-11.62v-4.8z" fill="#fff"/><path d="M829.57-40.36c2.75 0 2.75 0 2.75 2.65v.5c0 2.64 0 2.64-2.75 2.64s-2.75 0-2.75-2.65v-.5c0-2.66 0-2.66 2.75-2.66zM841.82-43.6h11.63v4.8h-11.63v-4.8z" fill="#fff"/><path d="M847.45-40.36c2.75 0 2.75 0 2.75 2.65v.5c0 2.64 0 2.64-2.75 2.64s-2.75 0-2.75-2.65v-.5c0-2.66 0-2.66 2.75-2.66zM860.7-43.6h11.62v4.8H860.7v-4.8z" fill="#fff"/><path d="M866.32-40.36c2.75 0 2.75 0 2.75 2.65v.5c0 2.64 0 2.64-2.75 2.64s-2.75 0-2.75-2.65v-.5c0-2.66 0-2.66 2.75-2.66zM879.07-43.6h11.63v4.8h-11.63v-4.8z" fill="#fff"/><path d="M884.7-40.36c2.75 0 2.75 0 2.75 2.65v.5c0 2.64 0 2.64-2.75 2.64s-2.75 0-2.75-2.65v-.5c0-2.66 0-2.66 2.75-2.66zM906.45-60.16l-3.13 3.06 3.25 3-.12-6.06zM906.45-40.18l-3.13 3.06 3.13 3v-6.06zM930.32-34.06l3.13-3.02-3.13-3.06v6.08zM930.45-53.95l3.12-3.02-3.12-3.06v6.08z" fill="#fff"/><path d="M906.2-58.36h4.75v2.43h-4.75v-2.43zM926.2-58.14h4.62v2.43h-4.62v-2.44zM906.2-38.38h4.62v2.43h-4.62v-2.43zM926.07-38.2h4.63v2.43h-4.63v-2.43z" fill="#fff"/><path d="M908.7-56.74l2.12-1.62L928.2-37.4l-2.13 1.63-17.37-20.97z" fill="#fff"/><path d="M926.2-58.14l2 1.76-17.38 20.47-2.12-1.76 17.5-20.48z" fill="#fff"/><path d="M918.82-49.54l2 2.47-.37.27-2-2.47.37-.27zM916.57-47.2l2 2.47-.37.27-2-2.47.37-.27z" fill="#54bbe7"/><path d="M1078.8-22.87h9v6.97h-9v-6.97zM1035.3-85.43h95.2v62.56h-95.2v-62.56z" fill="#29aae1"/><path d="M1039.6-81.6h86.9v55.93h-86.9V-81.6z" fill="#fff" fill-opacity=".98"/><path d="M1039-15.47h86.8L1121.5-.5h-86.8l4.3-14.97z" fill="#29aae1"/><path d="M1038.5-15.98h88.8l7.4 15.47h-88.8L1038.5-16z" fill="#29aae1"/><path d="M1068.6-4.5h31.6v3.14h-31.6V-4.5zM1051.2-13.52h2.3v1.96h-2.3v-1.96zM1055.3-13.43h2.4v1.95h-2.4v-1.95zM1060.6-9.86h2.4v1.95h-2.4v-1.96zM1059.8-13.7h2.3v2.05h-2.3v-2.04zM1063.8-13.52h2.4v1.96h-2.4v-1.96zM1067.7-13.7h2.4v2.05h-2.4v-2.04zM1092.2-13.35h2.4v2.04h-2.4v-2.05zM1095.8-13.35h2.4v2.04h-2.4v-2.05zM1099.2-13.35h2.4v2.04h-2.4v-2.05zM1103.3-13.35h2.3v2.04h-2.3v-2.05zM1107-13.35h2.3v2.04h-2.3v-2.05zM1102.6-10.03h2.3v1.95h-2.3v-1.95zM1111.2-13.35h2.4v2.04h-2.4v-2.05zM1065.1-9.95h2.3V-8h-2.3v-1.95zM1069.6-9.95h2.3V-8h-2.3v-1.95zM1098.9-10.12h2v1.96h-2v-1.96zM1094.8-10.12h2.4v1.96h-2.4v-1.96zM1072.1-13.6h2.4v2.04h-2.4v-2.04zM1076.6-13.52h2.3v2.04h-2.3v-2.04zM1080.7-13.6h2.3v2.04h-2.3v-2.04zM1085.2-13.6h2.3v2.04h-2.3v-2.04zM1088.9-13.52h2.3v2.04h-2.3v-2.04zM1073.6-10.03h2.4v1.95h-2.4v-1.95zM1078.1-10.03h2.3v1.95h-2.3v-1.95zM1082.2-9.95h2.4V-8h-2.4v-1.95zM1086.3-9.95h2.3V-8h-2.3v-1.95zM1090.5-10.12h2.3v1.96h-2.3v-1.96z" fill="#fff"/><path d="M1034.8-.5l99.9-.35-7.1-15.13-88.5.17-4.3 15.3z" fill="none"/><path d="M1078.3-22.87h9.8v.94h-9.8v-.94zM1078.7-17.1h9.3v1.12h-9.3v-1.1z" fill="#fff"/><use xlink:href="#f" transform="matrix(1,0,0,1,1004.697669949524,-0.4271163576600827) translate(68.525 18.6)"/><path d="M-125.3-65.43H-.43v37.7H-125.3v-37.7z" fill="#29aae1"/><path d="M-119.3-23.4H-6.43v2.93H-119.3v-2.93z" fill="#2188b4"/><path d="M-116.3-58.77h11.5v4.86h-11.5v-4.87z" fill="#fff"/><path d="M-110.8-55.48c2.87 0 2.87 0 2.87 2.65v.5c0 2.65 0 2.65-2.87 2.65-2.75 0-2.75 0-2.75-2.65v-.5c0-2.65 0-2.65 2.75-2.65zM-98.43-58.77h11.5v4.86h-11.5v-4.87z" fill="#fff"/><path d="M-92.8-55.48c2.75 0 2.75 0 2.75 2.65v.5c0 2.65 0 2.65-2.75 2.65-2.88 0-2.88 0-2.88-2.65v-.5c0-2.65 0-2.65 2.88-2.65zM-79.55-58.77h11.5v4.86h-11.5v-4.87z" fill="#fff"/><path d="M-73.93-55.48c2.75 0 2.75 0 2.75 2.65v.5c0 2.65 0 2.65-2.75 2.65-2.87 0-2.87 0-2.87-2.65v-.5c0-2.65 0-2.65 2.87-2.65zM-61.3-58.77h11.62v4.86H-61.3v-4.87z" fill="#fff"/><path d="M-55.68-55.48c2.75 0 2.75 0 2.75 2.65v.5c0 2.65 0 2.65-2.75 2.65s-2.75 0-2.75-2.65v-.5c0-2.65 0-2.65 2.75-2.65zM-38.18-62.5h33.5v30.73h-33.5V-62.5z" fill="#fff"/><path d="M-37.05-61.47h31.12v28.53h-31.12v-28.53z" fill="#54bbe7"/><path d="M-116.05-43.6h11.62v4.8h-11.62v-4.8z" fill="#fff"/><path d="M-110.43-40.36c2.75 0 2.75 0 2.75 2.65v.5c0 2.64 0 2.64-2.75 2.64s-2.75 0-2.75-2.65v-.5c0-2.66 0-2.66 2.75-2.66zM-98.18-43.6h11.63v4.8h-11.63v-4.8z" fill="#fff"/><path d="M-92.55-40.36c2.75 0 2.75 0 2.75 2.65v.5c0 2.64 0 2.64-2.75 2.64s-2.75 0-2.75-2.65v-.5c0-2.66 0-2.66 2.75-2.66zM-79.3-43.6h11.62v4.8H-79.3v-4.8z" fill="#fff"/><path d="M-73.68-40.36c2.75 0 2.75 0 2.75 2.65v.5c0 2.64 0 2.64-2.75 2.64s-2.75 0-2.75-2.65v-.5c0-2.66 0-2.66 2.75-2.66zM-60.93-43.6h11.63v4.8h-11.63v-4.8z" fill="#fff"/><path d="M-55.3-40.36c2.75 0 2.75 0 2.75 2.65v.5c0 2.64 0 2.64-2.75 2.64s-2.75 0-2.75-2.65v-.5c0-2.66 0-2.66 2.75-2.66zM-33.55-60.16l-3.13 3.06 3.25 3-.12-6.06zM-33.55-40.18l-3.13 3.06 3.13 3v-6.06zM-9.68-34.06l3.13-3.02-3.13-3.06v6.08zM-9.55-53.95l3.12-3.02-3.12-3.06v6.08z" fill="#fff"/><path d="M-33.8-58.36h4.75v2.43h-4.75v-2.43zM-13.8-58.14h4.62v2.43h-4.62v-2.44zM-33.8-38.38h4.62v2.43h-4.62v-2.43zM-13.93-38.2h4.63v2.43h-4.63v-2.43z" fill="#fff"/><path d="M-31.3-56.74l2.12-1.62L-11.8-37.4l-2.13 1.63-17.37-20.97z" fill="#fff"/><path d="M-13.8-58.14l2 1.76-17.38 20.47-2.12-1.76 17.5-20.48z" fill="#fff"/><path d="M-21.18-49.54l2 2.47-.37.27-2-2.47.37-.27zM-23.43-47.2l2 2.47-.37.27-2-2.47.37-.27z" fill="#54bbe7"/><path d="M-479.83-22.87h9v6.97h-9v-6.97zM-523.33-85.43h95.2v62.56h-95.2v-62.56z" fill="#29aae1"/><path d="M-519.03-81.6h86.9v55.93h-86.9V-81.6z" fill="#fff" fill-opacity=".98"/><path d="M-519.63-15.47h86.8l-4.3 14.96h-86.8l4.3-14.97z" fill="#29aae1"/><path d="M-520.13-15.98h88.8l7.4 15.47h-88.8l-7.4-15.48z" fill="#29aae1"/><path d="M-490.03-4.5h31.6v3.14h-31.6V-4.5zM-507.43-13.52h2.3v1.96h-2.3v-1.96zM-503.33-13.43h2.4v1.95h-2.4v-1.95zM-498.03-9.86h2.4v1.95h-2.4v-1.96zM-498.83-13.7h2.3v2.05h-2.3v-2.04zM-494.83-13.52h2.4v1.96h-2.4v-1.96zM-490.93-13.7h2.4v2.05h-2.4v-2.04zM-466.43-13.35h2.4v2.04h-2.4v-2.05zM-462.83-13.35h2.4v2.04h-2.4v-2.05zM-459.43-13.35h2.4v2.04h-2.4v-2.05zM-455.33-13.35h2.3v2.04h-2.3v-2.05zM-451.63-13.35h2.3v2.04h-2.3v-2.05zM-456.03-10.03h2.3v1.95h-2.3v-1.95zM-447.43-13.35h2.4v2.04h-2.4v-2.05zM-493.53-9.95h2.3V-8h-2.3v-1.95zM-489.03-9.95h2.3V-8h-2.3v-1.95zM-459.73-10.12h2v1.96h-2v-1.96zM-463.83-10.12h2.4v1.96h-2.4v-1.96zM-486.53-13.6h2.4v2.04h-2.4v-2.04zM-482.03-13.52h2.3v2.04h-2.3v-2.04zM-477.93-13.6h2.3v2.04h-2.3v-2.04zM-473.43-13.6h2.3v2.04h-2.3v-2.04zM-469.73-13.52h2.3v2.04h-2.3v-2.04zM-485.03-10.03h2.4v1.95h-2.4v-1.95zM-480.53-10.03h2.3v1.95h-2.3v-1.95zM-476.43-9.95h2.4V-8h-2.4v-1.95zM-472.33-9.95h2.3V-8h-2.3v-1.95zM-468.13-10.12h2.3v1.96h-2.3v-1.96z" fill="#fff"/><path d="M-523.83-.5l99.9-.35-7.1-15.13-88.5.17-4.3 15.3z" fill="none"/><path d="M-480.33-22.87h9.8v.94h-9.8v-.94zM-479.93-17.1h9.3v1.12h-9.3v-1.1z" fill="#fff"/><use xlink:href="#e" transform="matrix(1,0,0,1,-553.9278165711454,-0.4271163576600827) translate(66.025 18.6)"/><use xlink:href="#g" transform="matrix(1,0,0,1,-553.9278165711454,-0.4271163576600827) translate(83.97500000000001 18.6)"/><path d="M-424.63-42.93h295.83" stroke="#282c33" stroke-width="7" fill="none"/><path d="M-424.54-39.43h-3.6v-7h3.6zM-125.3-39.43h-3.6v-7h3.6z" stroke="#282c33" stroke-width=".05" fill="#282c33"/><path d="M943.07-42.93h88.73" stroke="#282c33" stroke-width="7" fill="none"/><path d="M943.16-39.43h-3.6v-7h3.6zM1035.3-39.43h-3.6v-7h3.6z" stroke="#282c33" stroke-width=".05" fill="#282c33"/><path d="M-349.43 249.57V31.3a12 12 0 0 1 12-12h231.06a12 12 0 0 0 12-12v-22.77" stroke="#282c33" stroke-width="10" fill="none"/><path d="M-344.43 254.57h-10v-5.13h10zM-89.37-15.34h-10v-5.13h10zm0-8.06h-10v-.07h10z" stroke="#282c33" stroke-width=".05" fill="#282c33"/><path d="M4.57-42.93H809.7" stroke="#282c33" stroke-width="10" fill="none"/><path d="M4.7-37.93H-.43v-10H4.7zM814.7-37.93h-5.13v-10h5.13z" stroke="#282c33" stroke-width=".05" fill="#282c33"/><path d="M-535.27 240.57a6 6 0 0 1 6-6h228a6 6 0 0 1 6 6v48a6 6 0 0 1-6 6h-228a6 6 0 0 1-6-6z" stroke="#000" stroke-opacity="0" stroke-width="2" fill="#fff" fill-opacity="0"/><use xlink:href="#h" transform="matrix(1,0,0,1,-530.274555078921,239.57288364233992) translate(95.14506172839506 28.069444444444443)"/><use xlink:href="#i" transform="matrix(1,0,0,1,-530.274555078921,239.57288364233992) translate(126.21296296296296 28.069444444444443)"/><path d="M-342.66 218.5h49.7v28.68h-49.7z" fill="#fff" fill-opacity="0"/><use xlink:href="#h" transform="matrix(1,0,0,1,-337.657268322081,223.51161941360024) translate(0 12.444444444444441)"/><use xlink:href="#j" transform="matrix(1,0,0,1,-337.657268322081,223.51161941360024) translate(31.067901234567895 12.444444444444441)"/><path d="M-186.02-68.5h49.7v28.68H-186z" fill="#fff" fill-opacity="0"/><use xlink:href="#h" transform="matrix(1,0,0,1,-181.02352124329502,-63.48838058639976) translate(0 12.444444444444441)"/><use xlink:href="#i" transform="matrix(1,0,0,1,-181.02352124329502,-63.48838058639976) translate(31.067901234567895 12.444444444444441)"/><path d="M10.7-68.5h49.72v28.68h-49.7z" fill="#fff" fill-opacity="0"/><use xlink:href="#h" transform="matrix(1,0,0,1,15.708984599132862,-63.48838058639976) translate(0 12.444444444444441)"/><use xlink:href="#k" transform="matrix(1,0,0,1,15.708984599132862,-63.48838058639976) translate(31.067901234567895 12.444444444444441)"/><path d="M-186.02-10.16h49.7V18.5H-186z" fill="#fff" fill-opacity="0"/><use xlink:href="#h" transform="matrix(1,0,0,1,-181.02352124329502,-5.155047253066417) translate(0 12.444444444444441)"/><use xlink:href="#j" transform="matrix(1,0,0,1,-181.02352124329502,-5.155047253066417) translate(31.067901234567895 12.444444444444441)"/><path d="M944.98-71.5h49.7v28.68H945z" fill="#fff" fill-opacity="0"/><g><use xlink:href="#h" transform="matrix(1,0,0,1,949.976478756705,-66.48838058639976) translate(0 12.444444444444441)"/><use xlink:href="#i" transform="matrix(1,0,0,1,949.976478756705,-66.48838058639976) translate(31.067901234567895 12.444444444444441)"/></g><path d="M750.84-71.5h49.7v28.68h-49.7z" fill="#fff" fill-opacity="0"/><g><use xlink:href="#h" transform="matrix(1,0,0,1,755.8355028177582,-66.48838058639976) translate(0 12.444444444444441)"/><use xlink:href="#j" transform="matrix(1,0,0,1,755.8355028177582,-66.48838058639976) translate(31.067901234567895 12.444444444444441)"/></g><path d="M-78.8-103.1h32v31.6h-32z" fill="#fff" fill-opacity="0"/><g><use xlink:href="#l" transform="matrix(1,0,0,1,-73.80233005047614,-98.08838058639975) translate(0 14.4)"/></g><path d="M858.7-95.5h32v31.6h-32z" fill="#fff" fill-opacity="0"/><g><use xlink:href="#m" transform="matrix(1,0,0,1,863.6863552999148,-90.48838058639976) translate(0 14.4)"/></g><defs><path fill="#333" d="M30 0v-248h33v221h125V0H30" id="n"/><path fill="#333" d="M33 0v-248h34V0H33" id="o"/><path fill="#333" d="M190 0L58-211 59 0H30v-248h39L202-35l-2-213h31V0h-41" id="p"/><path fill="#333" d="M30 0v-248h187v28H63v79h144v27H63v87h162V0H30" id="q"/><path fill="#333" d="M205 0l-28-72H64L36 0H1l101-248h38L239 0h-34zm-38-99l-47-123c-12 45-31 82-46 123h93" id="r"/><path fill="#333" d="M233-177c-1 41-23 64-60 70L243 0h-38l-65-103H63V0H30v-248c88 3 205-21 203 71zM63-129c60-2 137 13 137-47 0-61-80-42-137-45v92" id="s"/><g id="a"><use transform="matrix(0.19197530864197512,0,0,0.19197530864197512,0,0)" xlink:href="#n"/><use transform="matrix(0.19197530864197512,0,0,0.19197530864197512,38.39506172839503,0)" xlink:href="#o"/><use transform="matrix(0.19197530864197512,0,0,0.19197530864197512,57.59259259259254,0)" xlink:href="#p"/><use transform="matrix(0.19197530864197512,0,0,0.19197530864197512,107.31419753086409,0)" xlink:href="#q"/><use transform="matrix(0.19197530864197512,0,0,0.19197530864197512,153.38827160493813,0)" xlink:href="#r"/><use transform="matrix(0.19197530864197512,0,0,0.19197530864197512,199.46234567901215,0)" xlink:href="#s"/></g><path fill="#333" d="M127-220V0H93v-220H8v-28h204v28h-85" id="t"/><path fill="#333" d="M140-251c81 0 123 46 123 126C263-46 219 4 140 4 59 4 17-45 17-125s42-126 123-126zm0 227c63 0 89-41 89-101s-29-99-89-99c-61 0-89 39-89 99S79-25 140-24" id="u"/><path fill="#333" d="M30-248c87 1 191-15 191 75 0 78-77 80-158 76V0H30v-248zm33 125c57 0 124 11 124-50 0-59-68-47-124-48v98" id="v"/><path fill="#333" d="M143 4C61 4 22-44 18-125c-5-107 100-154 193-111 17 8 29 25 37 43l-32 9c-13-25-37-40-76-40-61 0-88 39-88 99 0 61 29 100 91 101 35 0 62-11 79-27v-45h-74v-28h105v86C228-13 192 4 143 4" id="w"/><path fill="#333" d="M137-103V0h-34v-103L8-248h37l75 118 75-118h37" id="x"/><g id="b"><use transform="matrix(0.19197530864197512,0,0,0.19197530864197512,0,0)" xlink:href="#t"/><use transform="matrix(0.19197530864197512,0,0,0.19197530864197512,40.69876543209873,0)" xlink:href="#u"/><use transform="matrix(0.19197530864197512,0,0,0.19197530864197512,94.45185185185176,0)" xlink:href="#v"/><use transform="matrix(0.19197530864197512,0,0,0.19197530864197512,140.52592592592578,0)" xlink:href="#u"/><use transform="matrix(0.19197530864197512,0,0,0.19197530864197512,194.2790123456788,0)" xlink:href="#n"/><use transform="matrix(0.19197530864197512,0,0,0.19197530864197512,232.67407407407384,0)" xlink:href="#u"/><use transform="matrix(0.19197530864197512,0,0,0.19197530864197512,286.4271604938269,0)" xlink:href="#w"/><use transform="matrix(0.19197530864197512,0,0,0.19197530864197512,340.18024691357994,0)" xlink:href="#x"/></g><path fill="#333" d="M185-189c-5-48-123-54-124 2 14 75 158 14 163 119 3 78-121 87-175 55-17-10-28-26-33-46l33-7c5 56 141 63 141-1 0-78-155-14-162-118-5-82 145-84 179-34 5 7 8 16 11 25" id="y"/><use transform="matrix(0.05,0,0,0.05,0,0)" xlink:href="#y" id="c"/><path fill="#333" d="M27 0v-27h64v-190l-56 39v-29l58-41h29v221h61V0H27" id="z"/><use transform="matrix(0.05,0,0,0.05,0,0)" xlink:href="#z" id="d"/><path fill="#333" d="M197 0v-115H63V0H30v-248h33v105h134v-105h34V0h-34" id="A"/><use transform="matrix(0.05,0,0,0.05,0,0)" xlink:href="#A" id="e"/><path fill="#333" d="M155-56V0h-30v-56H8v-25l114-167h33v167h35v25h-35zm-30-156c-27 46-58 90-88 131h88v-131" id="B"/><g id="f"><use transform="matrix(0.05,0,0,0.05,0,0)" xlink:href="#A"/><use transform="matrix(0.05,0,0,0.05,12.950000000000001,0)" xlink:href="#B"/></g><path fill="#333" d="M101-251c82-7 93 87 43 132L82-64C71-53 59-42 53-27h129V0H18c2-99 128-94 128-182 0-28-16-43-45-43s-46 15-49 41l-32-3c6-41 34-60 81-64" id="C"/><use transform="matrix(0.05,0,0,0.05,0,0)" xlink:href="#C" id="g"/><path fill="#333" d="M115-194c55 1 70 41 70 98S169 2 115 4C84 4 66-9 55-30l1 105H24l-1-265h31l2 30c10-21 28-34 59-34zm-8 174c40 0 45-34 45-75s-6-73-45-74c-42 0-51 32-51 76 0 43 10 73 51 73" id="D"/><path fill="#333" d="M100-194c62-1 85 37 85 99 1 63-27 99-86 99S16-35 15-95c0-66 28-99 85-99zM99-20c44 1 53-31 53-75 0-43-8-75-51-75s-53 32-53 75 10 74 51 75" id="E"/><path fill="#333" d="M114-163C36-179 61-72 57 0H25l-1-190h30c1 12-1 29 2 39 6-27 23-49 58-41v29" id="F"/><path fill="#333" d="M59-47c-2 24 18 29 38 22v24C64 9 27 4 27-40v-127H5v-23h24l9-43h21v43h35v23H59v120" id="G"/><g id="h"><use transform="matrix(0.04320987654320986,0,0,0.04320987654320986,0,0)" xlink:href="#D"/><use transform="matrix(0.04320987654320986,0,0,0.04320987654320986,8.641975308641973,0)" xlink:href="#E"/><use transform="matrix(0.04320987654320986,0,0,0.04320987654320986,17.283950617283946,0)" xlink:href="#F"/><use transform="matrix(0.04320987654320986,0,0,0.04320987654320986,22.425925925925924,0)" xlink:href="#G"/></g><use transform="matrix(0.04320987654320986,0,0,0.04320987654320986,0,0)" xlink:href="#z" id="i"/><use transform="matrix(0.04320987654320986,0,0,0.04320987654320986,0,0)" xlink:href="#C" id="j"/><path fill="#333" d="M126-127c33 6 58 20 58 59 0 88-139 92-164 29-3-8-5-16-6-25l32-3c6 27 21 44 54 44 32 0 52-15 52-46 0-38-36-46-79-43v-28c39 1 72-4 72-42 0-27-17-43-46-43-28 0-47 15-49 41l-32-3c6-42 35-63 81-64 48-1 79 21 79 65 0 36-21 52-52 59" id="H"/><use transform="matrix(0.04320987654320986,0,0,0.04320987654320986,0,0)" xlink:href="#H" id="k"/><g id="l"><use transform="matrix(0.05,0,0,0.05,0,0)" xlink:href="#y"/><use transform="matrix(0.05,0,0,0.05,12,0)" xlink:href="#C"/></g><g id="m"><use transform="matrix(0.05,0,0,0.05,0,0)" xlink:href="#y"/><use transform="matrix(0.05,0,0,0.05,12,0)" xlink:href="#B"/></g></defs></g></svg>