<svg xmlns="http://www.w3.org/2000/svg" xmlns:xlink="http://www.w3.org/1999/xlink" xmlns:lucid="lucid" width="2548.95" height="1207.12"><g transform="translate(859.2745550789211 427.8015553379083)" lucid:page-tab-id="0_0"><path d="M-1806.87-1258.83h3677.74v2581.66h-3677.74z" fill="#fff"/><path d="M550.7-109.82h240v60h-240z" fill="none"/><use xlink:href="#a" transform="matrix(1,0,0,1,550.6863552999147,-109.82171391973313) translate(100.14506172839506 33.111111111111114)"/><use xlink:href="#b" transform="matrix(1,0,0,1,550.6863552999147,-109.82171391973313) translate(131.21296296296296 33.111111111111114)"/><path d="M-420-407.8h777.4v183.87H-420z" fill="none"/><use xlink:href="#c" transform="matrix(1,0,0,1,-420,-407.8015553379083) translate(94.31790123456818 105.82222222222221)"/><use xlink:href="#d" transform="matrix(1,0,0,1,-420,-407.8015553379083) translate(297.42777777777786 105.82222222222221)"/><path d="M-584.3 162.57h124.87v37.7H-584.3v-37.7z" fill="#29aae1"/><path d="M-578.3 204.6h112.87v2.93H-578.3v-2.93z" fill="#2188b4"/><path d="M-575.3 169.23h11.5v4.86h-11.5v-4.87z" fill="#fff"/><path d="M-569.8 172.52c2.87 0 2.87 0 2.87 2.65v.5c0 2.65 0 2.65-2.87 2.65-2.75 0-2.75 0-2.75-2.65v-.5c0-2.65 0-2.65 2.75-2.65zM-557.43 169.23h11.5v4.86h-11.5v-4.87z" fill="#fff"/><path d="M-551.8 172.52c2.75 0 2.75 0 2.75 2.65v.5c0 2.65 0 2.65-2.75 2.65-2.88 0-2.88 0-2.88-2.65v-.5c0-2.65 0-2.65 2.88-2.65zM-538.55 169.23h11.5v4.86h-11.5v-4.87z" fill="#fff"/><path d="M-532.93 172.52c2.75 0 2.75 0 2.75 2.65v.5c0 2.65 0 2.65-2.75 2.65-2.87 0-2.87 0-2.87-2.65v-.5c0-2.65 0-2.65 2.87-2.65zM-520.3 169.23h11.62v4.86h-11.62v-4.87z" fill="#fff"/><path d="M-514.68 172.52c2.75 0 2.75 0 2.75 2.65v.5c0 2.65 0 2.65-2.75 2.65s-2.75 0-2.75-2.65v-.5c0-2.65 0-2.65 2.75-2.65zM-497.18 165.5h33.5v30.73h-33.5V165.5z" fill="#fff"/><path d="M-496.05 166.53h31.12v28.53h-31.12v-28.53z" fill="#54bbe7"/><path d="M-575.05 184.4h11.62v4.8h-11.62v-4.8z" fill="#fff"/><path d="M-569.43 187.64c2.75 0 2.75 0 2.75 2.65v.5c0 2.64 0 2.64-2.75 2.64s-2.75 0-2.75-2.65v-.5c0-2.66 0-2.66 2.75-2.66zM-557.18 184.4h11.63v4.8h-11.63v-4.8z" fill="#fff"/><path d="M-551.55 187.64c2.75 0 2.75 0 2.75 2.65v.5c0 2.64 0 2.64-2.75 2.64s-2.75 0-2.75-2.65v-.5c0-2.66 0-2.66 2.75-2.66zM-538.3 184.4h11.62v4.8h-11.62v-4.8z" fill="#fff"/><path d="M-532.68 187.64c2.75 0 2.75 0 2.75 2.65v.5c0 2.64 0 2.64-2.75 2.64s-2.75 0-2.75-2.65v-.5c0-2.66 0-2.66 2.75-2.66zM-519.93 184.4h11.63v4.8h-11.63v-4.8z" fill="#fff"/><path d="M-514.3 187.64c2.75 0 2.75 0 2.75 2.65v.5c0 2.64 0 2.64-2.75 2.64s-2.75 0-2.75-2.65v-.5c0-2.66 0-2.66 2.75-2.66zM-492.55 167.84l-3.13 3.06 3.25 3-.12-6.06zM-492.55 187.82l-3.13 3.06 3.13 3v-6.06zM-468.68 193.94l3.13-3.02-3.13-3.06v6.08zM-468.55 174.05l3.12-3.02-3.12-3.06v6.08z" fill="#fff"/><path d="M-492.8 169.64h4.75v2.43h-4.75v-2.43zM-472.8 169.86h4.62v2.43h-4.62v-2.44zM-492.8 189.62h4.62v2.43h-4.62v-2.43zM-472.93 189.8h4.63v2.43h-4.63v-2.43z" fill="#fff"/><path d="M-490.3 171.26l2.12-1.62 17.38 20.97-2.13 1.63-17.37-20.97z" fill="#fff"/><path d="M-472.8 169.86l2 1.76-17.38 20.47-2.12-1.76 17.5-20.48z" fill="#fff"/><path d="M-480.18 178.46l2 2.47-.37.27-2-2.47.37-.27zM-482.43 180.8l2 2.47-.37.27-2-2.47.37-.27z" fill="#54bbe7"/><use xlink:href="#e" transform="matrix(1,0,0,1,-614.3023300504763,207.5728836423399) translate(79 18.6)"/><use xlink:href="#f" transform="matrix(1,0,0,1,-614.3023300504763,207.5728836423399) translate(96 18.6)"/><path d="M-795.17 205.13h9v6.97h-9v-6.97zM-838.67 142.57h95.2v62.56h-95.2v-62.56z" fill="#29aae1"/><path d="M-834.37 146.4h86.9v55.93h-86.9V146.4z" fill="#fff" fill-opacity=".98"/><path d="M-834.97 212.53h86.8l-4.3 14.96h-86.8l4.3-14.97z" fill="#29aae1"/><path d="M-835.47 212.02h88.8l7.4 15.47h-88.8l-7.4-15.48z" fill="#29aae1"/><path d="M-805.37 223.5h31.6v3.14h-31.6v-3.15zM-822.77 214.48h2.3v1.96h-2.3v-1.96zM-818.67 214.57h2.4v1.95h-2.4v-1.95zM-813.37 218.14h2.4v1.95h-2.4v-1.96zM-814.17 214.3h2.3v2.05h-2.3v-2.04zM-810.17 214.48h2.4v1.96h-2.4v-1.96zM-806.27 214.3h2.4v2.05h-2.4v-2.04zM-781.77 214.65h2.4v2.04h-2.4v-2.05zM-778.17 214.65h2.4v2.04h-2.4v-2.05zM-774.77 214.65h2.4v2.04h-2.4v-2.05zM-770.67 214.65h2.3v2.04h-2.3v-2.05zM-766.97 214.65h2.3v2.04h-2.3v-2.05zM-771.37 217.97h2.3v1.95h-2.3v-1.95zM-762.77 214.65h2.4v2.04h-2.4v-2.05zM-808.87 218.05h2.3V220h-2.3v-1.95zM-804.37 218.05h2.3V220h-2.3v-1.95zM-775.07 217.88h2v1.96h-2v-1.96zM-779.17 217.88h2.4v1.96h-2.4v-1.96zM-801.87 214.4h2.4v2.04h-2.4v-2.04zM-797.37 214.48h2.3v2.04h-2.3v-2.04zM-793.27 214.4h2.3v2.04h-2.3v-2.04zM-788.77 214.4h2.3v2.04h-2.3v-2.04zM-785.07 214.48h2.3v2.04h-2.3v-2.04zM-800.37 217.97h2.4v1.95h-2.4v-1.95zM-795.87 217.97h2.3v1.95h-2.3v-1.95zM-791.77 218.05h2.4V220h-2.4v-1.95zM-787.67 218.05h2.3V220h-2.3v-1.95zM-783.47 217.88h2.3v1.96h-2.3v-1.96z" fill="#fff"/><path d="M-839.17 227.5l99.9-.35-7.1-15.13-88.5.17-4.3 15.3z" fill="none"/><path d="M-795.67 205.13h9.8v.94h-9.8v-.94zM-795.27 210.9h9.3v1.12h-9.3v-1.1z" fill="#fff"/><use xlink:href="#g" transform="matrix(1,0,0,1,-869.2745550789211,227.5728836423399) translate(66.025 18.6)"/><use xlink:href="#f" transform="matrix(1,0,0,1,-869.2745550789211,227.5728836423399) translate(83.97500000000001 18.6)"/><path d="M-739.97 185.07h152.17" stroke="#282c33" stroke-width="7" fill="none"/><path d="M-739.88 188.57h-3.6v-7h3.6zM-584.3 188.57h-3.6v-7h3.6z" stroke="#282c33" stroke-width=".05" fill="#282c33"/><path d="M610.7-157.43h124.87v37.7H610.7v-37.7z" fill="#29aae1"/><path d="M616.7-115.4h112.87v2.93H616.7v-2.93z" fill="#2188b4"/><path d="M619.7-150.77h11.5v4.86h-11.5v-4.87z" fill="#fff"/><path d="M625.2-147.48c2.87 0 2.87 0 2.87 2.65v.5c0 2.65 0 2.65-2.87 2.65-2.75 0-2.75 0-2.75-2.65v-.5c0-2.65 0-2.65 2.75-2.65zM637.57-150.77h11.5v4.86h-11.5v-4.87z" fill="#fff"/><path d="M643.2-147.48c2.75 0 2.75 0 2.75 2.65v.5c0 2.65 0 2.65-2.75 2.65-2.88 0-2.88 0-2.88-2.65v-.5c0-2.65 0-2.65 2.88-2.65zM656.45-150.77h11.5v4.86h-11.5v-4.87z" fill="#fff"/><path d="M662.07-147.48c2.75 0 2.75 0 2.75 2.65v.5c0 2.65 0 2.65-2.75 2.65-2.87 0-2.87 0-2.87-2.65v-.5c0-2.65 0-2.65 2.87-2.65zM674.7-150.77h11.62v4.86H674.7v-4.87z" fill="#fff"/><path d="M680.32-147.48c2.75 0 2.75 0 2.75 2.65v.5c0 2.65 0 2.65-2.75 2.65s-2.75 0-2.75-2.65v-.5c0-2.65 0-2.65 2.75-2.65zM697.82-154.5h33.5v30.73h-33.5v-30.73z" fill="#fff"/><path d="M698.95-153.47h31.12v28.53h-31.12v-28.53z" fill="#54bbe7"/><path d="M619.95-135.6h11.62v4.8h-11.62v-4.8z" fill="#fff"/><path d="M625.57-132.36c2.75 0 2.75 0 2.75 2.65v.5c0 2.64 0 2.64-2.75 2.64s-2.75 0-2.75-2.65v-.5c0-2.66 0-2.66 2.75-2.66zM637.82-135.6h11.63v4.8h-11.63v-4.8z" fill="#fff"/><path d="M643.45-132.36c2.75 0 2.75 0 2.75 2.65v.5c0 2.64 0 2.64-2.75 2.64s-2.75 0-2.75-2.65v-.5c0-2.66 0-2.66 2.75-2.66zM656.7-135.6h11.62v4.8H656.7v-4.8z" fill="#fff"/><path d="M662.32-132.36c2.75 0 2.75 0 2.75 2.65v.5c0 2.64 0 2.64-2.75 2.64s-2.75 0-2.75-2.65v-.5c0-2.66 0-2.66 2.75-2.66zM675.07-135.6h11.63v4.8h-11.63v-4.8z" fill="#fff"/><path d="M680.7-132.36c2.75 0 2.75 0 2.75 2.65v.5c0 2.64 0 2.64-2.75 2.64s-2.75 0-2.75-2.65v-.5c0-2.66 0-2.66 2.75-2.66zM702.45-152.16l-3.13 3.06 3.25 3-.12-6.06zM702.45-132.18l-3.13 3.06 3.13 3v-6.06zM726.32-126.06l3.13-3.02-3.13-3.06v6.08zM726.45-145.95l3.12-3.02-3.12-3.06v6.08z" fill="#fff"/><path d="M702.2-150.36h4.75v2.43h-4.75v-2.43zM722.2-150.14h4.62v2.43h-4.62v-2.44zM702.2-130.38h4.62v2.43h-4.62v-2.43zM722.07-130.2h4.63v2.43h-4.63v-2.43z" fill="#fff"/><path d="M704.7-148.74l2.12-1.62 17.38 20.97-2.13 1.63-17.37-20.97z" fill="#fff"/><path d="M722.2-150.14l2 1.76-17.38 20.47-2.12-1.76 17.5-20.48z" fill="#fff"/><path d="M714.82-141.54l2 2.47-.37.27-2-2.47.37-.27zM712.57-139.2l2 2.47-.37.27-2-2.47.37-.27z" fill="#54bbe7"/><path d="M874.8-114.87h9v6.97h-9v-6.97zM831.3-177.43h95.2v62.56h-95.2v-62.56z" fill="#29aae1"/><path d="M835.6-173.6h86.9v55.93h-86.9v-55.93z" fill="#fff" fill-opacity=".98"/><path d="M835-107.47h86.8l-4.3 14.96h-86.8l4.3-14.97z" fill="#29aae1"/><path d="M834.5-107.98h88.8l7.4 15.47h-88.8L834.5-108z" fill="#29aae1"/><path d="M864.6-96.5h31.6v3.14h-31.6v-3.15zM847.2-105.52h2.3v1.96h-2.3v-1.96zM851.3-105.43h2.4v1.95h-2.4v-1.95zM856.6-101.86h2.4v1.95h-2.4v-1.96zM855.8-105.7h2.3v2.05h-2.3v-2.04zM859.8-105.52h2.4v1.96h-2.4v-1.96zM863.7-105.7h2.4v2.05h-2.4v-2.04zM888.2-105.35h2.4v2.04h-2.4v-2.05zM891.8-105.35h2.4v2.04h-2.4v-2.05zM895.2-105.35h2.4v2.04h-2.4v-2.05zM899.3-105.35h2.3v2.04h-2.3v-2.05zM903-105.35h2.3v2.04H903v-2.05zM898.6-102.03h2.3v1.95h-2.3v-1.95zM907.2-105.35h2.4v2.04h-2.4v-2.05zM861.1-101.95h2.3v1.96h-2.3v-1.95zM865.6-101.95h2.3v1.96h-2.3v-1.95zM894.9-102.12h2v1.96h-2v-1.96zM890.8-102.12h2.4v1.96h-2.4v-1.96zM868.1-105.6h2.4v2.04h-2.4v-2.04zM872.6-105.52h2.3v2.04h-2.3v-2.04zM876.7-105.6h2.3v2.04h-2.3v-2.04zM881.2-105.6h2.3v2.04h-2.3v-2.04zM884.9-105.52h2.3v2.04h-2.3v-2.04zM869.6-102.03h2.4v1.95h-2.4v-1.95zM874.1-102.03h2.3v1.95h-2.3v-1.95zM878.2-101.95h2.4v1.96h-2.4v-1.95zM882.3-101.95h2.3v1.96h-2.3v-1.95zM886.5-102.12h2.3v1.96h-2.3v-1.96z" fill="#fff"/><path d="M830.8-92.5l99.9-.35-7.1-15.13-88.5.17-4.3 15.3z" fill="none"/><path d="M874.3-114.87h9.8v.94h-9.8v-.94zM874.7-109.1h9.3v1.12h-9.3v-1.1z" fill="#fff"/><use xlink:href="#h" transform="matrix(1,0,0,1,800.6976699495237,-92.42711635766011) translate(68.525 18.6)"/><path d="M950.7 162.57h124.87v37.7H950.7v-37.7z" fill="#29aae1"/><path d="M956.7 204.6h112.87v2.93H956.7v-2.93z" fill="#2188b4"/><path d="M959.7 169.23h11.5v4.86h-11.5v-4.87z" fill="#fff"/><path d="M965.2 172.52c2.87 0 2.87 0 2.87 2.65v.5c0 2.65 0 2.65-2.87 2.65-2.75 0-2.75 0-2.75-2.65v-.5c0-2.65 0-2.65 2.75-2.65zM977.57 169.23h11.5v4.86h-11.5v-4.87z" fill="#fff"/><path d="M983.2 172.52c2.75 0 2.75 0 2.75 2.65v.5c0 2.65 0 2.65-2.75 2.65-2.88 0-2.88 0-2.88-2.65v-.5c0-2.65 0-2.65 2.88-2.65zM996.45 169.23h11.5v4.86h-11.5v-4.87z" fill="#fff"/><path d="M1002.07 172.52c2.75 0 2.75 0 2.75 2.65v.5c0 2.65 0 2.65-2.75 2.65-2.87 0-2.87 0-2.87-2.65v-.5c0-2.65 0-2.65 2.87-2.65zM1014.7 169.23h11.62v4.86h-11.62v-4.87z" fill="#fff"/><path d="M1020.32 172.52c2.75 0 2.75 0 2.75 2.65v.5c0 2.65 0 2.65-2.75 2.65s-2.75 0-2.75-2.65v-.5c0-2.65 0-2.65 2.75-2.65zM1037.82 165.5h33.5v30.73h-33.5V165.5z" fill="#fff"/><path d="M1038.95 166.53h31.12v28.53h-31.12v-28.53z" fill="#54bbe7"/><path d="M959.95 184.4h11.62v4.8h-11.62v-4.8z" fill="#fff"/><path d="M965.57 187.64c2.75 0 2.75 0 2.75 2.65v.5c0 2.64 0 2.64-2.75 2.64s-2.75 0-2.75-2.65v-.5c0-2.66 0-2.66 2.75-2.66zM977.82 184.4h11.63v4.8h-11.63v-4.8z" fill="#fff"/><path d="M983.45 187.64c2.75 0 2.75 0 2.75 2.65v.5c0 2.64 0 2.64-2.75 2.64s-2.75 0-2.75-2.65v-.5c0-2.66 0-2.66 2.75-2.66zM996.7 184.4h11.62v4.8H996.7v-4.8z" fill="#fff"/><path d="M1002.32 187.64c2.75 0 2.75 0 2.75 2.65v.5c0 2.64 0 2.64-2.75 2.64s-2.75 0-2.75-2.65v-.5c0-2.66 0-2.66 2.75-2.66zM1015.07 184.4h11.63v4.8h-11.63v-4.8z" fill="#fff"/><path d="M1020.7 187.64c2.75 0 2.75 0 2.75 2.65v.5c0 2.64 0 2.64-2.75 2.64s-2.75 0-2.75-2.65v-.5c0-2.66 0-2.66 2.75-2.66zM1042.45 167.84l-3.13 3.06 3.25 3-.12-6.06zM1042.45 187.82l-3.13 3.06 3.13 3v-6.06zM1066.32 193.94l3.13-3.02-3.13-3.06v6.08zM1066.45 174.05l3.12-3.02-3.12-3.06v6.08z" fill="#fff"/><path d="M1042.2 169.64h4.75v2.43h-4.75v-2.43zM1062.2 169.86h4.62v2.43h-4.62v-2.44zM1042.2 189.62h4.62v2.43h-4.62v-2.43zM1062.07 189.8h4.63v2.43h-4.63v-2.43z" fill="#fff"/><path d="M1044.7 171.26l2.12-1.62 17.38 20.97-2.13 1.63-17.37-20.97z" fill="#fff"/><path d="M1062.2 169.86l2 1.76-17.38 20.47-2.12-1.76 17.5-20.48z" fill="#fff"/><path d="M1054.82 178.46l2 2.47-.37.27-2-2.47.37-.27zM1052.57 180.8l2 2.47-.37.27-2-2.47.37-.27z" fill="#54bbe7"/><use xlink:href="#i" transform="matrix(1,0,0,1,920.6976699495237,207.5728836423399) translate(81.5 18.6)"/><path d="M1234.8 205.13h9v6.97h-9v-6.97zM1191.3 142.57h95.2v62.56h-95.2v-62.56z" fill="#29aae1"/><path d="M1195.6 146.4h86.9v55.93h-86.9V146.4z" fill="#fff" fill-opacity=".98"/><path d="M1195 212.53h86.8l-4.3 14.96h-86.8l4.3-14.97z" fill="#29aae1"/><path d="M1194.5 212.02h88.8l7.4 15.47h-88.8l-7.4-15.48z" fill="#29aae1"/><path d="M1224.6 223.5h31.6v3.14h-31.6v-3.15zM1207.2 214.48h2.3v1.96h-2.3v-1.96zM1211.3 214.57h2.4v1.95h-2.4v-1.95zM1216.6 218.14h2.4v1.95h-2.4v-1.96zM1215.8 214.3h2.3v2.05h-2.3v-2.04zM1219.8 214.48h2.4v1.96h-2.4v-1.96zM1223.7 214.3h2.4v2.05h-2.4v-2.04zM1248.2 214.65h2.4v2.04h-2.4v-2.05zM1251.8 214.65h2.4v2.04h-2.4v-2.05zM1255.2 214.65h2.4v2.04h-2.4v-2.05zM1259.3 214.65h2.3v2.04h-2.3v-2.05zM1263 214.65h2.3v2.04h-2.3v-2.05zM1258.6 217.97h2.3v1.95h-2.3v-1.95zM1267.2 214.65h2.4v2.04h-2.4v-2.05zM1221.1 218.05h2.3V220h-2.3v-1.95zM1225.6 218.05h2.3V220h-2.3v-1.95zM1254.9 217.88h2v1.96h-2v-1.96zM1250.8 217.88h2.4v1.96h-2.4v-1.96zM1228.1 214.4h2.4v2.04h-2.4v-2.04zM1232.6 214.48h2.3v2.04h-2.3v-2.04zM1236.7 214.4h2.3v2.04h-2.3v-2.04zM1241.2 214.4h2.3v2.04h-2.3v-2.04zM1244.9 214.48h2.3v2.04h-2.3v-2.04zM1229.6 217.97h2.4v1.95h-2.4v-1.95zM1234.1 217.97h2.3v1.95h-2.3v-1.95zM1238.2 218.05h2.4V220h-2.4v-1.95zM1242.3 218.05h2.3V220h-2.3v-1.95zM1246.5 217.88h2.3v1.96h-2.3v-1.96z" fill="#fff"/><path d="M1190.8 227.5l99.9-.35-7.1-15.13-88.5.17-4.3 15.3z" fill="none"/><path d="M1234.3 205.13h9.8v.94h-9.8v-.94zM1234.7 210.9h9.3v1.12h-9.3v-1.1z" fill="#fff"/><use xlink:href="#j" transform="matrix(1,0,0,1,1160.6976699495237,227.5728836423399) translate(68.525 18.6)"/><path d="M610.7 162.57h124.87v37.7H610.7v-37.7z" fill="#29aae1"/><path d="M616.7 204.6h112.87v2.93H616.7v-2.93z" fill="#2188b4"/><path d="M619.7 169.23h11.5v4.86h-11.5v-4.87z" fill="#fff"/><path d="M625.2 172.52c2.87 0 2.87 0 2.87 2.65v.5c0 2.65 0 2.65-2.87 2.65-2.75 0-2.75 0-2.75-2.65v-.5c0-2.65 0-2.65 2.75-2.65zM637.57 169.23h11.5v4.86h-11.5v-4.87z" fill="#fff"/><path d="M643.2 172.52c2.75 0 2.75 0 2.75 2.65v.5c0 2.65 0 2.65-2.75 2.65-2.88 0-2.88 0-2.88-2.65v-.5c0-2.65 0-2.65 2.88-2.65zM656.45 169.23h11.5v4.86h-11.5v-4.87z" fill="#fff"/><path d="M662.07 172.52c2.75 0 2.75 0 2.75 2.65v.5c0 2.65 0 2.65-2.75 2.65-2.87 0-2.87 0-2.87-2.65v-.5c0-2.65 0-2.65 2.87-2.65zM674.7 169.23h11.62v4.86H674.7v-4.87z" fill="#fff"/><path d="M680.32 172.52c2.75 0 2.75 0 2.75 2.65v.5c0 2.65 0 2.65-2.75 2.65s-2.75 0-2.75-2.65v-.5c0-2.65 0-2.65 2.75-2.65zM697.82 165.5h33.5v30.73h-33.5V165.5z" fill="#fff"/><path d="M698.95 166.53h31.12v28.53h-31.12v-28.53z" fill="#54bbe7"/><path d="M619.95 184.4h11.62v4.8h-11.62v-4.8z" fill="#fff"/><path d="M625.57 187.64c2.75 0 2.75 0 2.75 2.65v.5c0 2.64 0 2.64-2.75 2.64s-2.75 0-2.75-2.65v-.5c0-2.66 0-2.66 2.75-2.66zM637.82 184.4h11.63v4.8h-11.63v-4.8z" fill="#fff"/><path d="M643.45 187.64c2.75 0 2.75 0 2.75 2.65v.5c0 2.64 0 2.64-2.75 2.64s-2.75 0-2.75-2.65v-.5c0-2.66 0-2.66 2.75-2.66zM656.7 184.4h11.62v4.8H656.7v-4.8z" fill="#fff"/><path d="M662.32 187.64c2.75 0 2.75 0 2.75 2.65v.5c0 2.64 0 2.64-2.75 2.64s-2.75 0-2.75-2.65v-.5c0-2.66 0-2.66 2.75-2.66zM675.07 184.4h11.63v4.8h-11.63v-4.8z" fill="#fff"/><path d="M680.7 187.64c2.75 0 2.75 0 2.75 2.65v.5c0 2.64 0 2.64-2.75 2.64s-2.75 0-2.75-2.65v-.5c0-2.66 0-2.66 2.75-2.66zM702.45 167.84l-3.13 3.06 3.25 3-.12-6.06zM702.45 187.82l-3.13 3.06 3.13 3v-6.06zM726.32 193.94l3.13-3.02-3.13-3.06v6.08zM726.45 174.05l3.12-3.02-3.12-3.06v6.08z" fill="#fff"/><path d="M702.2 169.64h4.75v2.43h-4.75v-2.43zM722.2 169.86h4.62v2.43h-4.62v-2.44zM702.2 189.62h4.62v2.43h-4.62v-2.43zM722.07 189.8h4.63v2.43h-4.63v-2.43z" fill="#fff"/><path d="M704.7 171.26l2.12-1.62 17.38 20.97-2.13 1.63-17.37-20.97z" fill="#fff"/><path d="M722.2 169.86l2 1.76-17.38 20.47-2.12-1.76 17.5-20.48z" fill="#fff"/><path d="M714.82 178.46l2 2.47-.37.27-2-2.47.37-.27zM712.57 180.8l2 2.47-.37.27-2-2.47.37-.27z" fill="#54bbe7"/><use xlink:href="#k" transform="matrix(1,0,0,1,580.6976699495237,207.5728836423399) translate(81.5 18.6)"/><path d="M70.7 162.57h124.87v37.7H70.7v-37.7z" fill="#29aae1"/><path d="M76.7 204.6h112.87v2.93H76.7v-2.93z" fill="#2188b4"/><path d="M79.7 169.23h11.5v4.86H79.7v-4.87z" fill="#fff"/><path d="M85.2 172.52c2.87 0 2.87 0 2.87 2.65v.5c0 2.65 0 2.65-2.87 2.65-2.75 0-2.75 0-2.75-2.65v-.5c0-2.65 0-2.65 2.75-2.65zM97.57 169.23h11.5v4.86h-11.5v-4.87z" fill="#fff"/><path d="M103.2 172.52c2.75 0 2.75 0 2.75 2.65v.5c0 2.65 0 2.65-2.75 2.65-2.88 0-2.88 0-2.88-2.65v-.5c0-2.65 0-2.65 2.88-2.65zM116.45 169.23h11.5v4.86h-11.5v-4.87z" fill="#fff"/><path d="M122.07 172.52c2.75 0 2.75 0 2.75 2.65v.5c0 2.65 0 2.65-2.75 2.65-2.87 0-2.87 0-2.87-2.65v-.5c0-2.65 0-2.65 2.87-2.65zM134.7 169.23h11.62v4.86H134.7v-4.87z" fill="#fff"/><path d="M140.32 172.52c2.75 0 2.75 0 2.75 2.65v.5c0 2.65 0 2.65-2.75 2.65s-2.75 0-2.75-2.65v-.5c0-2.65 0-2.65 2.75-2.65zM157.82 165.5h33.5v30.73h-33.5V165.5z" fill="#fff"/><path d="M158.95 166.53h31.12v28.53h-31.12v-28.53z" fill="#54bbe7"/><path d="M79.95 184.4h11.62v4.8H79.95v-4.8z" fill="#fff"/><path d="M85.57 187.64c2.75 0 2.75 0 2.75 2.65v.5c0 2.64 0 2.64-2.75 2.64s-2.75 0-2.75-2.65v-.5c0-2.66 0-2.66 2.75-2.66zM97.82 184.4h11.63v4.8H97.82v-4.8z" fill="#fff"/><path d="M103.45 187.64c2.75 0 2.75 0 2.75 2.65v.5c0 2.64 0 2.64-2.75 2.64s-2.75 0-2.75-2.65v-.5c0-2.66 0-2.66 2.75-2.66zM116.7 184.4h11.62v4.8H116.7v-4.8z" fill="#fff"/><path d="M122.32 187.64c2.75 0 2.75 0 2.75 2.65v.5c0 2.64 0 2.64-2.75 2.64s-2.75 0-2.75-2.65v-.5c0-2.66 0-2.66 2.75-2.66zM135.07 184.4h11.63v4.8h-11.63v-4.8z" fill="#fff"/><path d="M140.7 187.64c2.75 0 2.75 0 2.75 2.65v.5c0 2.64 0 2.64-2.75 2.64s-2.75 0-2.75-2.65v-.5c0-2.66 0-2.66 2.75-2.66zM162.45 167.84l-3.13 3.06 3.25 3-.12-6.06zM162.45 187.82l-3.13 3.06 3.13 3v-6.06zM186.32 193.94l3.13-3.02-3.13-3.06v6.08zM186.45 174.05l3.12-3.02-3.12-3.06v6.08z" fill="#fff"/><path d="M162.2 169.64h4.75v2.43h-4.75v-2.43zM182.2 169.86h4.62v2.43h-4.62v-2.44zM162.2 189.62h4.62v2.43h-4.62v-2.43zM182.07 189.8h4.63v2.43h-4.63v-2.43z" fill="#fff"/><path d="M164.7 171.26l2.12-1.62 17.38 20.97-2.13 1.63-17.37-20.97z" fill="#fff"/><path d="M182.2 169.86l2 1.76-17.38 20.47-2.12-1.76 17.5-20.48z" fill="#fff"/><path d="M174.82 178.46l2 2.47-.37.27-2-2.47.37-.27zM172.57 180.8l2 2.47-.37.27-2-2.47.37-.27z" fill="#54bbe7"/><use xlink:href="#l" transform="matrix(1,0,0,1,40.6976699495238,207.5728836423399) translate(76.5 18.6)"/><path d="M-290.02 162.57h124.87v37.7h-124.87v-37.7z" fill="#29aae1"/><path d="M-284.02 204.6h112.87v2.93h-112.87v-2.93z" fill="#2188b4"/><path d="M-281.02 169.23h11.5v4.86h-11.5v-4.87z" fill="#fff"/><path d="M-275.52 172.52c2.87 0 2.87 0 2.87 2.65v.5c0 2.65 0 2.65-2.87 2.65-2.75 0-2.75 0-2.75-2.65v-.5c0-2.65 0-2.65 2.75-2.65zM-263.15 169.23h11.5v4.86h-11.5v-4.87z" fill="#fff"/><path d="M-257.52 172.52c2.75 0 2.75 0 2.75 2.65v.5c0 2.65 0 2.65-2.75 2.65-2.88 0-2.88 0-2.88-2.65v-.5c0-2.65 0-2.65 2.88-2.65zM-244.27 169.23h11.5v4.86h-11.5v-4.87z" fill="#fff"/><path d="M-238.65 172.52c2.75 0 2.75 0 2.75 2.65v.5c0 2.65 0 2.65-2.75 2.65-2.87 0-2.87 0-2.87-2.65v-.5c0-2.65 0-2.65 2.87-2.65zM-226.02 169.23h11.62v4.86h-11.62v-4.87z" fill="#fff"/><path d="M-220.4 172.52c2.75 0 2.75 0 2.75 2.65v.5c0 2.65 0 2.65-2.75 2.65s-2.75 0-2.75-2.65v-.5c0-2.65 0-2.65 2.75-2.65zM-202.9 165.5h33.5v30.73h-33.5V165.5z" fill="#fff"/><path d="M-201.77 166.53h31.12v28.53h-31.12v-28.53z" fill="#54bbe7"/><path d="M-280.77 184.4h11.62v4.8h-11.62v-4.8z" fill="#fff"/><path d="M-275.15 187.64c2.75 0 2.75 0 2.75 2.65v.5c0 2.64 0 2.64-2.75 2.64s-2.75 0-2.75-2.65v-.5c0-2.66 0-2.66 2.75-2.66zM-262.9 184.4h11.63v4.8h-11.63v-4.8z" fill="#fff"/><path d="M-257.27 187.64c2.75 0 2.75 0 2.75 2.65v.5c0 2.64 0 2.64-2.75 2.64s-2.75 0-2.75-2.65v-.5c0-2.66 0-2.66 2.75-2.66zM-244.02 184.4h11.62v4.8h-11.62v-4.8z" fill="#fff"/><path d="M-238.4 187.64c2.75 0 2.75 0 2.75 2.65v.5c0 2.64 0 2.64-2.75 2.64s-2.75 0-2.75-2.65v-.5c0-2.66 0-2.66 2.75-2.66zM-225.65 184.4h11.63v4.8h-11.63v-4.8z" fill="#fff"/><path d="M-220.02 187.64c2.75 0 2.75 0 2.75 2.65v.5c0 2.64 0 2.64-2.75 2.64s-2.75 0-2.75-2.65v-.5c0-2.66 0-2.66 2.75-2.66zM-198.27 167.84l-3.13 3.06 3.25 3-.12-6.06zM-198.27 187.82l-3.13 3.06 3.13 3v-6.06zM-174.4 193.94l3.13-3.02-3.13-3.06v6.08zM-174.27 174.05l3.12-3.02-3.12-3.06v6.08z" fill="#fff"/><path d="M-198.52 169.64h4.75v2.43h-4.75v-2.43zM-178.52 169.86h4.62v2.43h-4.62v-2.44zM-198.52 189.62h4.62v2.43h-4.62v-2.43zM-178.65 189.8h4.63v2.43h-4.63v-2.43z" fill="#fff"/><path d="M-196.02 171.26l2.12-1.62 17.38 20.97-2.13 1.63-17.37-20.97z" fill="#fff"/><path d="M-178.52 169.86l2 1.76-17.38 20.47-2.12-1.76 17.5-20.48z" fill="#fff"/><path d="M-185.9 178.46l2 2.47-.37.27-2-2.47.37-.27zM-188.15 180.8l2 2.47-.37.27-2-2.47.37-.27z" fill="#54bbe7"/><use xlink:href="#m" transform="matrix(1,0,0,1,-320.0235212432951,207.5728836423399) translate(81.5 18.6)"/><path d="M-455.93 185.07h162.4" stroke="#282c33" stroke-width="7" fill="none"/><path d="M-455.84 188.57h-3.6v-7h3.6zM-290.02 188.57h-3.6v-7h3.6z" stroke="#282c33" stroke-width=".05" fill="#282c33"/><path d="M-161.65 185.07H67.2" stroke="#282c33" stroke-width="7" fill="none"/><path d="M-161.56 188.57h-3.6v-7h3.6zM70.7 188.57h-3.6v-7h3.6z" stroke="#282c33" stroke-width=".05" fill="#282c33"/><path d="M610.76 673.12h124.88v37.7H610.76v-37.7z" fill="#29aae1"/><path d="M616.76 715.15h112.88v2.93H616.76v-2.93z" fill="#2188b4"/><path d="M619.76 679.78h11.5v4.86h-11.5v-4.86z" fill="#fff"/><path d="M625.26 683.07c2.88 0 2.88 0 2.88 2.65v.5c0 2.65 0 2.65-2.88 2.65-2.75 0-2.75 0-2.75-2.65v-.5c0-2.65 0-2.65 2.76-2.65zM637.64 679.78h11.5v4.86h-11.5v-4.86z" fill="#fff"/><path d="M643.26 683.07c2.75 0 2.75 0 2.75 2.65v.5c0 2.65 0 2.65-2.74 2.65-2.87 0-2.87 0-2.87-2.65v-.5c0-2.65 0-2.65 2.86-2.65zM656.5 679.78H668v4.86h-11.5v-4.86z" fill="#fff"/><path d="M662.14 683.07c2.75 0 2.75 0 2.75 2.65v.5c0 2.65 0 2.65-2.76 2.65-2.88 0-2.88 0-2.88-2.65v-.5c0-2.65 0-2.65 2.88-2.65zM674.76 679.78h11.63v4.86h-11.64v-4.86z" fill="#fff"/><path d="M680.4 683.07c2.74 0 2.74 0 2.74 2.65v.5c0 2.65 0 2.65-2.75 2.65-2.76 0-2.76 0-2.76-2.65v-.5c0-2.65 0-2.65 2.75-2.65zM697.9 676.05h33.5v30.73h-33.5v-30.73z" fill="#fff"/><path d="M699 677.08h31.14v28.53H699V677.1z" fill="#54bbe7"/><path d="M620 694.95h11.64v4.8H620v-4.8z" fill="#fff"/><path d="M625.64 698.2c2.75 0 2.75 0 2.75 2.64v.5c0 2.65 0 2.65-2.76 2.65-2.75 0-2.75 0-2.75-2.66v-.5c0-2.65 0-2.65 2.74-2.65zM637.9 694.95h11.6v4.8h-11.6v-4.8z" fill="#fff"/><path d="M643.5 698.2c2.76 0 2.76 0 2.76 2.64v.5c0 2.65 0 2.65-2.75 2.65-2.74 0-2.74 0-2.74-2.66v-.5c0-2.65 0-2.65 2.75-2.65zM656.76 694.95h11.63v4.8h-11.64v-4.8z" fill="#fff"/><path d="M662.4 698.2c2.74 0 2.74 0 2.74 2.64v.5c0 2.65 0 2.65-2.75 2.65-2.76 0-2.76 0-2.76-2.66v-.5c0-2.65 0-2.65 2.75-2.65zM675.14 694.95h11.62v4.8h-11.62v-4.8z" fill="#fff"/><path d="M680.76 698.2c2.75 0 2.75 0 2.75 2.64v.5c0 2.65 0 2.65-2.74 2.65-2.75 0-2.75 0-2.75-2.66v-.5c0-2.65 0-2.65 2.76-2.65zM702.5 678.4l-3.1 3.05 3.24 3-.13-6.06zM702.5 698.37l-3.1 3.06 3.1 3v-6.06zM726.4 704.5l3.1-3.03-3.1-3.06v6.1zM726.5 684.6l3.14-3.02-3.13-3.06v6.08z" fill="#fff"/><path d="M702.26 680.2H707v2.42h-4.74v-2.43zM722.26 680.4h4.63v2.44h-4.64v-2.43zM702.26 700.17h4.63v2.43h-4.64v-2.43zM722.14 700.35h4.62v2.43h-4.62v-2.43z" fill="#fff"/><path d="M704.76 681.8l2.13-1.6 17.36 20.96-2.12 1.62-17.38-20.97z" fill="#fff"/><path d="M722.26 680.4l2 1.77-17.37 20.47-2.14-1.75 17.5-20.5z" fill="#fff"/><path d="M714.9 689l2 2.48-.4.27-2-2.47.4-.27zM712.64 691.35l2 2.47-.38.27-2-2.48.38-.27z" fill="#54bbe7"/><use xlink:href="#n" transform="matrix(1,0,0,1,580.7609290588364,718.1208288478196) translate(81.5 18.6)"/><path d="M874.8 715.68h9v6.97h-9v-6.97z" fill="#29aae1"/><path d="M831.3 653.12h95.2v62.56h-95.2v-62.56z" fill="#29aae1"/><path d="M835.6 656.95h86.9v55.93h-86.9v-55.93z" fill="#fff" fill-opacity=".98"/><path d="M835 723.08h86.8l-4.3 14.96h-86.8l4.3-14.96z" fill="#29aae1"/><path d="M834.5 722.57h88.8l7.4 15.47h-88.8l-7.4-15.47z" fill="#29aae1"/><path d="M864.6 734.04h31.6v3.15h-31.6v-3.16zM847.2 725.03h2.3V727h-2.3v-1.97zM851.3 725.12h2.4v1.95h-2.4v-1.95zM856.6 728.7h2.4v1.94h-2.4v-1.95zM855.8 724.86h2.3v2.04h-2.3v-2.04zM859.8 725.03h2.4V727h-2.4v-1.97zM863.7 724.86h2.4v2.04h-2.4v-2.04zM888.2 725.2h2.4v2.04h-2.4v-2.04zM891.8 725.2h2.4v2.04h-2.4v-2.04zM895.2 725.2h2.4v2.04h-2.4v-2.04zM899.3 725.2h2.3v2.04h-2.3v-2.04zM903 725.2h2.3v2.04H903v-2.04zM898.6 728.52h2.3v1.95h-2.3v-1.95zM907.2 725.2h2.4v2.04h-2.4v-2.04zM861.1 728.6h2.3v1.96h-2.3v-1.96zM865.6 728.6h2.3v1.96h-2.3v-1.96zM894.9 728.43h2v1.96h-2v-1.97zM890.8 728.43h2.4v1.96h-2.4v-1.97zM868.1 724.95h2.4V727h-2.4v-2.05zM872.6 725.03h2.3v2.04h-2.3v-2.04zM876.7 724.95h2.3V727h-2.3v-2.05zM881.2 724.95h2.3V727h-2.3v-2.05zM884.9 725.03h2.3v2.04h-2.3v-2.04zM869.6 728.52h2.4v1.95h-2.4v-1.95zM874.1 728.52h2.3v1.95h-2.3v-1.95zM878.2 728.6h2.4v1.96h-2.4v-1.96zM882.3 728.6h2.3v1.96h-2.3v-1.96zM886.5 728.43h2.3v1.96h-2.3v-1.97z" fill="#fff"/><path d="M830.8 738.04l99.9-.34-7.1-15.13-88.5.17-4.3 15.3z" fill="none"/><path d="M874.3 715.68h9.8v.94h-9.8v-.94zM874.7 721.46h9.3v1.1h-9.3v-1.1z" fill="#fff"/><use xlink:href="#o" transform="matrix(1,0,0,1,800.6976699495237,738.1208288478196) translate(68.525 18.6)"/><path d="M641.63 669.62v-458.6" stroke="#282c33" stroke-width="7" fill="none"/><path d="M645.13 673.12h-7v-3.6h7zM645.13 211.12h-7v-3.6h7zm0-6.52h-7v-.07h7z" stroke="#282c33" stroke-width=".05" fill="#282c33"/><path d="M199.07 185.07H607.2" stroke="#282c33" stroke-width="7" fill="none"/><path d="M199.16 188.57h-3.6v-7h3.6zM610.7 188.57h-3.6v-7h3.6z" stroke="#282c33" stroke-width=".05" fill="#282c33"/><path d="M1079.07 185.07h108.73" stroke="#282c33" stroke-width="7" fill="none"/><path d="M1079.16 188.57h-3.6v-7h3.6zM1191.3 188.57h-3.6v-7h3.6z" stroke="#282c33" stroke-width=".05" fill="#282c33"/><path d="M739.07 185.07H947.2" stroke="#282c33" stroke-width="7" fill="none"/><path d="M739.16 188.57h-3.6v-7h3.6zM950.7 188.57h-3.6v-7h3.6z" stroke="#282c33" stroke-width=".05" fill="#282c33"/><path d="M739.14 695.62h88.66" stroke="#282c33" stroke-width="7" fill="none"/><path d="M739.23 699.12h-3.6v-7h3.6zM831.3 699.12h-3.6v-7h3.6z" stroke="#282c33" stroke-width=".05" fill="#282c33"/><path d="M641.63-108.97v268.04" stroke="#282c33" stroke-width="7" fill="none"/><path d="M645.13-108.88h-7v-3.6h7zm0-6.52h-7v-.07h7zM645.13 162.57h-7v-3.6h7z" stroke="#282c33" stroke-width=".05" fill="#282c33"/><path d="M739.07-134.93h88.73" stroke="#282c33" stroke-width="7" fill="none"/><path d="M739.16-131.43h-3.6v-7h3.6zM831.3-131.43h-3.6v-7h3.6z" stroke="#282c33" stroke-width=".05" fill="#282c33"/><path d="M1349.67-68.93h124.88v37.7h-124.88v-37.7z" fill="#29aae1"/><path d="M1355.67-26.9h112.88v2.93h-112.88v-2.93z" fill="#2188b4"/><path d="M1358.67-62.27h11.5v4.86h-11.5v-4.87z" fill="#fff"/><path d="M1364.17-58.98c2.88 0 2.88 0 2.88 2.65v.5c0 2.65 0 2.65-2.88 2.65-2.75 0-2.75 0-2.75-2.65v-.5c0-2.65 0-2.65 2.75-2.65zM1376.55-62.27h11.5v4.86h-11.5v-4.87z" fill="#fff"/><path d="M1382.17-58.98c2.75 0 2.75 0 2.75 2.65v.5c0 2.65 0 2.65-2.75 2.65-2.87 0-2.87 0-2.87-2.65v-.5c0-2.65 0-2.65 2.87-2.65zM1395.42-62.27h11.5v4.86h-11.5v-4.87z" fill="#fff"/><path d="M1401.05-58.98c2.75 0 2.75 0 2.75 2.65v.5c0 2.65 0 2.65-2.75 2.65-2.88 0-2.88 0-2.88-2.65v-.5c0-2.65 0-2.65 2.88-2.65zM1413.67-62.27h11.63v4.86h-11.63v-4.87z" fill="#fff"/><path d="M1419.3-58.98c2.75 0 2.75 0 2.75 2.65v.5c0 2.65 0 2.65-2.75 2.65s-2.75 0-2.75-2.65v-.5c0-2.65 0-2.65 2.75-2.65zM1436.8-66h33.5v30.73h-33.5V-66z" fill="#fff"/><path d="M1437.92-64.97h31.13v28.53h-31.13v-28.53z" fill="#54bbe7"/><path d="M1358.92-47.1h11.63v4.8h-11.63v-4.8z" fill="#fff"/><path d="M1364.55-43.86c2.75 0 2.75 0 2.75 2.65v.5c0 2.64 0 2.64-2.75 2.64s-2.75 0-2.75-2.65v-.5c0-2.66 0-2.66 2.75-2.66zM1376.8-47.1h11.62v4.8h-11.62v-4.8z" fill="#fff"/><path d="M1382.42-43.86c2.75 0 2.75 0 2.75 2.65v.5c0 2.64 0 2.64-2.75 2.64s-2.75 0-2.75-2.65v-.5c0-2.66 0-2.66 2.75-2.66zM1395.67-47.1h11.63v4.8h-11.63v-4.8z" fill="#fff"/><path d="M1401.3-43.86c2.75 0 2.75 0 2.75 2.65v.5c0 2.64 0 2.64-2.75 2.64s-2.75 0-2.75-2.65v-.5c0-2.66 0-2.66 2.75-2.66zM1414.05-47.1h11.62v4.8h-11.62v-4.8z" fill="#fff"/><path d="M1419.67-43.86c2.75 0 2.75 0 2.75 2.65v.5c0 2.64 0 2.64-2.75 2.64s-2.75 0-2.75-2.65v-.5c0-2.66 0-2.66 2.75-2.66zM1441.42-63.66l-3.12 3.06 3.25 3-.13-6.06zM1441.42-43.68l-3.12 3.06 3.12 3v-6.06zM1465.3-37.56l3.12-3.02-3.12-3.06v6.08zM1465.42-57.45l3.13-3.02-3.13-3.06v6.08z" fill="#fff"/><path d="M1441.17-61.86h4.75v2.43h-4.75v-2.43zM1461.17-61.64h4.63v2.43h-4.63v-2.44zM1441.17-41.88h4.63v2.43h-4.63v-2.43zM1461.05-41.7h4.62v2.43h-4.62v-2.43z" fill="#fff"/><path d="M1443.67-60.24l2.13-1.62 17.37 20.97-2.12 1.63-17.38-20.97z" fill="#fff"/><path d="M1461.17-61.64l2 1.76-17.37 20.47-2.13-1.76 17.5-20.48z" fill="#fff"/><path d="M1453.8-53.04l2 2.47-.38.27-2-2.47.38-.27zM1451.55-50.7l2 2.47-.38.27-2-2.47.38-.27z" fill="#54bbe7"/><use xlink:href="#p" transform="matrix(1,0,0,1,1319.6745550789212,-23.92711635766011) translate(81.5 18.6)"/><path d="M1613.77-26.37h9v6.97h-9v-6.97zM1570.27-88.93h95.2v62.56h-95.2v-62.56z" fill="#29aae1"/><path d="M1574.57-85.1h86.9v55.93h-86.9V-85.1z" fill="#fff" fill-opacity=".98"/><path d="M1573.97-18.97h86.8L1656.47-4h-86.8l4.3-14.97z" fill="#29aae1"/><path d="M1573.47-19.48h88.8l7.4 15.47h-88.8l-7.4-15.48z" fill="#29aae1"/><path d="M1603.57-8h31.6v3.14h-31.6V-8zM1586.17-17.02h2.3v1.96h-2.3v-1.96zM1590.27-16.93h2.4v1.95h-2.4v-1.95zM1595.57-13.36h2.4v1.95h-2.4v-1.96zM1594.77-17.2h2.3v2.05h-2.3v-2.04zM1598.77-17.02h2.4v1.96h-2.4v-1.96zM1602.67-17.2h2.4v2.05h-2.4v-2.04zM1627.17-16.85h2.4v2.04h-2.4v-2.05zM1630.77-16.85h2.4v2.04h-2.4v-2.05zM1634.17-16.85h2.4v2.04h-2.4v-2.05zM1638.27-16.85h2.3v2.04h-2.3v-2.05zM1641.97-16.85h2.3v2.04h-2.3v-2.05zM1637.57-13.53h2.3v1.95h-2.3v-1.95zM1646.17-16.85h2.4v2.04h-2.4v-2.05zM1600.07-13.45h2.3v1.96h-2.3v-1.95zM1604.57-13.45h2.3v1.96h-2.3v-1.95zM1633.87-13.62h2v1.96h-2v-1.96zM1629.77-13.62h2.4v1.96h-2.4v-1.96zM1607.07-17.1h2.4v2.04h-2.4v-2.04zM1611.57-17.02h2.3v2.04h-2.3v-2.04zM1615.67-17.1h2.3v2.04h-2.3v-2.04zM1620.17-17.1h2.3v2.04h-2.3v-2.04zM1623.87-17.02h2.3v2.04h-2.3v-2.04zM1608.57-13.53h2.4v1.95h-2.4v-1.95zM1613.07-13.53h2.3v1.95h-2.3v-1.95zM1617.17-13.45h2.4v1.96h-2.4v-1.95zM1621.27-13.45h2.3v1.96h-2.3v-1.95zM1625.47-13.62h2.3v1.96h-2.3v-1.96z" fill="#fff"/><path d="M1569.77-4l99.9-.35-7.1-15.13-88.5.17-4.3 15.3z" fill="none"/><path d="M1613.27-26.37h9.8v.94h-9.8v-.94zM1613.67-20.6h9.3v1.12h-9.3v-1.1z" fill="#fff"/><use xlink:href="#q" transform="matrix(1,0,0,1,1539.6745550789212,-3.927116357660111) translate(68.525 18.6)"/><path d="M1478.05-46.43h88.72" stroke="#282c33" stroke-width="7" fill="none"/><path d="M1478.14-42.93h-3.6v-7h3.6zM1570.27-42.93h-3.6v-7h3.6z" stroke="#282c33" stroke-width=".05" fill="#282c33"/><path d="M1044.83 159.07v-193.5a12 12 0 0 1 12-12h289.34" stroke="#282c33" stroke-width="7" fill="none"/><path d="M1048.33 162.57h-7v-3.6h7zM1349.67-42.93h-3.6v-7h3.6z" stroke="#282c33" stroke-width=".05" fill="#282c33"/><path d="M1533.77-246.37h9v6.97h-9v-6.97zM1490.27-308.93h95.2v62.56h-95.2v-62.56z" fill="#29aae1"/><path d="M1494.57-305.1h86.9v55.93h-86.9v-55.93z" fill="#fff" fill-opacity=".98"/><path d="M1493.97-238.97h86.8l-4.3 14.96h-86.8l4.3-14.97z" fill="#29aae1"/><path d="M1493.47-239.48h88.8l7.4 15.47h-88.8l-7.4-15.48z" fill="#29aae1"/><path d="M1523.57-228h31.6v3.14h-31.6V-228zM1506.17-237.02h2.3v1.96h-2.3v-1.96zM1510.27-236.93h2.4v1.95h-2.4v-1.95zM1515.57-233.36h2.4v1.95h-2.4v-1.96zM1514.77-237.2h2.3v2.05h-2.3v-2.04zM1518.77-237.02h2.4v1.96h-2.4v-1.96zM1522.67-237.2h2.4v2.05h-2.4v-2.04zM1547.17-236.85h2.4v2.04h-2.4v-2.05zM1550.77-236.85h2.4v2.04h-2.4v-2.05zM1554.17-236.85h2.4v2.04h-2.4v-2.05zM1558.27-236.85h2.3v2.04h-2.3v-2.05zM1561.97-236.85h2.3v2.04h-2.3v-2.05zM1557.57-233.53h2.3v1.95h-2.3v-1.95zM1566.17-236.85h2.4v2.04h-2.4v-2.05zM1520.07-233.45h2.3v1.96h-2.3v-1.95zM1524.57-233.45h2.3v1.96h-2.3v-1.95zM1553.87-233.62h2v1.96h-2v-1.96zM1549.77-233.62h2.4v1.96h-2.4v-1.96zM1527.07-237.1h2.4v2.04h-2.4v-2.04zM1531.57-237.02h2.3v2.04h-2.3v-2.04zM1535.67-237.1h2.3v2.04h-2.3v-2.04zM1540.17-237.1h2.3v2.04h-2.3v-2.04zM1543.87-237.02h2.3v2.04h-2.3v-2.04zM1528.57-233.53h2.4v1.95h-2.4v-1.95zM1533.07-233.53h2.3v1.95h-2.3v-1.95zM1537.17-233.45h2.4v1.96h-2.4v-1.95zM1541.27-233.45h2.3v1.96h-2.3v-1.95zM1545.47-233.62h2.3v1.96h-2.3v-1.96z" fill="#fff"/><path d="M1489.77-224l99.9-.35-7.1-15.13-88.5.17-4.3 15.3z" fill="none"/><path d="M1533.27-246.37h9.8v.94h-9.8v-.94zM1533.67-240.6h9.3v1.12h-9.3v-1.1z" fill="#fff"/><use xlink:href="#r" transform="matrix(1,0,0,1,1459.6745550789212,-223.9271163576601) translate(68.525 18.6)"/><path d="M1486.77-266.43h-30.97a12 12 0 0 0-12 12v182" stroke="#282c33" stroke-width="7" fill="none"/><path d="M1490.27-262.93h-3.6v-7h3.6zM1447.3-68.93h-7v-3.6h7z" stroke="#282c33" stroke-width=".05" fill="#282c33"/><path d="M-739.27 148.57a6 6 0 0 1 6-6h228a6 6 0 0 1 6 6v48a6 6 0 0 1-6 6h-228a6 6 0 0 1-6-6z" stroke="#000" stroke-opacity="0" stroke-width="2" fill="#fff" fill-opacity="0"/><use xlink:href="#a" transform="matrix(1,0,0,1,-734.2745550789211,147.5728836423399) translate(95.14506172839506 28.069444444444443)"/><use xlink:href="#s" transform="matrix(1,0,0,1,-734.2745550789211,147.5728836423399) translate(126.21296296296296 28.069444444444443)"/><path d="M-450.02 158.24h49.7v28.67H-450z" fill="#fff" fill-opacity="0"/><use xlink:href="#a" transform="matrix(1,0,0,1,-445.0235212432951,163.23955030900657) translate(0 12.444444444444441)"/><use xlink:href="#t" transform="matrix(1,0,0,1,-445.0235212432951,163.23955030900657) translate(31.067901234567895 12.444444444444441)"/><path d="M-344.3 158.24h49.7v28.67h-49.7z" fill="#fff" fill-opacity="0"/><use xlink:href="#a" transform="matrix(1,0,0,1,-339.3023300504762,163.23955030900657) translate(0 12.444444444444441)"/><use xlink:href="#s" transform="matrix(1,0,0,1,-339.3023300504762,163.23955030900657) translate(31.067901234567895 12.444444444444441)"/><path d="M-160.45 158.24h49.7v28.67h-49.7z" fill="#fff" fill-opacity="0"/><use xlink:href="#a" transform="matrix(1,0,0,1,-155.45458897932383,163.23955030900655) translate(0 12.444444444444441)"/><use xlink:href="#t" transform="matrix(1,0,0,1,-155.45458897932383,163.23955030900655) translate(31.067901234567895 12.444444444444441)"/><path d="M211.98 156.5h49.7v28.68H212z" fill="#fff" fill-opacity="0"/><use xlink:href="#a" transform="matrix(1,0,0,1,216.97647875670492,161.51161941360022) translate(0 12.444444444444441)"/><use xlink:href="#s" transform="matrix(1,0,0,1,216.97647875670492,161.51161941360022) translate(31.067901234567895 12.444444444444441)"/><path d="M4.7 156.5h49.72v28.68H4.72z" fill="#fff" fill-opacity="0"/><use xlink:href="#a" transform="matrix(1,0,0,1,9.708984599132805,161.51161941360024) translate(0 12.444444444444441)"/><use xlink:href="#u" transform="matrix(1,0,0,1,9.708984599132805,161.51161941360024) translate(31.067901234567895 12.444444444444441)"/><path d="M749.98 703.9h49.7v28.67H750z" fill="#fff" fill-opacity="0"/><use xlink:href="#a" transform="matrix(1,0,0,1,754.9764787567049,708.9062169756733) translate(0 12.444444444444441)"/><use xlink:href="#s" transform="matrix(1,0,0,1,754.9764787567049,708.9062169756733) translate(31.067901234567895 12.444444444444441)"/><path d="M643.98 636.5h49.7v28.68H644z" fill="#fff" fill-opacity="0"/><use xlink:href="#a" transform="matrix(1,0,0,1,648.9764787567049,641.5116194136002) translate(0 12.444444444444441)"/><use xlink:href="#b" transform="matrix(1,0,0,1,648.9764787567049,641.5116194136002) translate(31.067901234567895 12.444444444444441)"/><path d="M761.98 146.5h49.7v28.68H762z" fill="#fff" fill-opacity="0"/><use xlink:href="#a" transform="matrix(1,0,0,1,766.9764787567049,151.51161941360022) translate(0 12.444444444444441)"/><use xlink:href="#b" transform="matrix(1,0,0,1,766.9764787567049,151.51161941360022) translate(31.067901234567895 12.444444444444441)"/><path d="M533.98 148.5h49.7v28.68H534z" fill="#fff" fill-opacity="0"/><use xlink:href="#a" transform="matrix(1,0,0,1,538.9764787567049,153.51161941360022) translate(0 12.444444444444441)"/><use xlink:href="#t" transform="matrix(1,0,0,1,538.9764787567049,153.51161941360022) translate(31.067901234567895 12.444444444444441)"/><path d="M648.4 105.5h49.72v28.68h-49.7z" fill="#fff" fill-opacity="0"/><use xlink:href="#a" transform="matrix(1,0,0,1,653.4059907872315,110.51161941360022) translate(0 12.444444444444441)"/><use xlink:href="#s" transform="matrix(1,0,0,1,653.4059907872315,110.51161941360022) translate(31.067901234567895 12.444444444444441)"/><path d="M648.34 255.84h49.7v28.67h-49.7z" fill="#fff" fill-opacity="0"/><use xlink:href="#a" transform="matrix(1,0,0,1,653.3427316779189,260.8449527469336) translate(0 12.444444444444441)"/><use xlink:href="#u" transform="matrix(1,0,0,1,653.3427316779189,260.8449527469336) translate(31.067901234567895 12.444444444444441)"/><path d="M740.98-163.5h49.7v28.68H741z" fill="#fff" fill-opacity="0"/><g><use xlink:href="#a" transform="matrix(1,0,0,1,745.9764787567049,-158.48838058639978) translate(0 12.444444444444441)"/><use xlink:href="#s" transform="matrix(1,0,0,1,745.9764787567049,-158.48838058639978) translate(31.067901234567895 12.444444444444441)"/></g><path d="M1489.67-33.5h49.7V-4.8h-49.7z" fill="#fff" fill-opacity="0"/><g><use xlink:href="#a" transform="matrix(1,0,0,1,1494.6745550789212,-28.488380586399785) translate(0 12.444444444444441)"/><use xlink:href="#s" transform="matrix(1,0,0,1,1494.6745550789212,-28.488380586399785) translate(31.067901234567895 12.444444444444441)"/></g><path d="M1385.98-127.5h49.7v28.68H1386z" fill="#fff" fill-opacity="0"/><g><use xlink:href="#a" transform="matrix(1,0,0,1,1390.9764787567049,-122.48838058639978) translate(0 12.444444444444441)"/><use xlink:href="#u" transform="matrix(1,0,0,1,1390.9764787567049,-122.48838058639978) translate(31.067901234567895 12.444444444444441)"/></g><path d="M1269.98-78.5h49.7v28.68H1270z" fill="#fff" fill-opacity="0"/><g><use xlink:href="#a" transform="matrix(1,0,0,1,1274.9764787567049,-73.48838058639978) translate(0 12.444444444444441)"/><use xlink:href="#b" transform="matrix(1,0,0,1,1274.9764787567049,-73.48838058639978) translate(31.067901234567895 12.444444444444441)"/></g><path d="M1075.7 186.9h49.7v28.67h-49.7z" fill="#fff" fill-opacity="0"/><g><use xlink:href="#a" transform="matrix(1,0,0,1,1080.6976699495237,191.90621697567326) translate(0 12.444444444444441)"/><use xlink:href="#s" transform="matrix(1,0,0,1,1080.6976699495237,191.90621697567326) translate(31.067901234567895 12.444444444444441)"/></g><path d="M1049.98 105.5h49.7v28.68H1050z" fill="#fff" fill-opacity="0"/><g><use xlink:href="#a" transform="matrix(1,0,0,1,1054.9764787567049,110.51161941360022) translate(0 12.444444444444441)"/><use xlink:href="#u" transform="matrix(1,0,0,1,1054.9764787567049,110.51161941360022) translate(31.067901234567895 12.444444444444441)"/></g><path d="M889.98 148.5h49.7v28.68H890z" fill="#fff" fill-opacity="0"/><g><use xlink:href="#a" transform="matrix(1,0,0,1,894.9764787567049,153.5116194136002) translate(0 12.444444444444441)"/><use xlink:href="#b" transform="matrix(1,0,0,1,894.9764787567049,153.5116194136002) translate(31.067901234567895 12.444444444444441)"/></g><path d="M643-191h32v31.6h-32z" fill="#fff" fill-opacity="0"/><g><use xlink:href="#v" transform="matrix(1,0,0,1,648,-186) translate(0 14.4)"/></g><defs><path fill="#333" d="M115-194c55 1 70 41 70 98S169 2 115 4C84 4 66-9 55-30l1 105H24l-1-265h31l2 30c10-21 28-34 59-34zm-8 174c40 0 45-34 45-75s-6-73-45-74c-42 0-51 32-51 76 0 43 10 73 51 73" id="w"/><path fill="#333" d="M100-194c62-1 85 37 85 99 1 63-27 99-86 99S16-35 15-95c0-66 28-99 85-99zM99-20c44 1 53-31 53-75 0-43-8-75-51-75s-53 32-53 75 10 74 51 75" id="x"/><path fill="#333" d="M114-163C36-179 61-72 57 0H25l-1-190h30c1 12-1 29 2 39 6-27 23-49 58-41v29" id="y"/><path fill="#333" d="M59-47c-2 24 18 29 38 22v24C64 9 27 4 27-40v-127H5v-23h24l9-43h21v43h35v23H59v120" id="z"/><g id="a"><use transform="matrix(0.04320987654320986,0,0,0.04320987654320986,0,0)" xlink:href="#w"/><use transform="matrix(0.04320987654320986,0,0,0.04320987654320986,8.641975308641973,0)" xlink:href="#x"/><use transform="matrix(0.04320987654320986,0,0,0.04320987654320986,17.283950617283946,0)" xlink:href="#y"/><use transform="matrix(0.04320987654320986,0,0,0.04320987654320986,22.425925925925924,0)" xlink:href="#z"/></g><path fill="#333" d="M126-127c33 6 58 20 58 59 0 88-139 92-164 29-3-8-5-16-6-25l32-3c6 27 21 44 54 44 32 0 52-15 52-46 0-38-36-46-79-43v-28c39 1 72-4 72-42 0-27-17-43-46-43-28 0-47 15-49 41l-32-3c6-42 35-63 81-64 48-1 79 21 79 65 0 36-21 52-52 59" id="A"/><use transform="matrix(0.04320987654320986,0,0,0.04320987654320986,0,0)" xlink:href="#A" id="b"/><path fill="#333" d="M127-220V0H93v-220H8v-28h204v28h-85" id="B"/><path fill="#333" d="M233-177c-1 41-23 64-60 70L243 0h-38l-65-103H63V0H30v-248c88 3 205-21 203 71zM63-129c60-2 137 13 137-47 0-61-80-42-137-45v92" id="C"/><path fill="#333" d="M30 0v-248h187v28H63v79h144v27H63v87h162V0H30" id="D"/><g id="c"><use transform="matrix(0.19197530864197512,0,0,0.19197530864197512,0,0)" xlink:href="#B"/><use transform="matrix(0.19197530864197512,0,0,0.19197530864197512,42.042592592592555,0)" xlink:href="#C"/><use transform="matrix(0.19197530864197512,0,0,0.19197530864197512,91.76419753086411,0)" xlink:href="#D"/><use transform="matrix(0.19197530864197512,0,0,0.19197530864197512,137.83827160493814,0)" xlink:href="#D"/></g><path fill="#333" d="M140-251c81 0 123 46 123 126C263-46 219 4 140 4 59 4 17-45 17-125s42-126 123-126zm0 227c63 0 89-41 89-101s-29-99-89-99c-61 0-89 39-89 99S79-25 140-24" id="E"/><path fill="#333" d="M30-248c87 1 191-15 191 75 0 78-77 80-158 76V0H30v-248zm33 125c57 0 124 11 124-50 0-59-68-47-124-48v98" id="F"/><path fill="#333" d="M30 0v-248h33v221h125V0H30" id="G"/><path fill="#333" d="M143 4C61 4 22-44 18-125c-5-107 100-154 193-111 17 8 29 25 37 43l-32 9c-13-25-37-40-76-40-61 0-88 39-88 99 0 61 29 100 91 101 35 0 62-11 79-27v-45h-74v-28h105v86C228-13 192 4 143 4" id="H"/><path fill="#333" d="M137-103V0h-34v-103L8-248h37l75 118 75-118h37" id="I"/><g id="d"><use transform="matrix(0.19197530864197512,0,0,0.19197530864197512,0,0)" xlink:href="#B"/><use transform="matrix(0.19197530864197512,0,0,0.19197530864197512,40.69876543209873,0)" xlink:href="#E"/><use transform="matrix(0.19197530864197512,0,0,0.19197530864197512,94.45185185185176,0)" xlink:href="#F"/><use transform="matrix(0.19197530864197512,0,0,0.19197530864197512,140.52592592592578,0)" xlink:href="#E"/><use transform="matrix(0.19197530864197512,0,0,0.19197530864197512,194.2790123456788,0)" xlink:href="#G"/><use transform="matrix(0.19197530864197512,0,0,0.19197530864197512,232.67407407407384,0)" xlink:href="#E"/><use transform="matrix(0.19197530864197512,0,0,0.19197530864197512,286.4271604938269,0)" xlink:href="#H"/><use transform="matrix(0.19197530864197512,0,0,0.19197530864197512,340.18024691357994,0)" xlink:href="#I"/></g><path fill="#333" d="M185-189c-5-48-123-54-124 2 14 75 158 14 163 119 3 78-121 87-175 55-17-10-28-26-33-46l33-7c5 56 141 63 141-1 0-78-155-14-162-118-5-82 145-84 179-34 5 7 8 16 11 25" id="J"/><use transform="matrix(0.05,0,0,0.05,0,0)" xlink:href="#J" id="e"/><path fill="#333" d="M27 0v-27h64v-190l-56 39v-29l58-41h29v221h61V0H27" id="K"/><use transform="matrix(0.05,0,0,0.05,0,0)" xlink:href="#K" id="f"/><path fill="#333" d="M197 0v-115H63V0H30v-248h33v105h134v-105h34V0h-34" id="L"/><use transform="matrix(0.05,0,0,0.05,0,0)" xlink:href="#L" id="g"/><path fill="#333" d="M155-56V0h-30v-56H8v-25l114-167h33v167h35v25h-35zm-30-156c-27 46-58 90-88 131h88v-131" id="M"/><g id="h"><use transform="matrix(0.05,0,0,0.05,0,0)" xlink:href="#L"/><use transform="matrix(0.05,0,0,0.05,12.950000000000001,0)" xlink:href="#M"/></g><path fill="#333" d="M110-160c48 1 74 30 74 79 0 53-28 85-80 85-65 0-83-55-86-122-5-90 50-162 133-122 14 7 22 21 27 39l-31 6c-5-40-67-38-82-6-9 19-15 44-15 74 11-20 30-34 60-33zm-7 138c34 0 49-23 49-58s-16-56-50-56c-29 0-50 16-49 49 1 36 15 65 50 65" id="N"/><g id="i"><use transform="matrix(0.05,0,0,0.05,0,0)" xlink:href="#J"/><use transform="matrix(0.05,0,0,0.05,12,0)" xlink:href="#N"/></g><g id="j"><use transform="matrix(0.05,0,0,0.05,0,0)" xlink:href="#L"/><use transform="matrix(0.05,0,0,0.05,12.950000000000001,0)" xlink:href="#N"/></g><path fill="#333" d="M134-131c28 9 52 24 51 62-1 50-34 73-85 73S17-19 16-69c0-36 21-54 49-61-75-25-45-126 34-121 46 3 78 18 79 63 0 33-17 51-44 57zm-34-11c31 1 46-15 46-44 0-28-17-43-47-42-29 0-46 13-45 42 1 28 16 44 46 44zm1 122c35 0 51-18 51-52 0-30-18-46-53-46-33 0-51 17-51 47 0 34 19 51 53 51" id="O"/><g id="k"><use transform="matrix(0.05,0,0,0.05,0,0)" xlink:href="#J"/><use transform="matrix(0.05,0,0,0.05,12,0)" xlink:href="#O"/></g><path fill="#333" d="M101-251c68 0 85 55 85 127S166 4 100 4C33 4 14-52 14-124c0-73 17-127 87-127zm-1 229c47 0 54-49 54-102s-4-102-53-102c-51 0-55 48-55 102 0 53 5 102 54 102" id="P"/><g id="l"><use transform="matrix(0.05,0,0,0.05,0,0)" xlink:href="#J"/><use transform="matrix(0.05,0,0,0.05,12,0)" xlink:href="#K"/><use transform="matrix(0.05,0,0,0.05,22,0)" xlink:href="#P"/></g><path fill="#333" d="M99-251c64 0 84 50 84 122C183-37 130 33 47-8c-14-7-20-23-25-40l30-5c6 39 69 39 84 7 9-19 16-44 16-74-10 22-31 35-62 35-49 0-73-33-73-83 0-54 28-83 82-83zm-1 141c31-1 51-18 51-49 0-36-14-67-51-67-34 0-49 23-49 58 0 34 15 58 49 58" id="Q"/><g id="m"><use transform="matrix(0.05,0,0,0.05,0,0)" xlink:href="#J"/><use transform="matrix(0.05,0,0,0.05,12,0)" xlink:href="#Q"/></g><path fill="#333" d="M54-142c48-35 137-8 131 61C196 18 31 33 14-55l32-4c7 23 22 37 52 37 35-1 51-22 54-58 4-55-73-65-99-34H22l8-134h141v27H59" id="R"/><g id="n"><use transform="matrix(0.05,0,0,0.05,0,0)" xlink:href="#J"/><use transform="matrix(0.05,0,0,0.05,12,0)" xlink:href="#R"/></g><g id="o"><use transform="matrix(0.05,0,0,0.05,0,0)" xlink:href="#L"/><use transform="matrix(0.05,0,0,0.05,12.950000000000001,0)" xlink:href="#R"/></g><path fill="#333" d="M64 0c3-98 48-159 88-221H18v-27h164v26C143-157 98-101 97 0H64" id="S"/><g id="p"><use transform="matrix(0.05,0,0,0.05,0,0)" xlink:href="#J"/><use transform="matrix(0.05,0,0,0.05,12,0)" xlink:href="#S"/></g><g id="q"><use transform="matrix(0.05,0,0,0.05,0,0)" xlink:href="#L"/><use transform="matrix(0.05,0,0,0.05,12.950000000000001,0)" xlink:href="#S"/></g><g id="r"><use transform="matrix(0.05,0,0,0.05,0,0)" xlink:href="#L"/><use transform="matrix(0.05,0,0,0.05,12.950000000000001,0)" xlink:href="#O"/></g><use transform="matrix(0.04320987654320986,0,0,0.04320987654320986,0,0)" xlink:href="#K" id="s"/><use transform="matrix(0.04320987654320986,0,0,0.04320987654320986,0,0)" xlink:href="#M" id="t"/><path fill="#333" d="M101-251c82-7 93 87 43 132L82-64C71-53 59-42 53-27h129V0H18c2-99 128-94 128-182 0-28-16-43-45-43s-46 15-49 41l-32-3c6-41 34-60 81-64" id="T"/><use transform="matrix(0.04320987654320986,0,0,0.04320987654320986,0,0)" xlink:href="#T" id="u"/><g id="v"><use transform="matrix(0.05,0,0,0.05,0,0)" xlink:href="#J"/><use transform="matrix(0.05,0,0,0.05,12,0)" xlink:href="#M"/></g></defs></g></svg>