<svg xmlns="http://www.w3.org/2000/svg" xmlns:xlink="http://www.w3.org/1999/xlink" xmlns:lucid="lucid" width="2548.95" height="1272.81"><g transform="translate(929.251033835626 420)" lucid:page-tab-id="0_0"><path d="M-1806.87-1258.83h3677.74v2581.66h-3677.74z" fill="#fff"/><path d="M480.7-19.97h240v60h-240z" fill="none"/><use xlink:href="#a" transform="matrix(1,0,0,1,480.7098765432098,-19.969367885630163) translate(100.14506172839506 33.111111111111114)"/><use xlink:href="#b" transform="matrix(1,0,0,1,480.7098765432098,-19.969367885630163) translate(131.21296296296296 33.111111111111114)"/><path d="M-140-400h849.25v183.87H-140z" fill="none"/><use xlink:href="#c" transform="matrix(1,0,0,1,-140,-400) translate(130.1259259259262 105.82222222222221)"/><use xlink:href="#d" transform="matrix(1,0,0,1,-140,-400) translate(333.6197530864198 105.82222222222221)"/><path d="M-654.28 236.06h124.88v37.7h-124.88v-37.7z" fill="#29aae1"/><path d="M-648.28 278.1h112.88V281h-112.88v-2.93z" fill="#2188b4"/><path d="M-645.28 242.72h11.5v4.86h-11.5v-4.86z" fill="#fff"/><path d="M-639.78 246c2.88 0 2.88 0 2.88 2.66v.5c0 2.65 0 2.65-2.88 2.65-2.75 0-2.75 0-2.75-2.64v-.5c0-2.65 0-2.65 2.75-2.65zM-627.4 242.72h11.5v4.86h-11.5v-4.86z" fill="#fff"/><path d="M-621.78 246c2.75 0 2.75 0 2.75 2.66v.5c0 2.65 0 2.65-2.75 2.65-2.87 0-2.87 0-2.87-2.64v-.5c0-2.65 0-2.65 2.87-2.65zM-608.53 242.72h11.5v4.86h-11.5v-4.86z" fill="#fff"/><path d="M-602.9 246c2.75 0 2.75 0 2.75 2.66v.5c0 2.65 0 2.65-2.75 2.65-2.88 0-2.88 0-2.88-2.64v-.5c0-2.65 0-2.65 2.88-2.65zM-590.28 242.72h11.63v4.86h-11.63v-4.86z" fill="#fff"/><path d="M-584.65 246c2.75 0 2.75 0 2.75 2.66v.5c0 2.65 0 2.65-2.75 2.65s-2.75 0-2.75-2.64v-.5c0-2.65 0-2.65 2.75-2.65zM-567.15 239h33.5v30.72h-33.5V239z" fill="#fff"/><path d="M-566.03 240.02h31.13v28.53h-31.13v-28.53z" fill="#54bbe7"/><path d="M-645.03 257.9h11.63v4.8h-11.63v-4.8z" fill="#fff"/><path d="M-639.4 261.13c2.75 0 2.75 0 2.75 2.65v.5c0 2.65 0 2.65-2.75 2.65s-2.75 0-2.75-2.65v-.5c0-2.65 0-2.65 2.75-2.65zM-627.15 257.9h11.62v4.8h-11.62v-4.8z" fill="#fff"/><path d="M-621.53 261.13c2.75 0 2.75 0 2.75 2.65v.5c0 2.65 0 2.65-2.75 2.65s-2.75 0-2.75-2.65v-.5c0-2.65 0-2.65 2.75-2.65zM-608.28 257.9h11.63v4.8h-11.63v-4.8z" fill="#fff"/><path d="M-602.65 261.13c2.75 0 2.75 0 2.75 2.65v.5c0 2.65 0 2.65-2.75 2.65s-2.75 0-2.75-2.65v-.5c0-2.65 0-2.65 2.75-2.65zM-589.9 257.9h11.62v4.8h-11.62v-4.8z" fill="#fff"/><path d="M-584.28 261.13c2.75 0 2.75 0 2.75 2.65v.5c0 2.65 0 2.65-2.75 2.65s-2.75 0-2.75-2.65v-.5c0-2.65 0-2.65 2.75-2.65zM-562.53 241.33l-3.12 3.06 3.25 3-.13-6.07zM-562.53 261.3l-3.12 3.07 3.12 3v-6.06zM-538.65 267.43l3.12-3.02-3.12-3.05v6.08zM-538.53 247.54l3.13-3.02-3.13-3.06v6.08z" fill="#fff"/><path d="M-562.78 243.13h4.75v2.43h-4.75v-2.43zM-542.78 243.35h4.63v2.43h-4.63v-2.43zM-562.78 263.1h4.63v2.44h-4.63v-2.43zM-542.9 263.3h4.62v2.42h-4.62v-2.43z" fill="#fff"/><path d="M-560.28 244.75l2.13-1.62 17.37 20.97-2.12 1.62-17.38-20.97z" fill="#fff"/><path d="M-542.78 243.35l2 1.76-17.37 20.48-2.13-1.75 17.5-20.48z" fill="#fff"/><path d="M-550.15 251.95l2 2.47-.38.27-2-2.48.38-.27zM-552.4 254.3l2 2.46-.38.27-2-2.47.38-.27z" fill="#54bbe7"/><use xlink:href="#e" transform="matrix(1,0,0,1,-684.2788088071811,281.0612642287397) translate(79 18.6)"/><use xlink:href="#f" transform="matrix(1,0,0,1,-684.2788088071811,281.0612642287397) translate(96 18.6)"/><path d="M-865.15 278.62h9v6.97h-9v-6.98z" fill="#29aae1"/><path d="M-908.65 216.06h95.2v62.56h-95.2v-62.56z" fill="#29aae1"/><path d="M-904.35 219.9h86.9v55.92h-86.9V219.9z" fill="#fff" fill-opacity=".98"/><path d="M-904.95 286.02h86.8l-4.3 14.96h-86.8l4.3-14.96z" fill="#29aae1"/><path d="M-905.45 285.5h88.8l7.4 15.48h-88.8l-7.4-15.47z" fill="#29aae1"/><path d="M-875.35 296.98h31.6v3.15h-31.6v-3.15zM-892.75 287.97h2.3v1.96h-2.3v-1.96zM-888.65 288.06h2.4V290h-2.4v-1.94zM-883.35 291.63h2.4v1.95h-2.4v-1.95zM-884.15 287.8h2.3v2.04h-2.3v-2.04zM-880.15 287.97h2.4v1.96h-2.4v-1.96zM-876.25 287.8h2.4v2.04h-2.4v-2.04zM-851.75 288.14h2.4v2.04h-2.4v-2.04zM-848.15 288.14h2.4v2.04h-2.4v-2.04zM-844.75 288.14h2.4v2.04h-2.4v-2.04zM-840.65 288.14h2.3v2.04h-2.3v-2.04zM-836.95 288.14h2.3v2.04h-2.3v-2.04zM-841.35 291.46h2.3v1.95h-2.3v-1.94zM-832.75 288.14h2.4v2.04h-2.4v-2.04zM-878.85 291.54h2.3v1.96h-2.3v-1.96zM-874.35 291.54h2.3v1.96h-2.3v-1.96zM-845.05 291.37h2v1.96h-2v-1.96zM-849.15 291.37h2.4v1.96h-2.4v-1.96zM-871.85 287.9h2.4v2.03h-2.4v-2.04zM-867.35 287.97h2.3V290h-2.3v-2.03zM-863.25 287.9h2.3v2.03h-2.3v-2.04zM-858.75 287.9h2.3v2.03h-2.3v-2.04zM-855.05 287.97h2.3V290h-2.3v-2.03zM-870.35 291.46h2.4v1.95h-2.4v-1.94zM-865.85 291.46h2.3v1.95h-2.3v-1.94zM-861.75 291.54h2.4v1.96h-2.4v-1.96zM-857.65 291.54h2.3v1.96h-2.3v-1.96zM-853.45 291.37h2.3v1.96h-2.3v-1.96z" fill="#fff"/><path d="M-909.15 300.98l99.9-.34-7.1-15.13-88.5.18-4.3 15.3z" fill="none"/><path d="M-865.65 278.62h9.8v.94h-9.8v-.94zM-865.25 284.4h9.3v1.1h-9.3v-1.1z" fill="#fff"/><use xlink:href="#g" transform="matrix(1,0,0,1,-939.251033835626,301.0612642287397) translate(66.025 18.6)"/><use xlink:href="#f" transform="matrix(1,0,0,1,-939.251033835626,301.0612642287397) translate(83.97500000000001 18.6)"/><path d="M-809.95 258.56h152.17" stroke="#282c33" stroke-width="7" fill="none"/><path d="M-809.86 262.06h-3.6v-7h3.6zM-654.28 262.06h-3.6v-7h3.6z" stroke="#282c33" stroke-width=".05" fill="#282c33"/><path d="M-399.28 746.6h124.88v37.72h-124.88v-37.7z" fill="#29aae1"/><path d="M-393.28 788.64h112.88v2.92h-112.88v-2.92z" fill="#2188b4"/><path d="M-390.28 753.27h11.5v4.86h-11.5v-4.86z" fill="#fff"/><path d="M-384.78 756.55c2.88 0 2.88 0 2.88 2.66v.5c0 2.66 0 2.66-2.88 2.66-2.75 0-2.75 0-2.75-2.66v-.5c0-2.65 0-2.65 2.75-2.65zM-372.4 753.27h11.5v4.86h-11.5v-4.86z" fill="#fff"/><path d="M-366.78 756.55c2.75 0 2.75 0 2.75 2.66v.5c0 2.66 0 2.66-2.75 2.66-2.87 0-2.87 0-2.87-2.66v-.5c0-2.65 0-2.65 2.87-2.65zM-353.53 753.27h11.5v4.86h-11.5v-4.86z" fill="#fff"/><path d="M-347.9 756.55c2.75 0 2.75 0 2.75 2.66v.5c0 2.66 0 2.66-2.75 2.66-2.88 0-2.88 0-2.88-2.66v-.5c0-2.65 0-2.65 2.88-2.65zM-335.28 753.27h11.63v4.86h-11.63v-4.86z" fill="#fff"/><path d="M-329.65 756.55c2.75 0 2.75 0 2.75 2.66v.5c0 2.66 0 2.66-2.75 2.66s-2.75 0-2.75-2.66v-.5c0-2.65 0-2.65 2.75-2.65zM-312.15 749.53h33.5v30.74h-33.5v-30.74z" fill="#fff"/><path d="M-311.03 750.57h31.13v28.53h-31.13v-28.53z" fill="#54bbe7"/><path d="M-390.03 768.43h11.63v4.82h-11.63v-4.82z" fill="#fff"/><path d="M-384.4 771.67c2.75 0 2.75 0 2.75 2.66v.5c0 2.65 0 2.65-2.75 2.65s-2.75 0-2.75-2.66v-.5c0-2.65 0-2.65 2.75-2.65zM-372.15 768.43h11.62v4.82h-11.62v-4.82z" fill="#fff"/><path d="M-366.53 771.67c2.75 0 2.75 0 2.75 2.66v.5c0 2.65 0 2.65-2.75 2.65s-2.75 0-2.75-2.66v-.5c0-2.65 0-2.65 2.75-2.65zM-353.28 768.43h11.63v4.82h-11.63v-4.82z" fill="#fff"/><path d="M-347.65 771.67c2.75 0 2.75 0 2.75 2.66v.5c0 2.65 0 2.65-2.75 2.65s-2.75 0-2.75-2.66v-.5c0-2.65 0-2.65 2.75-2.65zM-334.9 768.43h11.62v4.82h-11.62v-4.82z" fill="#fff"/><path d="M-329.28 771.67c2.75 0 2.75 0 2.75 2.66v.5c0 2.65 0 2.65-2.75 2.65s-2.75 0-2.75-2.66v-.5c0-2.65 0-2.65 2.75-2.65zM-307.53 751.87l-3.12 3.06 3.25 3.02-.13-6.08zM-307.53 771.85l-3.12 3.06 3.12 3.03v-6.08zM-283.65 777.97l3.12-3-3.12-3.07v6.07zM-283.53 758.08l3.13-3-3.13-3.07v6.08z" fill="#fff"/><path d="M-307.78 753.67h4.75v2.43h-4.75v-2.43zM-287.78 753.9h4.63v2.43h-4.63v-2.43zM-307.78 773.65h4.63v2.43h-4.63v-2.43zM-287.9 773.83h4.62v2.43h-4.62v-2.43z" fill="#fff"/><path d="M-305.28 755.3l2.13-1.63 17.37 20.97-2.12 1.62-17.38-20.97z" fill="#fff"/><path d="M-287.78 753.9l2 1.75-17.37 20.48-2.13-1.76 17.5-20.47z" fill="#fff"/><path d="M-295.15 762.5l2 2.47-.38.27-2-2.48.38-.27zM-297.4 764.83l2 2.48-.38.28-2-2.48.38-.27z" fill="#54bbe7"/><use xlink:href="#h" transform="matrix(1,0,0,1,-429.2788088071811,791.6092094342193) translate(81.5 18.6)"/><path d="M-725.68 783.62h9v6.97h-9v-6.98z" fill="#29aae1"/><path d="M-769.18 721.06h95.2v62.56h-95.2v-62.56z" fill="#29aae1"/><path d="M-764.88 724.9h86.9v55.92h-86.9V724.9z" fill="#fff" fill-opacity=".98"/><path d="M-765.48 791.02h86.8l-4.3 14.96h-86.8l4.3-14.96z" fill="#29aae1"/><path d="M-765.98 790.5h88.8l7.4 15.48h-88.8l-7.4-15.47z" fill="#29aae1"/><path d="M-735.88 801.98h31.6v3.15h-31.6v-3.15zM-753.28 792.97h2.3v1.96h-2.3v-1.96zM-749.18 793.06h2.4V795h-2.4v-1.94zM-743.88 796.63h2.4v1.95h-2.4v-1.95zM-744.68 792.8h2.3v2.04h-2.3v-2.04zM-740.68 792.97h2.4v1.96h-2.4v-1.96zM-736.78 792.8h2.4v2.04h-2.4v-2.04zM-712.28 793.14h2.4v2.04h-2.4v-2.04zM-708.68 793.14h2.4v2.04h-2.4v-2.04zM-705.28 793.14h2.4v2.04h-2.4v-2.04zM-701.18 793.14h2.3v2.04h-2.3v-2.04zM-697.48 793.14h2.3v2.04h-2.3v-2.04zM-701.88 796.46h2.3v1.95h-2.3v-1.94zM-693.28 793.14h2.4v2.04h-2.4v-2.04zM-739.38 796.54h2.3v1.96h-2.3v-1.96zM-734.88 796.54h2.3v1.96h-2.3v-1.96zM-705.58 796.37h2v1.96h-2v-1.96zM-709.68 796.37h2.4v1.96h-2.4v-1.96zM-732.38 792.9h2.4v2.03h-2.4v-2.04zM-727.88 792.97h2.3V795h-2.3v-2.03zM-723.78 792.9h2.3v2.03h-2.3v-2.04zM-719.28 792.9h2.3v2.03h-2.3v-2.04zM-715.58 792.97h2.3V795h-2.3v-2.03zM-730.88 796.46h2.4v1.95h-2.4v-1.94zM-726.38 796.46h2.3v1.95h-2.3v-1.94zM-722.28 796.54h2.4v1.96h-2.4v-1.96zM-718.18 796.54h2.3v1.96h-2.3v-1.96zM-713.98 796.37h2.3v1.96h-2.3v-1.96z" fill="#fff"/><path d="M-769.68 805.98l99.9-.34-7.1-15.13-88.5.18-4.3 15.3z" fill="none"/><path d="M-726.18 783.62h9.8v.94h-9.8v-.94zM-725.78 789.4h9.3v1.1h-9.3v-1.1z" fill="#fff"/><use xlink:href="#i" transform="matrix(1,0,0,1,-799.7758342778616,806.0612642287397) translate(68.525 18.6)"/><path d="M540.72-83.94H665.6v37.7H540.72v-37.7z" fill="#29aae1"/><path d="M546.72-41.9H659.6V-39H546.72v-2.93z" fill="#2188b4"/><path d="M549.72-77.28h11.5v4.86h-11.5v-4.86z" fill="#fff"/><path d="M555.22-74c2.88 0 2.88 0 2.88 2.66v.5c0 2.65 0 2.65-2.88 2.65-2.75 0-2.75 0-2.75-2.64v-.5c0-2.65 0-2.65 2.75-2.65zM567.6-77.28h11.5v4.86h-11.5v-4.86z" fill="#fff"/><path d="M573.22-74c2.75 0 2.75 0 2.75 2.66v.5c0 2.65 0 2.65-2.75 2.65-2.87 0-2.87 0-2.87-2.64v-.5c0-2.65 0-2.65 2.87-2.65zM586.47-77.28h11.5v4.86h-11.5v-4.86z" fill="#fff"/><path d="M592.1-74c2.75 0 2.75 0 2.75 2.66v.5c0 2.65 0 2.65-2.75 2.65-2.88 0-2.88 0-2.88-2.64v-.5c0-2.65 0-2.65 2.88-2.65zM604.72-77.28h11.63v4.86h-11.63v-4.86z" fill="#fff"/><path d="M610.35-74c2.75 0 2.75 0 2.75 2.66v.5c0 2.65 0 2.65-2.75 2.65s-2.75 0-2.75-2.64v-.5c0-2.65 0-2.65 2.75-2.65zM627.85-81h33.5v30.72h-33.5V-81z" fill="#fff"/><path d="M628.97-79.98h31.13v28.53h-31.13v-28.53z" fill="#54bbe7"/><path d="M549.97-62.1h11.63v4.8h-11.63v-4.8z" fill="#fff"/><path d="M555.6-58.87c2.75 0 2.75 0 2.75 2.65v.5c0 2.65 0 2.65-2.75 2.65s-2.75 0-2.75-2.65v-.5c0-2.65 0-2.65 2.75-2.65zM567.85-62.1h11.62v4.8h-11.62v-4.8z" fill="#fff"/><path d="M573.47-58.87c2.75 0 2.75 0 2.75 2.65v.5c0 2.65 0 2.65-2.75 2.65s-2.75 0-2.75-2.65v-.5c0-2.65 0-2.65 2.75-2.65zM586.72-62.1h11.63v4.8h-11.63v-4.8z" fill="#fff"/><path d="M592.35-58.87c2.75 0 2.75 0 2.75 2.65v.5c0 2.65 0 2.65-2.75 2.65s-2.75 0-2.75-2.65v-.5c0-2.65 0-2.65 2.75-2.65zM605.1-62.1h11.62v4.8H605.1v-4.8z" fill="#fff"/><path d="M610.72-58.87c2.75 0 2.75 0 2.75 2.65v.5c0 2.65 0 2.65-2.75 2.65s-2.75 0-2.75-2.65v-.5c0-2.65 0-2.65 2.75-2.65zM632.47-78.67l-3.12 3.06 3.25 3-.13-6.07zM632.47-58.7l-3.12 3.07 3.12 3v-6.06zM656.35-52.57l3.12-3.02-3.12-3.05v6.08zM656.47-72.46l3.13-3.02-3.13-3.06v6.08z" fill="#fff"/><path d="M632.22-76.87h4.75v2.43h-4.75v-2.43zM652.22-76.65h4.63v2.43h-4.63v-2.43zM632.22-56.9h4.63v2.44h-4.63v-2.43zM652.1-56.7h4.62v2.42h-4.62v-2.43z" fill="#fff"/><path d="M634.72-75.25l2.13-1.62 17.37 20.97-2.12 1.62-17.38-20.97z" fill="#fff"/><path d="M652.22-76.65l2 1.76-17.37 20.48-2.13-1.75 17.5-20.48z" fill="#fff"/><path d="M644.85-68.05l2 2.47-.38.27-2-2.48.38-.27zM642.6-65.7l2 2.46-.38.27-2-2.47.38-.27z" fill="#54bbe7"/><path d="M804.82-41.38h9v6.97h-9v-6.98z" fill="#29aae1"/><path d="M761.32-103.94h95.2v62.56h-95.2v-62.56z" fill="#29aae1"/><path d="M765.62-100.1h86.9v55.92h-86.9v-55.93z" fill="#fff" fill-opacity=".98"/><path d="M765.02-33.98h86.8l-4.3 14.96h-86.8l4.3-14.96z" fill="#29aae1"/><path d="M764.52-34.5h88.8l7.4 15.48h-88.8l-7.4-15.47z" fill="#29aae1"/><path d="M794.62-23.02h31.6v3.15h-31.6v-3.15zM777.22-32.03h2.3v1.96h-2.3v-1.96zM781.32-31.94h2.4V-30h-2.4v-1.94zM786.62-28.37h2.4v1.95h-2.4v-1.95zM785.82-32.2h2.3v2.04h-2.3v-2.04zM789.82-32.03h2.4v1.96h-2.4v-1.96zM793.72-32.2h2.4v2.04h-2.4v-2.04zM818.22-31.86h2.4v2.04h-2.4v-2.04zM821.82-31.86h2.4v2.04h-2.4v-2.04zM825.22-31.86h2.4v2.04h-2.4v-2.04zM829.32-31.86h2.3v2.04h-2.3v-2.04zM833.02-31.86h2.3v2.04h-2.3v-2.04zM828.62-28.54h2.3v1.95h-2.3v-1.94zM837.22-31.86h2.4v2.04h-2.4v-2.04zM791.12-28.46h2.3v1.96h-2.3v-1.96zM795.62-28.46h2.3v1.96h-2.3v-1.96zM824.92-28.63h2v1.96h-2v-1.96zM820.82-28.63h2.4v1.96h-2.4v-1.96zM798.12-32.1h2.4v2.03h-2.4v-2.04zM802.62-32.03h2.3V-30h-2.3v-2.03zM806.72-32.1h2.3v2.03h-2.3v-2.04zM811.22-32.1h2.3v2.03h-2.3v-2.04zM814.92-32.03h2.3V-30h-2.3v-2.03zM799.62-28.54h2.4v1.95h-2.4v-1.94zM804.12-28.54h2.3v1.95h-2.3v-1.94zM808.22-28.46h2.4v1.96h-2.4v-1.96zM812.32-28.46h2.3v1.96h-2.3v-1.96zM816.52-28.63h2.3v1.96h-2.3v-1.96z" fill="#fff"/><path d="M760.82-19.02l99.9-.34-7.1-15.13-88.5.18-4.3 15.3z" fill="none"/><path d="M804.32-41.38h9.8v.94h-9.8v-.94zM804.72-35.6h9.3v1.1h-9.3v-1.1z" fill="#fff"/><use xlink:href="#j" transform="matrix(1,0,0,1,730.7211911928189,-18.938735771260326) translate(68.525 18.6)"/><path d="M880.72 236.06h124.88v37.7H880.72v-37.7z" fill="#29aae1"/><path d="M886.72 278.1H999.6V281H886.72v-2.93z" fill="#2188b4"/><path d="M889.72 242.72h11.5v4.86h-11.5v-4.86z" fill="#fff"/><path d="M895.22 246c2.88 0 2.88 0 2.88 2.66v.5c0 2.65 0 2.65-2.88 2.65-2.75 0-2.75 0-2.75-2.64v-.5c0-2.65 0-2.65 2.75-2.65zM907.6 242.72h11.5v4.86h-11.5v-4.86z" fill="#fff"/><path d="M913.22 246c2.75 0 2.75 0 2.75 2.66v.5c0 2.65 0 2.65-2.75 2.65-2.87 0-2.87 0-2.87-2.64v-.5c0-2.65 0-2.65 2.87-2.65zM926.47 242.72h11.5v4.86h-11.5v-4.86z" fill="#fff"/><path d="M932.1 246c2.75 0 2.75 0 2.75 2.66v.5c0 2.65 0 2.65-2.75 2.65-2.88 0-2.88 0-2.88-2.64v-.5c0-2.65 0-2.65 2.88-2.65zM944.72 242.72h11.63v4.86h-11.63v-4.86z" fill="#fff"/><path d="M950.35 246c2.75 0 2.75 0 2.75 2.66v.5c0 2.65 0 2.65-2.75 2.65s-2.75 0-2.75-2.64v-.5c0-2.65 0-2.65 2.75-2.65zM967.85 239h33.5v30.72h-33.5V239z" fill="#fff"/><path d="M968.97 240.02h31.13v28.53h-31.13v-28.53z" fill="#54bbe7"/><path d="M889.97 257.9h11.63v4.8h-11.63v-4.8z" fill="#fff"/><path d="M895.6 261.13c2.75 0 2.75 0 2.75 2.65v.5c0 2.65 0 2.65-2.75 2.65s-2.75 0-2.75-2.65v-.5c0-2.65 0-2.65 2.75-2.65zM907.85 257.9h11.62v4.8h-11.62v-4.8z" fill="#fff"/><path d="M913.47 261.13c2.75 0 2.75 0 2.75 2.65v.5c0 2.65 0 2.65-2.75 2.65s-2.75 0-2.75-2.65v-.5c0-2.65 0-2.65 2.75-2.65zM926.72 257.9h11.63v4.8h-11.63v-4.8z" fill="#fff"/><path d="M932.35 261.13c2.75 0 2.75 0 2.75 2.65v.5c0 2.65 0 2.65-2.75 2.65s-2.75 0-2.75-2.65v-.5c0-2.65 0-2.65 2.75-2.65zM945.1 257.9h11.62v4.8H945.1v-4.8z" fill="#fff"/><path d="M950.72 261.13c2.75 0 2.75 0 2.75 2.65v.5c0 2.65 0 2.65-2.75 2.65s-2.75 0-2.75-2.65v-.5c0-2.65 0-2.65 2.75-2.65zM972.47 241.33l-3.12 3.06 3.25 3-.13-6.07zM972.47 261.3l-3.12 3.07 3.12 3v-6.06zM996.35 267.43l3.12-3.02-3.12-3.05v6.08zM996.47 247.54l3.13-3.02-3.13-3.06v6.08z" fill="#fff"/><path d="M972.22 243.13h4.75v2.43h-4.75v-2.43zM992.22 243.35h4.63v2.43h-4.63v-2.43zM972.22 263.1h4.63v2.44h-4.63v-2.43zM992.1 263.3h4.62v2.42h-4.62v-2.43z" fill="#fff"/><path d="M974.72 244.75l2.13-1.62 17.37 20.97-2.12 1.62-17.38-20.97z" fill="#fff"/><path d="M992.22 243.35l2 1.76-17.37 20.48-2.13-1.75 17.5-20.48z" fill="#fff"/><path d="M984.85 251.95l2 2.47-.38.27-2-2.48.38-.27zM982.6 254.3l2 2.46-.38.27-2-2.47.38-.27z" fill="#54bbe7"/><use xlink:href="#k" transform="matrix(1,0,0,1,850.7211911928189,281.0612642287397) translate(81.5 18.6)"/><path d="M1164.82 278.62h9v6.97h-9v-6.98z" fill="#29aae1"/><path d="M1121.32 216.06h95.2v62.56h-95.2v-62.56z" fill="#29aae1"/><path d="M1125.62 219.9h86.9v55.92h-86.9V219.9z" fill="#fff" fill-opacity=".98"/><path d="M1125.02 286.02h86.8l-4.3 14.96h-86.8l4.3-14.96z" fill="#29aae1"/><path d="M1124.52 285.5h88.8l7.4 15.48h-88.8l-7.4-15.47z" fill="#29aae1"/><path d="M1154.62 296.98h31.6v3.15h-31.6v-3.15zM1137.22 287.97h2.3v1.96h-2.3v-1.96zM1141.32 288.06h2.4V290h-2.4v-1.94zM1146.62 291.63h2.4v1.95h-2.4v-1.95zM1145.82 287.8h2.3v2.04h-2.3v-2.04zM1149.82 287.97h2.4v1.96h-2.4v-1.96zM1153.72 287.8h2.4v2.04h-2.4v-2.04zM1178.22 288.14h2.4v2.04h-2.4v-2.04zM1181.82 288.14h2.4v2.04h-2.4v-2.04zM1185.22 288.14h2.4v2.04h-2.4v-2.04zM1189.32 288.14h2.3v2.04h-2.3v-2.04zM1193.02 288.14h2.3v2.04h-2.3v-2.04zM1188.62 291.46h2.3v1.95h-2.3v-1.94zM1197.22 288.14h2.4v2.04h-2.4v-2.04zM1151.12 291.54h2.3v1.96h-2.3v-1.96zM1155.62 291.54h2.3v1.96h-2.3v-1.96zM1184.92 291.37h2v1.96h-2v-1.96zM1180.82 291.37h2.4v1.96h-2.4v-1.96zM1158.12 287.9h2.4v2.03h-2.4v-2.04zM1162.62 287.97h2.3V290h-2.3v-2.03zM1166.72 287.9h2.3v2.03h-2.3v-2.04zM1171.22 287.9h2.3v2.03h-2.3v-2.04zM1174.92 287.97h2.3V290h-2.3v-2.03zM1159.62 291.46h2.4v1.95h-2.4v-1.94zM1164.12 291.46h2.3v1.95h-2.3v-1.94zM1168.22 291.54h2.4v1.96h-2.4v-1.96zM1172.32 291.54h2.3v1.96h-2.3v-1.96zM1176.52 291.37h2.3v1.96h-2.3v-1.96z" fill="#fff"/><path d="M1120.82 300.98l99.9-.34-7.1-15.13-88.5.18-4.3 15.3z" fill="none"/><path d="M1164.32 278.62h9.8v.94h-9.8v-.94zM1164.72 284.4h9.3v1.1h-9.3v-1.1z" fill="#fff"/><use xlink:href="#l" transform="matrix(1,0,0,1,1090.7211911928189,301.0612642287397) translate(68.525 18.6)"/><path d="M-399.28-83.94h124.88v37.7h-124.88v-37.7z" fill="#29aae1"/><path d="M-393.28-41.9h112.88V-39h-112.88v-2.93z" fill="#2188b4"/><path d="M-390.28-77.28h11.5v4.86h-11.5v-4.86z" fill="#fff"/><path d="M-384.78-74c2.88 0 2.88 0 2.88 2.66v.5c0 2.65 0 2.65-2.88 2.65-2.75 0-2.75 0-2.75-2.64v-.5c0-2.65 0-2.65 2.75-2.65zM-372.4-77.28h11.5v4.86h-11.5v-4.86z" fill="#fff"/><path d="M-366.78-74c2.75 0 2.75 0 2.75 2.66v.5c0 2.65 0 2.65-2.75 2.65-2.87 0-2.87 0-2.87-2.64v-.5c0-2.65 0-2.65 2.87-2.65zM-353.53-77.28h11.5v4.86h-11.5v-4.86z" fill="#fff"/><path d="M-347.9-74c2.75 0 2.75 0 2.75 2.66v.5c0 2.65 0 2.65-2.75 2.65-2.88 0-2.88 0-2.88-2.64v-.5c0-2.65 0-2.65 2.88-2.65zM-335.28-77.28h11.63v4.86h-11.63v-4.86z" fill="#fff"/><path d="M-329.65-74c2.75 0 2.75 0 2.75 2.66v.5c0 2.65 0 2.65-2.75 2.65s-2.75 0-2.75-2.64v-.5c0-2.65 0-2.65 2.75-2.65zM-312.15-81h33.5v30.72h-33.5V-81z" fill="#fff"/><path d="M-311.03-79.98h31.13v28.53h-31.13v-28.53z" fill="#54bbe7"/><path d="M-390.03-62.1h11.63v4.8h-11.63v-4.8z" fill="#fff"/><path d="M-384.4-58.87c2.75 0 2.75 0 2.75 2.65v.5c0 2.65 0 2.65-2.75 2.65s-2.75 0-2.75-2.65v-.5c0-2.65 0-2.65 2.75-2.65zM-372.15-62.1h11.62v4.8h-11.62v-4.8z" fill="#fff"/><path d="M-366.53-58.87c2.75 0 2.75 0 2.75 2.65v.5c0 2.65 0 2.65-2.75 2.65s-2.75 0-2.75-2.65v-.5c0-2.65 0-2.65 2.75-2.65zM-353.28-62.1h11.63v4.8h-11.63v-4.8z" fill="#fff"/><path d="M-347.65-58.87c2.75 0 2.75 0 2.75 2.65v.5c0 2.65 0 2.65-2.75 2.65s-2.75 0-2.75-2.65v-.5c0-2.65 0-2.65 2.75-2.65zM-334.9-62.1h11.62v4.8h-11.62v-4.8z" fill="#fff"/><path d="M-329.28-58.87c2.75 0 2.75 0 2.75 2.65v.5c0 2.65 0 2.65-2.75 2.65s-2.75 0-2.75-2.65v-.5c0-2.65 0-2.65 2.75-2.65zM-307.53-78.67l-3.12 3.06 3.25 3-.13-6.07zM-307.53-58.7l-3.12 3.07 3.12 3v-6.06zM-283.65-52.57l3.12-3.02-3.12-3.05v6.08zM-283.53-72.46l3.13-3.02-3.13-3.06v6.08z" fill="#fff"/><path d="M-307.78-76.87h4.75v2.43h-4.75v-2.43zM-287.78-76.65h4.63v2.43h-4.63v-2.43zM-307.78-56.9h4.63v2.44h-4.63v-2.43zM-287.9-56.7h4.62v2.42h-4.62v-2.43z" fill="#fff"/><path d="M-305.28-75.25l2.13-1.62 17.37 20.97-2.12 1.62-17.38-20.97z" fill="#fff"/><path d="M-287.78-76.65l2 1.76-17.37 20.48-2.13-1.75 17.5-20.48z" fill="#fff"/><path d="M-295.15-68.05l2 2.47-.38.27-2-2.48.38-.27zM-297.4-65.7l2 2.46-.38.27-2-2.47.38-.27z" fill="#54bbe7"/><path d="M540.72 236.06H665.6v37.7H540.72v-37.7z" fill="#29aae1"/><path d="M546.72 278.1H659.6V281H546.72v-2.93z" fill="#2188b4"/><path d="M549.72 242.72h11.5v4.86h-11.5v-4.86z" fill="#fff"/><path d="M555.22 246c2.88 0 2.88 0 2.88 2.66v.5c0 2.65 0 2.65-2.88 2.65-2.75 0-2.75 0-2.75-2.64v-.5c0-2.65 0-2.65 2.75-2.65zM567.6 242.72h11.5v4.86h-11.5v-4.86z" fill="#fff"/><path d="M573.22 246c2.75 0 2.75 0 2.75 2.66v.5c0 2.65 0 2.65-2.75 2.65-2.87 0-2.87 0-2.87-2.64v-.5c0-2.65 0-2.65 2.87-2.65zM586.47 242.72h11.5v4.86h-11.5v-4.86z" fill="#fff"/><path d="M592.1 246c2.75 0 2.75 0 2.75 2.66v.5c0 2.65 0 2.65-2.75 2.65-2.88 0-2.88 0-2.88-2.64v-.5c0-2.65 0-2.65 2.88-2.65zM604.72 242.72h11.63v4.86h-11.63v-4.86z" fill="#fff"/><path d="M610.35 246c2.75 0 2.75 0 2.75 2.66v.5c0 2.65 0 2.65-2.75 2.65s-2.75 0-2.75-2.64v-.5c0-2.65 0-2.65 2.75-2.65zM627.85 239h33.5v30.72h-33.5V239z" fill="#fff"/><path d="M628.97 240.02h31.13v28.53h-31.13v-28.53z" fill="#54bbe7"/><path d="M549.97 257.9h11.63v4.8h-11.63v-4.8z" fill="#fff"/><path d="M555.6 261.13c2.75 0 2.75 0 2.75 2.65v.5c0 2.65 0 2.65-2.75 2.65s-2.75 0-2.75-2.65v-.5c0-2.65 0-2.65 2.75-2.65zM567.85 257.9h11.62v4.8h-11.62v-4.8z" fill="#fff"/><path d="M573.47 261.13c2.75 0 2.75 0 2.75 2.65v.5c0 2.65 0 2.65-2.75 2.65s-2.75 0-2.75-2.65v-.5c0-2.65 0-2.65 2.75-2.65zM586.72 257.9h11.63v4.8h-11.63v-4.8z" fill="#fff"/><path d="M592.35 261.13c2.75 0 2.75 0 2.75 2.65v.5c0 2.65 0 2.65-2.75 2.65s-2.75 0-2.75-2.65v-.5c0-2.65 0-2.65 2.75-2.65zM605.1 257.9h11.62v4.8H605.1v-4.8z" fill="#fff"/><path d="M610.72 261.13c2.75 0 2.75 0 2.75 2.65v.5c0 2.65 0 2.65-2.75 2.65s-2.75 0-2.75-2.65v-.5c0-2.65 0-2.65 2.75-2.65zM632.47 241.33l-3.12 3.06 3.25 3-.13-6.07zM632.47 261.3l-3.12 3.07 3.12 3v-6.06zM656.35 267.43l3.12-3.02-3.12-3.05v6.08zM656.47 247.54l3.13-3.02-3.13-3.06v6.08z" fill="#fff"/><path d="M632.22 243.13h4.75v2.43h-4.75v-2.43zM652.22 243.35h4.63v2.43h-4.63v-2.43zM632.22 263.1h4.63v2.44h-4.63v-2.43zM652.1 263.3h4.62v2.42h-4.62v-2.43z" fill="#fff"/><path d="M634.72 244.75l2.13-1.62 17.37 20.97-2.12 1.62-17.38-20.97z" fill="#fff"/><path d="M652.22 243.35l2 1.76-17.37 20.48-2.13-1.75 17.5-20.48z" fill="#fff"/><path d="M644.85 251.95l2 2.47-.38.27-2-2.48.38-.27zM642.6 254.3l2 2.46-.38.27-2-2.47.38-.27z" fill="#54bbe7"/><use xlink:href="#m" transform="matrix(1,0,0,1,510.7211911928189,281.0612642287397) translate(81.5 18.6)"/><path d="M.72 236.06H125.6v37.7H.72v-37.7z" fill="#29aae1"/><path d="M6.72 278.1H119.6V281H6.72v-2.93z" fill="#2188b4"/><path d="M9.72 242.72h11.5v4.86H9.72v-4.86z" fill="#fff"/><path d="M15.22 246c2.88 0 2.88 0 2.88 2.66v.5c0 2.65 0 2.65-2.88 2.65-2.75 0-2.75 0-2.75-2.64v-.5c0-2.65 0-2.65 2.75-2.65zM27.6 242.72h11.5v4.86H27.6v-4.86z" fill="#fff"/><path d="M33.22 246c2.75 0 2.75 0 2.75 2.66v.5c0 2.65 0 2.65-2.75 2.65-2.87 0-2.87 0-2.87-2.64v-.5c0-2.65 0-2.65 2.87-2.65zM46.47 242.72h11.5v4.86h-11.5v-4.86z" fill="#fff"/><path d="M52.1 246c2.75 0 2.75 0 2.75 2.66v.5c0 2.65 0 2.65-2.75 2.65-2.88 0-2.88 0-2.88-2.64v-.5c0-2.65 0-2.65 2.88-2.65zM64.72 242.72h11.63v4.86H64.72v-4.86z" fill="#fff"/><path d="M70.35 246c2.75 0 2.75 0 2.75 2.66v.5c0 2.65 0 2.65-2.75 2.65s-2.75 0-2.75-2.64v-.5c0-2.65 0-2.65 2.75-2.65zM87.85 239h33.5v30.72h-33.5V239z" fill="#fff"/><path d="M88.97 240.02h31.13v28.53H88.97v-28.53z" fill="#54bbe7"/><path d="M9.97 257.9H21.6v4.8H9.97v-4.8z" fill="#fff"/><path d="M15.6 261.13c2.75 0 2.75 0 2.75 2.65v.5c0 2.65 0 2.65-2.75 2.65s-2.75 0-2.75-2.65v-.5c0-2.65 0-2.65 2.75-2.65zM27.85 257.9h11.62v4.8H27.85v-4.8z" fill="#fff"/><path d="M33.47 261.13c2.75 0 2.75 0 2.75 2.65v.5c0 2.65 0 2.65-2.75 2.65s-2.75 0-2.75-2.65v-.5c0-2.65 0-2.65 2.75-2.65zM46.72 257.9h11.63v4.8H46.72v-4.8z" fill="#fff"/><path d="M52.35 261.13c2.75 0 2.75 0 2.75 2.65v.5c0 2.65 0 2.65-2.75 2.65s-2.75 0-2.75-2.65v-.5c0-2.65 0-2.65 2.75-2.65zM65.1 257.9h11.62v4.8H65.1v-4.8z" fill="#fff"/><path d="M70.72 261.13c2.75 0 2.75 0 2.75 2.65v.5c0 2.65 0 2.65-2.75 2.65s-2.75 0-2.75-2.65v-.5c0-2.65 0-2.65 2.75-2.65zM92.47 241.33l-3.12 3.06 3.25 3-.13-6.07zM92.47 261.3l-3.12 3.07 3.12 3v-6.06zM116.35 267.43l3.12-3.02-3.12-3.05v6.08zM116.47 247.54l3.13-3.02-3.13-3.06v6.08z" fill="#fff"/><path d="M92.22 243.13h4.75v2.43h-4.75v-2.43zM112.22 243.35h4.63v2.43h-4.63v-2.43zM92.22 263.1h4.63v2.44h-4.63v-2.43zM112.1 263.3h4.62v2.42h-4.62v-2.43z" fill="#fff"/><path d="M94.72 244.75l2.13-1.62 17.37 20.97-2.12 1.62-17.38-20.97z" fill="#fff"/><path d="M112.22 243.35l2 1.76-17.37 20.48-2.13-1.75 17.5-20.48z" fill="#fff"/><path d="M104.85 251.95l2 2.47-.38.27-2-2.48.38-.27zM102.6 254.3l2 2.46-.38.27-2-2.47.38-.27z" fill="#54bbe7"/><use xlink:href="#n" transform="matrix(1,0,0,1,-29.27880880718112,281.0612642287397) translate(76.5 18.6)"/><path d="M-753.8-41.38h9v6.97h-9v-6.98z" fill="#29aae1"/><path d="M-797.3-103.94h95.2v62.56h-95.2v-62.56z" fill="#29aae1"/><path d="M-793-100.1h86.9v55.92H-793v-55.93z" fill="#fff" fill-opacity=".98"/><path d="M-793.6-33.98h86.8l-4.3 14.96h-86.8l4.3-14.96z" fill="#29aae1"/><path d="M-794.1-34.5h88.8l7.4 15.48h-88.8l-7.4-15.47z" fill="#29aae1"/><path d="M-764-23.02h31.6v3.15H-764v-3.15zM-781.4-32.03h2.3v1.96h-2.3v-1.96zM-777.3-31.94h2.4V-30h-2.4v-1.94zM-772-28.37h2.4v1.95h-2.4v-1.95zM-772.8-32.2h2.3v2.04h-2.3v-2.04zM-768.8-32.03h2.4v1.96h-2.4v-1.96zM-764.9-32.2h2.4v2.04h-2.4v-2.04zM-740.4-31.86h2.4v2.04h-2.4v-2.04zM-736.8-31.86h2.4v2.04h-2.4v-2.04zM-733.4-31.86h2.4v2.04h-2.4v-2.04zM-729.3-31.86h2.3v2.04h-2.3v-2.04zM-725.6-31.86h2.3v2.04h-2.3v-2.04zM-730-28.54h2.3v1.95h-2.3v-1.94zM-721.4-31.86h2.4v2.04h-2.4v-2.04zM-767.5-28.46h2.3v1.96h-2.3v-1.96zM-763-28.46h2.3v1.96h-2.3v-1.96zM-733.7-28.63h2v1.96h-2v-1.96zM-737.8-28.63h2.4v1.96h-2.4v-1.96zM-760.5-32.1h2.4v2.03h-2.4v-2.04zM-756-32.03h2.3V-30h-2.3v-2.03zM-751.9-32.1h2.3v2.03h-2.3v-2.04zM-747.4-32.1h2.3v2.03h-2.3v-2.04zM-743.7-32.03h2.3V-30h-2.3v-2.03zM-759-28.54h2.4v1.95h-2.4v-1.94zM-754.5-28.54h2.3v1.95h-2.3v-1.94zM-750.4-28.46h2.4v1.96h-2.4v-1.96zM-746.3-28.46h2.3v1.96h-2.3v-1.96zM-742.1-28.63h2.3v1.96h-2.3v-1.96z" fill="#fff"/><path d="M-797.8-19.02l99.9-.34-7.1-15.13-88.5.18-4.3 15.3z" fill="none"/><path d="M-754.3-41.38h9.8v.94h-9.8v-.94zM-753.9-35.6h9.3v1.1h-9.3v-1.1z" fill="#fff"/><use xlink:href="#g" transform="matrix(1,0,0,1,-827.9042953278504,-18.938735771260326) translate(66.025 18.6)"/><use xlink:href="#o" transform="matrix(1,0,0,1,-827.9042953278504,-18.938735771260326) translate(83.97500000000001 18.6)"/><path d="M-360 236.06h124.88v37.7H-360v-37.7z" fill="#29aae1"/><path d="M-354 278.1h112.88V281H-354v-2.93z" fill="#2188b4"/><path d="M-351 242.72h11.5v4.86H-351v-4.86z" fill="#fff"/><path d="M-345.5 246c2.88 0 2.88 0 2.88 2.66v.5c0 2.65 0 2.65-2.88 2.65-2.75 0-2.75 0-2.75-2.64v-.5c0-2.65 0-2.65 2.75-2.65zM-333.13 242.72h11.5v4.86h-11.5v-4.86z" fill="#fff"/><path d="M-327.5 246c2.75 0 2.75 0 2.75 2.66v.5c0 2.65 0 2.65-2.75 2.65-2.88 0-2.88 0-2.88-2.64v-.5c0-2.65 0-2.65 2.88-2.65zM-314.25 242.72h11.5v4.86h-11.5v-4.86z" fill="#fff"/><path d="M-308.63 246c2.75 0 2.75 0 2.75 2.66v.5c0 2.65 0 2.65-2.75 2.65-2.87 0-2.87 0-2.87-2.64v-.5c0-2.65 0-2.65 2.88-2.65zM-296 242.72h11.63v4.86H-296v-4.86z" fill="#fff"/><path d="M-290.38 246c2.75 0 2.75 0 2.75 2.66v.5c0 2.65 0 2.65-2.75 2.65s-2.75 0-2.75-2.64v-.5c0-2.65 0-2.65 2.75-2.65zM-272.88 239h33.5v30.72h-33.5V239z" fill="#fff"/><path d="M-271.75 240.02h31.13v28.53h-31.13v-28.53z" fill="#54bbe7"/><path d="M-350.75 257.9h11.63v4.8h-11.63v-4.8z" fill="#fff"/><path d="M-345.13 261.13c2.75 0 2.75 0 2.75 2.65v.5c0 2.65 0 2.65-2.75 2.65s-2.75 0-2.75-2.65v-.5c0-2.65 0-2.65 2.75-2.65zM-332.88 257.9h11.63v4.8h-11.63v-4.8z" fill="#fff"/><path d="M-327.25 261.13c2.75 0 2.75 0 2.75 2.65v.5c0 2.65 0 2.65-2.75 2.65s-2.75 0-2.75-2.65v-.5c0-2.65 0-2.65 2.75-2.65zM-314 257.9h11.63v4.8H-314v-4.8z" fill="#fff"/><path d="M-308.38 261.13c2.75 0 2.75 0 2.75 2.65v.5c0 2.65 0 2.65-2.75 2.65s-2.75 0-2.75-2.65v-.5c0-2.65 0-2.65 2.75-2.65zM-295.63 257.9H-284v4.8h-11.63v-4.8z" fill="#fff"/><path d="M-290 261.13c2.75 0 2.75 0 2.75 2.65v.5c0 2.65 0 2.65-2.75 2.65s-2.75 0-2.75-2.65v-.5c0-2.65 0-2.65 2.75-2.65zM-268.25 241.33l-3.13 3.06 3.25 3-.12-6.07zM-268.25 261.3l-3.13 3.07 3.13 3v-6.06zM-244.38 267.43l3.13-3.02-3.13-3.05v6.08zM-244.25 247.54l3.13-3.02-3.13-3.06v6.08z" fill="#fff"/><path d="M-268.5 243.13h4.75v2.43h-4.75v-2.43zM-248.5 243.35h4.63v2.43h-4.63v-2.43zM-268.5 263.1h4.63v2.44h-4.63v-2.43zM-248.63 263.3h4.63v2.42h-4.63v-2.43z" fill="#fff"/><path d="M-266 244.75l2.13-1.62 17.37 20.97-2.13 1.62-17.37-20.97z" fill="#fff"/><path d="M-248.5 243.35l2 1.76-17.38 20.48-2.12-1.75 17.5-20.48z" fill="#fff"/><path d="M-255.88 251.95l2 2.47-.37.27-2-2.48.38-.27zM-258.13 254.3l2 2.46-.37.27-2-2.47.38-.27z" fill="#54bbe7"/><use xlink:href="#p" transform="matrix(1,0,0,1,-390,281.0612642287397) translate(59 18.6)"/><use xlink:href="#q" transform="matrix(1,0,0,1,-390,281.0612642287397) translate(104 18.6)"/><path d="M-525.9 258.56h162.4" stroke="#282c33" stroke-width="7" fill="none"/><path d="M-525.8 262.06h-3.6v-7h3.6zM-360 262.06h-3.6v-7h3.6z" stroke="#282c33" stroke-width=".05" fill="#282c33"/><path d="M-231.63 258.56H-2.78" stroke="#282c33" stroke-width="7" fill="none"/><path d="M-231.54 262.06h-3.6v-7h3.6zM.72 262.06h-3.6v-7h3.6z" stroke="#282c33" stroke-width=".05" fill="#282c33"/><path d="M540.78 746.6h124.88v37.72H540.78v-37.7z" fill="#29aae1"/><path d="M546.78 788.64h112.88v2.92H546.78v-2.92z" fill="#2188b4"/><path d="M549.78 753.27h11.5v4.86h-11.5v-4.86z" fill="#fff"/><path d="M555.28 756.55c2.88 0 2.88 0 2.88 2.66v.5c0 2.66 0 2.66-2.88 2.66-2.75 0-2.75 0-2.75-2.66v-.5c0-2.65 0-2.65 2.75-2.65zM567.66 753.27h11.5v4.86h-11.5v-4.86z" fill="#fff"/><path d="M573.28 756.55c2.75 0 2.75 0 2.75 2.66v.5c0 2.66 0 2.66-2.75 2.66-2.87 0-2.87 0-2.87-2.66v-.5c0-2.65 0-2.65 2.88-2.65zM586.53 753.27h11.5v4.86h-11.5v-4.86z" fill="#fff"/><path d="M592.16 756.55c2.75 0 2.75 0 2.75 2.66v.5c0 2.66 0 2.66-2.74 2.66-2.88 0-2.88 0-2.88-2.66v-.5c0-2.65 0-2.65 2.88-2.65zM604.78 753.27h11.63v4.86H604.8v-4.86z" fill="#fff"/><path d="M610.4 756.55c2.76 0 2.76 0 2.76 2.66v.5c0 2.66 0 2.66-2.75 2.66-2.74 0-2.74 0-2.74-2.66v-.5c0-2.65 0-2.65 2.75-2.65zM627.9 749.53h33.5v30.74h-33.5v-30.74z" fill="#fff"/><path d="M629.03 750.57h31.13v28.53h-31.13v-28.53z" fill="#54bbe7"/><path d="M550.03 768.43h11.63v4.82h-11.63v-4.82z" fill="#fff"/><path d="M555.66 771.67c2.75 0 2.75 0 2.75 2.66v.5c0 2.65 0 2.65-2.74 2.65-2.75 0-2.75 0-2.75-2.66v-.5c0-2.65 0-2.65 2.76-2.65zM567.9 768.43h11.63v4.82H567.9v-4.82z" fill="#fff"/><path d="M573.53 771.67c2.75 0 2.75 0 2.75 2.66v.5c0 2.65 0 2.65-2.75 2.65s-2.75 0-2.75-2.66v-.5c0-2.65 0-2.65 2.75-2.65zM586.78 768.43h11.63v4.82H586.8v-4.82z" fill="#fff"/><path d="M592.4 771.67c2.76 0 2.76 0 2.76 2.66v.5c0 2.65 0 2.65-2.75 2.65-2.74 0-2.74 0-2.74-2.66v-.5c0-2.65 0-2.65 2.75-2.65zM605.16 768.43h11.62v4.82h-11.62v-4.82z" fill="#fff"/><path d="M610.78 771.67c2.75 0 2.75 0 2.75 2.66v.5c0 2.65 0 2.65-2.75 2.65s-2.75 0-2.75-2.66v-.5c0-2.65 0-2.65 2.75-2.65zM632.53 751.87l-3.12 3.06 3.26 3.02-.13-6.08zM632.53 771.85l-3.12 3.06 3.13 3.03v-6.08zM656.4 777.97l3.13-3-3.12-3.07v6.07zM656.53 758.08l3.13-3-3.13-3.07v6.08z" fill="#fff"/><path d="M632.28 753.67h4.75v2.43h-4.75v-2.43zM652.28 753.9h4.63v2.43h-4.62v-2.43zM632.28 773.65h4.63v2.43h-4.62v-2.43zM652.16 773.83h4.62v2.43h-4.62v-2.43z" fill="#fff"/><path d="M634.78 755.3l2.13-1.63 17.38 20.97-2.12 1.62-17.38-20.97z" fill="#fff"/><path d="M652.28 753.9l2 1.75-17.37 20.48-2.12-1.76 17.5-20.47z" fill="#fff"/><path d="M644.9 762.5l2 2.47-.37.27-2-2.48.38-.27zM642.66 764.83l2 2.48-.38.28-2-2.48.38-.27z" fill="#54bbe7"/><use xlink:href="#r" transform="matrix(1,0,0,1,510.7844503021315,791.6092094342193) translate(81.5 18.6)"/><path d="M804.82 789.17h9v6.97h-9v-6.97z" fill="#29aae1"/><path d="M761.32 726.6h95.2v62.57h-95.2V726.6z" fill="#29aae1"/><path d="M765.62 730.43h86.9v55.93h-86.9v-55.93z" fill="#fff" fill-opacity=".98"/><path d="M765.02 796.56h86.8l-4.3 14.96h-86.8l4.3-14.96z" fill="#29aae1"/><path d="M764.52 796.05h88.8l7.4 15.47h-88.8l-7.4-15.47z" fill="#29aae1"/><path d="M794.62 807.53h31.6v3.14h-31.6v-3.14zM777.22 798.52h2.3v1.95h-2.3v-1.95zM781.32 798.6h2.4v1.96h-2.4v-1.96zM786.62 802.17h2.4v1.96h-2.4v-1.96zM785.82 798.35h2.3v2.04h-2.3v-2.05zM789.82 798.52h2.4v1.95h-2.4v-1.95zM793.72 798.35h2.4v2.04h-2.4v-2.05zM818.22 798.7h2.4v2.03h-2.4v-2.04zM821.82 798.7h2.4v2.03h-2.4v-2.04zM825.22 798.7h2.4v2.03h-2.4v-2.04zM829.32 798.7h2.3v2.03h-2.3v-2.04zM833.02 798.7h2.3v2.03h-2.3v-2.04zM828.62 802h2.3v1.96h-2.3V802zM837.22 798.7h2.4v2.03h-2.4v-2.04zM791.12 802.1h2.3v1.94h-2.3v-1.95zM795.62 802.1h2.3v1.94h-2.3v-1.95zM824.92 801.92h2v1.95h-2v-1.95zM820.82 801.92h2.4v1.95h-2.4v-1.95zM798.12 798.43h2.4v2.04h-2.4v-2.04zM802.62 798.52h2.3v2.04h-2.3v-2.04zM806.72 798.43h2.3v2.04h-2.3v-2.04zM811.22 798.43h2.3v2.04h-2.3v-2.04zM814.92 798.52h2.3v2.04h-2.3v-2.04zM799.62 802h2.4v1.96h-2.4V802zM804.12 802h2.3v1.96h-2.3V802zM808.22 802.1h2.4v1.94h-2.4v-1.95zM812.32 802.1h2.3v1.94h-2.3v-1.95zM816.52 801.92h2.3v1.95h-2.3v-1.95z" fill="#fff"/><path d="M760.82 811.52l99.9-.34-7.1-15.13-88.5.17-4.3 15.3z" fill="none"/><path d="M804.32 789.17h9.8v.93h-9.8v-.93zM804.72 794.95h9.3v1.1h-9.3v-1.1z" fill="#fff"/><use xlink:href="#s" transform="matrix(1,0,0,1,730.7211911928189,811.6092094342193) translate(68.525 18.6)"/><path d="M571.65 743.1V284.53" stroke="#282c33" stroke-width="7" fill="none"/><path d="M575.15 746.6h-7v-3.58h7zM575.15 284.6h-7v-3.58h7zm0-6.5h-7V278h7z" stroke="#282c33" stroke-width=".05" fill="#282c33"/><path d="M129.1 258.56h408.12" stroke="#282c33" stroke-width="7" fill="none"/><path d="M129.2 262.06h-3.6v-7h3.6zM540.72 262.06h-3.6v-7h3.6z" stroke="#282c33" stroke-width=".05" fill="#282c33"/><path d="M1009.1 258.56h108.72" stroke="#282c33" stroke-width="7" fill="none"/><path d="M1009.2 262.06h-3.6v-7h3.6zM1121.32 262.06h-3.6v-7h3.6z" stroke="#282c33" stroke-width=".05" fill="#282c33"/><path d="M669.1 258.56h208.12" stroke="#282c33" stroke-width="7" fill="none"/><path d="M669.2 262.06h-3.6v-7h3.6zM880.72 262.06h-3.6v-7h3.6z" stroke="#282c33" stroke-width=".05" fill="#282c33"/><path d="M-698.6-61.44h295.82" stroke="#282c33" stroke-width="7" fill="none"/><path d="M-698.5-57.94h-3.6v-7h3.6zM-399.28-57.94h-3.6v-7h3.6z" stroke="#282c33" stroke-width=".05" fill="#282c33"/><path d="M-670.48 763.56h267.7" stroke="#282c33" stroke-width="7" fill="none"/><path d="M-670.4 767.06h-3.58v-7h3.6zM-399.28 767.06h-3.6v-7h3.6z" stroke="#282c33" stroke-width=".05" fill="#282c33"/><path d="M669.16 769.1h88.66" stroke="#282c33" stroke-width="7" fill="none"/><path d="M669.25 772.6h-3.6v-7h3.6zM761.32 772.6h-3.6v-7h3.6z" stroke="#282c33" stroke-width=".05" fill="#282c33"/><path d="M571.65-35.48v268.04" stroke="#282c33" stroke-width="7" fill="none"/><path d="M575.15-35.4h-7v-3.58h7zm0-6.5h-7V-42h7zM575.15 236.06h-7v-3.6h7z" stroke="#282c33" stroke-width=".05" fill="#282c33"/><path d="M669.1-61.44h88.72" stroke="#282c33" stroke-width="7" fill="none"/><path d="M669.2-57.94h-3.6v-7h3.6zM761.32-57.94h-3.6v-7h3.6z" stroke="#282c33" stroke-width=".05" fill="#282c33"/><path d="M1279.7 4.56h124.87v37.7H1279.7V4.57z" fill="#29aae1"/><path d="M1285.7 46.6h112.87v2.92H1285.7V46.6z" fill="#2188b4"/><path d="M1288.7 11.22h11.5v4.86h-11.5v-4.86z" fill="#fff"/><path d="M1294.2 14.5c2.87 0 2.87 0 2.87 2.66v.5c0 2.65 0 2.65-2.87 2.65-2.75 0-2.75 0-2.75-2.64v-.5c0-2.65 0-2.65 2.75-2.65zM1306.57 11.22h11.5v4.86h-11.5v-4.86z" fill="#fff"/><path d="M1312.2 14.5c2.75 0 2.75 0 2.75 2.66v.5c0 2.65 0 2.65-2.75 2.65-2.88 0-2.88 0-2.88-2.64v-.5c0-2.65 0-2.65 2.88-2.65zM1325.45 11.22h11.5v4.86h-11.5v-4.86z" fill="#fff"/><path d="M1331.07 14.5c2.75 0 2.75 0 2.75 2.66v.5c0 2.65 0 2.65-2.75 2.65-2.87 0-2.87 0-2.87-2.64v-.5c0-2.65 0-2.65 2.87-2.65zM1343.7 11.22h11.62v4.86h-11.62v-4.86z" fill="#fff"/><path d="M1349.32 14.5c2.75 0 2.75 0 2.75 2.66v.5c0 2.65 0 2.65-2.75 2.65s-2.75 0-2.75-2.64v-.5c0-2.65 0-2.65 2.75-2.65zM1366.82 7.5h33.5V38.2h-33.5V7.5z" fill="#fff"/><path d="M1367.95 8.52h31.12v28.53h-31.12V8.52z" fill="#54bbe7"/><path d="M1288.95 26.4h11.62v4.8h-11.62v-4.8z" fill="#fff"/><path d="M1294.57 29.63c2.75 0 2.75 0 2.75 2.65v.5c0 2.65 0 2.65-2.75 2.65s-2.75 0-2.75-2.65v-.5c0-2.65 0-2.65 2.75-2.65zM1306.82 26.4h11.63v4.8h-11.63v-4.8z" fill="#fff"/><path d="M1312.45 29.63c2.75 0 2.75 0 2.75 2.65v.5c0 2.65 0 2.65-2.75 2.65s-2.75 0-2.75-2.65v-.5c0-2.65 0-2.65 2.75-2.65zM1325.7 26.4h11.62v4.8h-11.62v-4.8z" fill="#fff"/><path d="M1331.32 29.63c2.75 0 2.75 0 2.75 2.65v.5c0 2.65 0 2.65-2.75 2.65s-2.75 0-2.75-2.65v-.5c0-2.65 0-2.65 2.75-2.65zM1344.07 26.4h11.63v4.8h-11.63v-4.8z" fill="#fff"/><path d="M1349.7 29.63c2.75 0 2.75 0 2.75 2.65v.5c0 2.65 0 2.65-2.75 2.65s-2.75 0-2.75-2.65v-.5c0-2.65 0-2.65 2.75-2.65zM1371.45 9.83l-3.13 3.06 3.25 3-.12-6.07zM1371.45 29.8l-3.13 3.07 3.13 3v-6.06zM1395.32 35.93l3.13-3.02-3.13-3.05v6.08zM1395.45 16.04l3.12-3.02-3.12-3.06v6.08z" fill="#fff"/><path d="M1371.2 11.63h4.75v2.43h-4.75v-2.43zM1391.2 11.85h4.62v2.43h-4.62v-2.43zM1371.2 31.6h4.62v2.44h-4.62V31.6zM1391.07 31.8h4.63v2.42h-4.63V31.8z" fill="#fff"/><path d="M1373.7 13.25l2.12-1.62 17.38 20.97-2.13 1.62-17.37-20.97z" fill="#fff"/><path d="M1391.2 11.85l2 1.76-17.38 20.48-2.12-1.75 17.5-20.48z" fill="#fff"/><path d="M1383.82 20.45l2 2.47-.37.27-2-2.48.37-.27zM1381.57 22.8l2 2.46-.37.27-2-2.47.37-.27z" fill="#54bbe7"/><use xlink:href="#t" transform="matrix(1,0,0,1,1249.6980763222164,49.561264228739674) translate(81.5 18.6)"/><path d="M1543.8 47.12h9v6.97h-9V47.1z" fill="#29aae1"/><path d="M1500.3-15.44h95.2v62.56h-95.2v-62.56z" fill="#29aae1"/><path d="M1504.6-11.6h86.9V44.3h-86.9V-11.6z" fill="#fff" fill-opacity=".98"/><path d="M1504 54.52h86.8l-4.3 14.96h-86.8l4.3-14.96z" fill="#29aae1"/><path d="M1503.5 54h88.8l7.4 15.48h-88.8L1503.5 54z" fill="#29aae1"/><path d="M1533.6 65.48h31.6v3.15h-31.6v-3.15zM1516.2 56.47h2.3v1.96h-2.3v-1.96zM1520.3 56.56h2.4v1.95h-2.4v-1.94zM1525.6 60.13h2.4v1.95h-2.4v-1.95zM1524.8 56.3h2.3v2.04h-2.3V56.3zM1528.8 56.47h2.4v1.96h-2.4v-1.96zM1532.7 56.3h2.4v2.04h-2.4V56.3zM1557.2 56.64h2.4v2.04h-2.4v-2.04zM1560.8 56.64h2.4v2.04h-2.4v-2.04zM1564.2 56.64h2.4v2.04h-2.4v-2.04zM1568.3 56.64h2.3v2.04h-2.3v-2.04zM1572 56.64h2.3v2.04h-2.3v-2.04zM1567.6 59.96h2.3v1.95h-2.3v-1.94zM1576.2 56.64h2.4v2.04h-2.4v-2.04zM1530.1 60.04h2.3V62h-2.3v-1.96zM1534.6 60.04h2.3V62h-2.3v-1.96zM1563.9 59.87h2v1.96h-2v-1.96zM1559.8 59.87h2.4v1.96h-2.4v-1.96zM1537.1 56.4h2.4v2.03h-2.4V56.4zM1541.6 56.47h2.3v2.04h-2.3v-2.03zM1545.7 56.4h2.3v2.03h-2.3V56.4zM1550.2 56.4h2.3v2.03h-2.3V56.4zM1553.9 56.47h2.3v2.04h-2.3v-2.03zM1538.6 59.96h2.4v1.95h-2.4v-1.94zM1543.1 59.96h2.3v1.95h-2.3v-1.94zM1547.2 60.04h2.4V62h-2.4v-1.96zM1551.3 60.04h2.3V62h-2.3v-1.96zM1555.5 59.87h2.3v1.96h-2.3v-1.96z" fill="#fff"/><path d="M1499.8 69.48l99.9-.34-7.1-15.13-88.5.18-4.3 15.3z" fill="none"/><path d="M1543.3 47.12h9.8v.94h-9.8v-.94zM1543.7 52.9h9.3V54h-9.3v-1.1z" fill="#fff"/><use xlink:href="#u" transform="matrix(1,0,0,1,1469.6980763222164,69.56126422873967) translate(68.525 18.6)"/><path d="M1408.07 27.06h88.73" stroke="#282c33" stroke-width="7" fill="none"/><path d="M1408.16 30.56h-3.6v-7h3.6zM1500.3 30.56h-3.6v-7h3.6z" stroke="#282c33" stroke-width=".05" fill="#282c33"/><path d="M974.85 232.56V39.06a12 12 0 0 1 12-12h289.35" stroke="#282c33" stroke-width="7" fill="none"/><path d="M978.35 236.06h-7v-3.6h7zM1279.7 30.56h-3.6v-7h3.6z" stroke="#282c33" stroke-width=".05" fill="#282c33"/><path d="M1463.8-172.88h9v6.97h-9v-6.98z" fill="#29aae1"/><path d="M1420.3-235.44h95.2v62.56h-95.2v-62.56z" fill="#29aae1"/><path d="M1424.6-231.6h86.9v55.92h-86.9v-55.93z" fill="#fff" fill-opacity=".98"/><path d="M1424-165.48h86.8l-4.3 14.96h-86.8l4.3-14.96z" fill="#29aae1"/><path d="M1423.5-166h88.8l7.4 15.48h-88.8l-7.4-15.47z" fill="#29aae1"/><path d="M1453.6-154.52h31.6v3.15h-31.6v-3.15zM1436.2-163.53h2.3v1.96h-2.3v-1.96zM1440.3-163.44h2.4v1.95h-2.4v-1.94zM1445.6-159.87h2.4v1.95h-2.4v-1.95zM1444.8-163.7h2.3v2.04h-2.3v-2.04zM1448.8-163.53h2.4v1.96h-2.4v-1.96zM1452.7-163.7h2.4v2.04h-2.4v-2.04zM1477.2-163.36h2.4v2.04h-2.4v-2.04zM1480.8-163.36h2.4v2.04h-2.4v-2.04zM1484.2-163.36h2.4v2.04h-2.4v-2.04zM1488.3-163.36h2.3v2.04h-2.3v-2.04zM1492-163.36h2.3v2.04h-2.3v-2.04zM1487.6-160.04h2.3v1.95h-2.3v-1.94zM1496.2-163.36h2.4v2.04h-2.4v-2.04zM1450.1-159.96h2.3v1.96h-2.3v-1.96zM1454.6-159.96h2.3v1.96h-2.3v-1.96zM1483.9-160.13h2v1.96h-2v-1.96zM1479.8-160.13h2.4v1.96h-2.4v-1.96zM1457.1-163.6h2.4v2.03h-2.4v-2.04zM1461.6-163.53h2.3v2.04h-2.3v-2.03zM1465.7-163.6h2.3v2.03h-2.3v-2.04zM1470.2-163.6h2.3v2.03h-2.3v-2.04zM1473.9-163.53h2.3v2.04h-2.3v-2.03zM1458.6-160.04h2.4v1.95h-2.4v-1.94zM1463.1-160.04h2.3v1.95h-2.3v-1.94zM1467.2-159.96h2.4v1.96h-2.4v-1.96zM1471.3-159.96h2.3v1.96h-2.3v-1.96zM1475.5-160.13h2.3v1.96h-2.3v-1.96z" fill="#fff"/><path d="M1419.8-150.52l99.9-.34-7.1-15.13-88.5.18-4.3 15.3z" fill="none"/><path d="M1463.3-172.88h9.8v.94h-9.8v-.94zM1463.7-167.1h9.3v1.1h-9.3v-1.1z" fill="#fff"/><use xlink:href="#v" transform="matrix(1,0,0,1,1389.6980763222164,-150.43873577126033) translate(68.525 18.6)"/><path d="M1416.8-192.94h-30.97a12 12 0 0 0-12 12v182" stroke="#282c33" stroke-width="7" fill="none"/><path d="M1420.3-189.44h-3.6v-7h3.6zM1377.33 4.56h-7V.96h7z" stroke="#282c33" stroke-width=".05" fill="#282c33"/><path d="M-623.4 231.06V12.78a12 12 0 0 1 12-12h231.05a12 12 0 0 0 12-12v-22.76" stroke="#282c33" stroke-width="10" fill="none"/><path d="M-618.4 236.06h-10v-5.13h10zM-363.35-33.86h-10v-5.12h10zm0-8.05h-10V-42h10z" stroke="#282c33" stroke-width=".05" fill="#282c33"/><path d="M-269.4-61.44h805.12" stroke="#282c33" stroke-width="10" fill="none"/><path d="M-269.28-56.44h-5.12v-10h5.12zM540.72-56.44h-5.13v-10h5.12z" stroke="#282c33" stroke-width=".05" fill="#282c33"/><path d="M-269.4 769.1h805.18" stroke="#282c33" stroke-width="10" fill="none"/><path d="M-269.28 774.1h-5.12v-10h5.12zM540.78 774.1h-5.12v-10h5.12z" stroke="#282c33" stroke-width=".05" fill="#282c33"/><path d="M-623.35 286.02v382.76a12 12 0 0 0 12 12h230.94a12 12 0 0 1 12 12v48.83" stroke="#282c33" stroke-width="10" fill="none"/><path d="M-618.35 286.14h-10v-5.12h10zm0-8.05h-10V278h10zM-363.4 746.6h-10v-5.12h10z" stroke="#282c33" stroke-width=".05" fill="#282c33"/><path d="M-309.25 231.06V-33.98" stroke="#282c33" stroke-width="10" fill="none"/><path d="M-304.25 236.06h-10v-5.13h10zM-304.25-33.85h-10v-5.13h10zm0-8.06h-10V-42h10z" stroke="#282c33" stroke-width=".05" fill="#282c33"/><path d="M-309.25 741.6V286.03" stroke="#282c33" stroke-width="10" fill="none"/><path d="M-304.25 746.6h-10v-5.12h10zM-304.25 286.14h-10v-5.12h10zm0-8.05h-10V278h10z" stroke="#282c33" stroke-width=".05" fill="#282c33"/><path d="M-809.25 222.06a6 6 0 0 1 6-6h228a6 6 0 0 1 6 6v48a6 6 0 0 1-6 6h-228a6 6 0 0 1-6-6z" stroke="#000" stroke-opacity="0" stroke-width="2" fill="#fff" fill-opacity="0"/><use xlink:href="#a" transform="matrix(1,0,0,1,-804.251033835626,221.06126422873967) translate(95.14506172839506 28.069444444444443)"/><use xlink:href="#w" transform="matrix(1,0,0,1,-804.251033835626,221.06126422873967) translate(126.21296296296296 28.069444444444443)"/><path d="M-616.63 200h49.7v28.67h-49.7z" fill="#fff" fill-opacity="0"/><use xlink:href="#a" transform="matrix(1,0,0,1,-611.633747078786,205) translate(0 12.444444444444441)"/><use xlink:href="#x" transform="matrix(1,0,0,1,-611.633747078786,205) translate(31.067901234567895 12.444444444444441)"/><path d="M-616.63 320h49.7v47.33h-49.7z" fill="#fff" fill-opacity="0"/><use xlink:href="#a" transform="matrix(1,0,0,1,-611.633747078786,325) translate(0 12.444444444444441)"/><use xlink:href="#b" transform="matrix(1,0,0,1,-611.633747078786,325) translate(31.067901234567895 12.444444444444441)"/><path d="M-520 231.73h49.7v28.66H-520z" fill="#fff" fill-opacity="0"/><use xlink:href="#a" transform="matrix(1,0,0,1,-515,236.72793089540636) translate(0 12.444444444444441)"/><use xlink:href="#y" transform="matrix(1,0,0,1,-515,236.72793089540636) translate(31.067901234567895 12.444444444444441)"/><path d="M-300 200h49.7v28.67H-300z" fill="#fff" fill-opacity="0"/><use xlink:href="#a" transform="matrix(1,0,0,1,-295,205) translate(0 12.444444444444441)"/><use xlink:href="#x" transform="matrix(1,0,0,1,-295,205) translate(31.067901234567895 12.444444444444441)"/><path d="M-300 320h49.7v28.67H-300z" fill="#fff" fill-opacity="0"/><use xlink:href="#a" transform="matrix(1,0,0,1,-295,325) translate(0 12.444444444444441)"/><use xlink:href="#b" transform="matrix(1,0,0,1,-295,325) translate(31.067901234567895 12.444444444444441)"/><path d="M-414.28 231.73h49.7v28.66h-49.7z" fill="#fff" fill-opacity="0"/><use xlink:href="#a" transform="matrix(1,0,0,1,-409.2788088071811,236.72793089540636) translate(0 12.444444444444441)"/><use xlink:href="#w" transform="matrix(1,0,0,1,-409.2788088071811,236.72793089540636) translate(31.067901234567895 12.444444444444441)"/><path d="M-230.43 231.73h49.7v28.66h-49.7z" fill="#fff" fill-opacity="0"/><use xlink:href="#a" transform="matrix(1,0,0,1,-225.43106773602875,236.72793089540633) translate(0 12.444444444444441)"/><use xlink:href="#y" transform="matrix(1,0,0,1,-225.43106773602875,236.72793089540633) translate(31.067901234567895 12.444444444444441)"/><path d="M142 230h49.7v28.67H142z" fill="#fff" fill-opacity="0"/><use xlink:href="#a" transform="matrix(1,0,0,1,147,235) translate(0 12.444444444444441)"/><use xlink:href="#w" transform="matrix(1,0,0,1,147,235) translate(31.067901234567895 12.444444444444441)"/><path d="M-65.27 230h49.7v28.67h-49.7z" fill="#fff" fill-opacity="0"/><use xlink:href="#a" transform="matrix(1,0,0,1,-60.267494157572116,235.00000000000003) translate(0 12.444444444444441)"/><use xlink:href="#x" transform="matrix(1,0,0,1,-60.267494157572116,235.00000000000003) translate(31.067901234567895 12.444444444444441)"/><path d="M-460-87h49.7v28.67H-460z" fill="#fff" fill-opacity="0"/><use xlink:href="#a" transform="matrix(1,0,0,1,-455,-82) translate(0 12.444444444444441)"/><use xlink:href="#w" transform="matrix(1,0,0,1,-455,-82) translate(31.067901234567895 12.444444444444441)"/><path d="M-263.27-87h49.7v28.67h-49.7z" fill="#fff" fill-opacity="0"/><use xlink:href="#a" transform="matrix(1,0,0,1,-258.2674941575721,-82) translate(0 12.444444444444441)"/><use xlink:href="#b" transform="matrix(1,0,0,1,-258.2674941575721,-82) translate(31.067901234567895 12.444444444444441)"/><path d="M-300-28.67h49.7V0H-300z" fill="#fff" fill-opacity="0"/><use xlink:href="#a" transform="matrix(1,0,0,1,-295,-23.66666666666666) translate(0 12.444444444444441)"/><use xlink:href="#y" transform="matrix(1,0,0,1,-295,-23.66666666666666) translate(31.067901234567895 12.444444444444441)"/><path d="M-460-28.67h49.7V0H-460z" fill="#fff" fill-opacity="0"/><use xlink:href="#a" transform="matrix(1,0,0,1,-455,-23.66666666666666) translate(0 12.444444444444441)"/><use xlink:href="#x" transform="matrix(1,0,0,1,-455,-23.66666666666666) translate(31.067901234567895 12.444444444444441)"/><path d="M-470.3 777.4h49.72v28.66h-49.7z" fill="#fff" fill-opacity="0"/><use xlink:href="#a" transform="matrix(1,0,0,1,-465.2901234567901,782.394597562073) translate(0 12.444444444444441)"/><use xlink:href="#w" transform="matrix(1,0,0,1,-465.2901234567901,782.394597562073) translate(31.067901234567895 12.444444444444441)"/><path d="M-470.3 692.4h49.72v28.66h-49.7z" fill="#fff" fill-opacity="0"/><use xlink:href="#a" transform="matrix(1,0,0,1,-465.2901234567901,697.394597562073) translate(0 12.444444444444441)"/><use xlink:href="#x" transform="matrix(1,0,0,1,-465.2901234567901,697.394597562073) translate(31.067901234567895 12.444444444444441)"/><path d="M-300 717.94h49.7v28.67H-300z" fill="#fff" fill-opacity="0"/><use xlink:href="#a" transform="matrix(1,0,0,1,-295,722.9425427675527) translate(0 12.444444444444441)"/><use xlink:href="#y" transform="matrix(1,0,0,1,-295,722.9425427675527) translate(31.067901234567895 12.444444444444441)"/><path d="M-263.27 777.4h49.7v28.66h-49.7z" fill="#fff" fill-opacity="0"/><use xlink:href="#a" transform="matrix(1,0,0,1,-258.2674941575721,782.394597562073) translate(0 12.444444444444441)"/><use xlink:href="#b" transform="matrix(1,0,0,1,-258.2674941575721,782.394597562073) translate(31.067901234567895 12.444444444444441)"/><path d="M680 777.4h49.7v28.66H680z" fill="#fff" fill-opacity="0"/><use xlink:href="#a" transform="matrix(1,0,0,1,685,782.394597562073) translate(0 12.444444444444441)"/><use xlink:href="#w" transform="matrix(1,0,0,1,685,782.394597562073) translate(31.067901234567895 12.444444444444441)"/><path d="M476.86 777.4h49.7v28.66h-49.7z" fill="#fff" fill-opacity="0"/><use xlink:href="#a" transform="matrix(1,0,0,1,481.85902406105316,782.394597562073) translate(0 12.444444444444441)"/><use xlink:href="#x" transform="matrix(1,0,0,1,481.85902406105316,782.394597562073) translate(31.067901234567895 12.444444444444441)"/><path d="M574 710h49.7v28.67H574z" fill="#fff" fill-opacity="0"/><use xlink:href="#a" transform="matrix(1,0,0,1,579,715) translate(0 12.444444444444441)"/><use xlink:href="#b" transform="matrix(1,0,0,1,579,715) translate(31.067901234567895 12.444444444444441)"/><path d="M692 220h49.7v28.67H692z" fill="#fff" fill-opacity="0"/><use xlink:href="#a" transform="matrix(1,0,0,1,697,225) translate(0 12.444444444444441)"/><use xlink:href="#b" transform="matrix(1,0,0,1,697,225) translate(31.067901234567895 12.444444444444441)"/><path d="M464 222h49.7v28.67H464z" fill="#fff" fill-opacity="0"/><g><use xlink:href="#a" transform="matrix(1,0,0,1,469,227) translate(0 12.444444444444441)"/><use xlink:href="#y" transform="matrix(1,0,0,1,469,227) translate(31.067901234567895 12.444444444444441)"/></g><path d="M578.43 179h49.7v28.67h-49.7z" fill="#fff" fill-opacity="0"/><g><use xlink:href="#a" transform="matrix(1,0,0,1,583.4295120305267,184) translate(0 12.444444444444441)"/><use xlink:href="#w" transform="matrix(1,0,0,1,583.4295120305267,184) translate(31.067901234567895 12.444444444444441)"/></g><path d="M578.37 329.33h49.7V358h-49.7z" fill="#fff" fill-opacity="0"/><g><use xlink:href="#a" transform="matrix(1,0,0,1,583.366252921214,334.33333333333337) translate(0 12.444444444444441)"/><use xlink:href="#x" transform="matrix(1,0,0,1,583.366252921214,334.33333333333337) translate(31.067901234567895 12.444444444444441)"/></g><path d="M671-90h49.7v28.67H671z" fill="#fff" fill-opacity="0"/><g><use xlink:href="#a" transform="matrix(1,0,0,1,676,-85) translate(0 12.444444444444441)"/><use xlink:href="#w" transform="matrix(1,0,0,1,676,-85) translate(31.067901234567895 12.444444444444441)"/></g><path d="M476.86-90h49.7v28.67h-49.7z" fill="#fff" fill-opacity="0"/><g><use xlink:href="#a" transform="matrix(1,0,0,1,481.85902406105316,-85) translate(0 12.444444444444441)"/><use xlink:href="#x" transform="matrix(1,0,0,1,481.85902406105316,-85) translate(31.067901234567895 12.444444444444441)"/></g><path d="M1419.7 40h49.7v28.67h-49.7z" fill="#fff" fill-opacity="0"/><g><use xlink:href="#a" transform="matrix(1,0,0,1,1424.6980763222164,45) translate(0 12.444444444444441)"/><use xlink:href="#w" transform="matrix(1,0,0,1,1424.6980763222164,45) translate(31.067901234567895 12.444444444444441)"/></g><path d="M1316-54h49.7v28.67H1316z" fill="#fff" fill-opacity="0"/><g><use xlink:href="#a" transform="matrix(1,0,0,1,1321,-49) translate(0 12.444444444444441)"/><use xlink:href="#x" transform="matrix(1,0,0,1,1321,-49) translate(31.067901234567895 12.444444444444441)"/></g><path d="M1200-5h49.7v28.67H1200z" fill="#fff" fill-opacity="0"/><g><use xlink:href="#a" transform="matrix(1,0,0,1,1205,0) translate(0 12.444444444444441)"/><use xlink:href="#b" transform="matrix(1,0,0,1,1205,0) translate(31.067901234567895 12.444444444444441)"/></g><path d="M1005.72 260.4h49.7v28.66h-49.7z" fill="#fff" fill-opacity="0"/><g><use xlink:href="#a" transform="matrix(1,0,0,1,1010.7211911928189,265.39459756207305) translate(0 12.444444444444441)"/><use xlink:href="#w" transform="matrix(1,0,0,1,1010.7211911928189,265.39459756207305) translate(31.067901234567895 12.444444444444441)"/></g><path d="M980 179h49.7v28.67H980z" fill="#fff" fill-opacity="0"/><g><use xlink:href="#a" transform="matrix(1,0,0,1,985,184) translate(0 12.444444444444441)"/><use xlink:href="#x" transform="matrix(1,0,0,1,985,184) translate(31.067901234567895 12.444444444444441)"/></g><path d="M820 222h49.7v28.67H820z" fill="#fff" fill-opacity="0"/><g><use xlink:href="#a" transform="matrix(1,0,0,1,825,226.99999999999997) translate(0 12.444444444444441)"/><use xlink:href="#b" transform="matrix(1,0,0,1,825,226.99999999999997) translate(31.067901234567895 12.444444444444441)"/></g><path d="M-352.78-121.6h32V-90h-32z" fill="#fff" fill-opacity="0"/><g><use xlink:href="#z" transform="matrix(1,0,0,1,-347.7788088071811,-116.6) translate(0 14.4)"/></g><path d="M584.7-114h32v31.6h-32z" fill="#fff" fill-opacity="0"/><g><use xlink:href="#A" transform="matrix(1,0,0,1,589.7098765432098,-109) translate(0 14.4)"/></g><defs><path fill="#333" d="M115-194c55 1 70 41 70 98S169 2 115 4C84 4 66-9 55-30l1 105H24l-1-265h31l2 30c10-21 28-34 59-34zm-8 174c40 0 45-34 45-75s-6-73-45-74c-42 0-51 32-51 76 0 43 10 73 51 73" id="B"/><path fill="#333" d="M100-194c62-1 85 37 85 99 1 63-27 99-86 99S16-35 15-95c0-66 28-99 85-99zM99-20c44 1 53-31 53-75 0-43-8-75-51-75s-53 32-53 75 10 74 51 75" id="C"/><path fill="#333" d="M114-163C36-179 61-72 57 0H25l-1-190h30c1 12-1 29 2 39 6-27 23-49 58-41v29" id="D"/><path fill="#333" d="M59-47c-2 24 18 29 38 22v24C64 9 27 4 27-40v-127H5v-23h24l9-43h21v43h35v23H59v120" id="E"/><g id="a"><use transform="matrix(0.04320987654320986,0,0,0.04320987654320986,0,0)" xlink:href="#B"/><use transform="matrix(0.04320987654320986,0,0,0.04320987654320986,8.641975308641973,0)" xlink:href="#C"/><use transform="matrix(0.04320987654320986,0,0,0.04320987654320986,17.283950617283946,0)" xlink:href="#D"/><use transform="matrix(0.04320987654320986,0,0,0.04320987654320986,22.425925925925924,0)" xlink:href="#E"/></g><path fill="#333" d="M126-127c33 6 58 20 58 59 0 88-139 92-164 29-3-8-5-16-6-25l32-3c6 27 21 44 54 44 32 0 52-15 52-46 0-38-36-46-79-43v-28c39 1 72-4 72-42 0-27-17-43-46-43-28 0-47 15-49 41l-32-3c6-42 35-63 81-64 48-1 79 21 79 65 0 36-21 52-52 59" id="F"/><use transform="matrix(0.04320987654320986,0,0,0.04320987654320986,0,0)" xlink:href="#F" id="b"/><path fill="#333" d="M160-131c35 5 61 23 61 61C221 17 115-2 30 0v-248c76 3 177-17 177 60 0 33-19 50-47 57zm-97-11c50-1 110 9 110-42 0-47-63-36-110-37v79zm0 115c55-2 124 14 124-45 0-56-70-42-124-44v89" id="G"/><path fill="#333" d="M205 0l-28-72H64L36 0H1l101-248h38L239 0h-34zm-38-99l-47-123c-12 45-31 82-46 123h93" id="H"/><path fill="#333" d="M185-189c-5-48-123-54-124 2 14 75 158 14 163 119 3 78-121 87-175 55-17-10-28-26-33-46l33-7c5 56 141 63 141-1 0-78-155-14-162-118-5-82 145-84 179-34 5 7 8 16 11 25" id="I"/><path fill="#333" d="M30 0v-248h187v28H63v79h144v27H63v87h162V0H30" id="J"/><g id="c"><use transform="matrix(0.19197530864197512,0,0,0.19197530864197512,0,0)" xlink:href="#G"/><use transform="matrix(0.19197530864197512,0,0,0.19197530864197512,46.074074074074026,0)" xlink:href="#H"/><use transform="matrix(0.19197530864197512,0,0,0.19197530864197512,92.14814814814805,0)" xlink:href="#I"/><use transform="matrix(0.19197530864197512,0,0,0.19197530864197512,138.2222222222221,0)" xlink:href="#J"/></g><path fill="#333" d="M127-220V0H93v-220H8v-28h204v28h-85" id="K"/><path fill="#333" d="M140-251c81 0 123 46 123 126C263-46 219 4 140 4 59 4 17-45 17-125s42-126 123-126zm0 227c63 0 89-41 89-101s-29-99-89-99c-61 0-89 39-89 99S79-25 140-24" id="L"/><path fill="#333" d="M30-248c87 1 191-15 191 75 0 78-77 80-158 76V0H30v-248zm33 125c57 0 124 11 124-50 0-59-68-47-124-48v98" id="M"/><path fill="#333" d="M30 0v-248h33v221h125V0H30" id="N"/><path fill="#333" d="M143 4C61 4 22-44 18-125c-5-107 100-154 193-111 17 8 29 25 37 43l-32 9c-13-25-37-40-76-40-61 0-88 39-88 99 0 61 29 100 91 101 35 0 62-11 79-27v-45h-74v-28h105v86C228-13 192 4 143 4" id="O"/><path fill="#333" d="M137-103V0h-34v-103L8-248h37l75 118 75-118h37" id="P"/><g id="d"><use transform="matrix(0.19197530864197512,0,0,0.19197530864197512,0,0)" xlink:href="#K"/><use transform="matrix(0.19197530864197512,0,0,0.19197530864197512,40.69876543209873,0)" xlink:href="#L"/><use transform="matrix(0.19197530864197512,0,0,0.19197530864197512,94.45185185185176,0)" xlink:href="#M"/><use transform="matrix(0.19197530864197512,0,0,0.19197530864197512,140.52592592592578,0)" xlink:href="#L"/><use transform="matrix(0.19197530864197512,0,0,0.19197530864197512,194.2790123456788,0)" xlink:href="#N"/><use transform="matrix(0.19197530864197512,0,0,0.19197530864197512,232.67407407407384,0)" xlink:href="#L"/><use transform="matrix(0.19197530864197512,0,0,0.19197530864197512,286.4271604938269,0)" xlink:href="#O"/><use transform="matrix(0.19197530864197512,0,0,0.19197530864197512,340.18024691357994,0)" xlink:href="#P"/></g><use transform="matrix(0.05,0,0,0.05,0,0)" xlink:href="#I" id="e"/><path fill="#333" d="M27 0v-27h64v-190l-56 39v-29l58-41h29v221h61V0H27" id="Q"/><use transform="matrix(0.05,0,0,0.05,0,0)" xlink:href="#Q" id="f"/><path fill="#333" d="M197 0v-115H63V0H30v-248h33v105h134v-105h34V0h-34" id="R"/><use transform="matrix(0.05,0,0,0.05,0,0)" xlink:href="#R" id="g"/><g id="h"><use transform="matrix(0.05,0,0,0.05,0,0)" xlink:href="#I"/><use transform="matrix(0.05,0,0,0.05,12,0)" xlink:href="#F"/></g><g id="i"><use transform="matrix(0.05,0,0,0.05,0,0)" xlink:href="#R"/><use transform="matrix(0.05,0,0,0.05,12.950000000000001,0)" xlink:href="#F"/></g><path fill="#333" d="M155-56V0h-30v-56H8v-25l114-167h33v167h35v25h-35zm-30-156c-27 46-58 90-88 131h88v-131" id="S"/><g id="j"><use transform="matrix(0.05,0,0,0.05,0,0)" xlink:href="#R"/><use transform="matrix(0.05,0,0,0.05,12.950000000000001,0)" xlink:href="#S"/></g><path fill="#333" d="M110-160c48 1 74 30 74 79 0 53-28 85-80 85-65 0-83-55-86-122-5-90 50-162 133-122 14 7 22 21 27 39l-31 6c-5-40-67-38-82-6-9 19-15 44-15 74 11-20 30-34 60-33zm-7 138c34 0 49-23 49-58s-16-56-50-56c-29 0-50 16-49 49 1 36 15 65 50 65" id="T"/><g id="k"><use transform="matrix(0.05,0,0,0.05,0,0)" xlink:href="#I"/><use transform="matrix(0.05,0,0,0.05,12,0)" xlink:href="#T"/></g><g id="l"><use transform="matrix(0.05,0,0,0.05,0,0)" xlink:href="#R"/><use transform="matrix(0.05,0,0,0.05,12.950000000000001,0)" xlink:href="#T"/></g><path fill="#333" d="M134-131c28 9 52 24 51 62-1 50-34 73-85 73S17-19 16-69c0-36 21-54 49-61-75-25-45-126 34-121 46 3 78 18 79 63 0 33-17 51-44 57zm-34-11c31 1 46-15 46-44 0-28-17-43-47-42-29 0-46 13-45 42 1 28 16 44 46 44zm1 122c35 0 51-18 51-52 0-30-18-46-53-46-33 0-51 17-51 47 0 34 19 51 53 51" id="U"/><g id="m"><use transform="matrix(0.05,0,0,0.05,0,0)" xlink:href="#I"/><use transform="matrix(0.05,0,0,0.05,12,0)" xlink:href="#U"/></g><path fill="#333" d="M101-251c68 0 85 55 85 127S166 4 100 4C33 4 14-52 14-124c0-73 17-127 87-127zm-1 229c47 0 54-49 54-102s-4-102-53-102c-51 0-55 48-55 102 0 53 5 102 54 102" id="V"/><g id="n"><use transform="matrix(0.05,0,0,0.05,0,0)" xlink:href="#I"/><use transform="matrix(0.05,0,0,0.05,12,0)" xlink:href="#Q"/><use transform="matrix(0.05,0,0,0.05,22,0)" xlink:href="#V"/></g><path fill="#333" d="M101-251c82-7 93 87 43 132L82-64C71-53 59-42 53-27h129V0H18c2-99 128-94 128-182 0-28-16-43-45-43s-46 15-49 41l-32-3c6-41 34-60 81-64" id="W"/><use transform="matrix(0.05,0,0,0.05,0,0)" xlink:href="#W" id="o"/><path fill="#333" d="M99-251c64 0 84 50 84 122C183-37 130 33 47-8c-14-7-20-23-25-40l30-5c6 39 69 39 84 7 9-19 16-44 16-74-10 22-31 35-62 35-49 0-73-33-73-83 0-54 28-83 82-83zm-1 141c31-1 51-18 51-49 0-36-14-67-51-67-34 0-49 23-49 58 0 34 15 58 49 58" id="X"/><g id="q"><use transform="matrix(0.05,0,0,0.05,0,0)" xlink:href="#I"/><use transform="matrix(0.05,0,0,0.05,12,0)" xlink:href="#X"/></g><path fill="#333" d="M54-142c48-35 137-8 131 61C196 18 31 33 14-55l32-4c7 23 22 37 52 37 35-1 51-22 54-58 4-55-73-65-99-34H22l8-134h141v27H59" id="Y"/><g id="r"><use transform="matrix(0.05,0,0,0.05,0,0)" xlink:href="#I"/><use transform="matrix(0.05,0,0,0.05,12,0)" xlink:href="#Y"/></g><g id="s"><use transform="matrix(0.05,0,0,0.05,0,0)" xlink:href="#R"/><use transform="matrix(0.05,0,0,0.05,12.950000000000001,0)" xlink:href="#Y"/></g><path fill="#333" d="M64 0c3-98 48-159 88-221H18v-27h164v26C143-157 98-101 97 0H64" id="Z"/><g id="t"><use transform="matrix(0.05,0,0,0.05,0,0)" xlink:href="#I"/><use transform="matrix(0.05,0,0,0.05,12,0)" xlink:href="#Z"/></g><g id="u"><use transform="matrix(0.05,0,0,0.05,0,0)" xlink:href="#R"/><use transform="matrix(0.05,0,0,0.05,12.950000000000001,0)" xlink:href="#Z"/></g><g id="v"><use transform="matrix(0.05,0,0,0.05,0,0)" xlink:href="#R"/><use transform="matrix(0.05,0,0,0.05,12.950000000000001,0)" xlink:href="#U"/></g><use transform="matrix(0.04320987654320986,0,0,0.04320987654320986,0,0)" xlink:href="#Q" id="w"/><use transform="matrix(0.04320987654320986,0,0,0.04320987654320986,0,0)" xlink:href="#W" id="x"/><use transform="matrix(0.04320987654320986,0,0,0.04320987654320986,0,0)" xlink:href="#S" id="y"/><g id="z"><use transform="matrix(0.05,0,0,0.05,0,0)" xlink:href="#I"/><use transform="matrix(0.05,0,0,0.05,12,0)" xlink:href="#W"/></g><g id="A"><use transform="matrix(0.05,0,0,0.05,0,0)" xlink:href="#I"/><use transform="matrix(0.05,0,0,0.05,12,0)" xlink:href="#S"/></g></defs></g></svg>