<svg xmlns="http://www.w3.org/2000/svg" xmlns:xlink="http://www.w3.org/1999/xlink" xmlns:lucid="lucid" width="1530.76" height="1284.65"><g transform="translate(549.3968798712601 420)" lucid:page-tab-id="0_0"><path d="M-1806.87-1258.83h3677.74v2581.66h-3677.74z" fill="#fff"/><path d="M581.35-8.12h240v60h-240z" fill="none"/><use xlink:href="#a" transform="matrix(1,0,0,1,581.3530219665814,-8.124415138696605) translate(100.14506172839506 33.111111111111114)"/><use xlink:href="#b" transform="matrix(1,0,0,1,581.3530219665814,-8.124415138696605) translate(131.21296296296296 33.111111111111114)"/><path d="M-243.25-400h928.6v183.87h-928.6z" fill="none"/><use xlink:href="#c" transform="matrix(1,0,0,1,-243.25486644567297,-400) translate(165.9783950617287 105.82222222222221)"/><use xlink:href="#d" transform="matrix(1,0,0,1,-243.25486644567297,-400) translate(376.7672839506174 105.82222222222221)"/><path d="M-298.64 758.45h124.88v37.7h-124.88v-37.7z" fill="#29aae1"/><path d="M-292.64 800.48h112.88v2.93h-112.88v-2.92z" fill="#2188b4"/><path d="M-289.64 765.1h11.5v4.87h-11.5v-4.86z" fill="#fff"/><path d="M-284.14 768.4c2.88 0 2.88 0 2.88 2.65v.5c0 2.65 0 2.65-2.88 2.65-2.75 0-2.75 0-2.75-2.65v-.5c0-2.65 0-2.65 2.76-2.65zM-271.76 765.1h11.5v4.87h-11.5v-4.86z" fill="#fff"/><path d="M-266.14 768.4c2.75 0 2.75 0 2.75 2.65v.5c0 2.65 0 2.65-2.74 2.65-2.87 0-2.87 0-2.87-2.65v-.5c0-2.65 0-2.65 2.86-2.65zM-252.9 765.1h11.5v4.87h-11.5v-4.86z" fill="#fff"/><path d="M-247.26 768.4c2.75 0 2.75 0 2.75 2.65v.5c0 2.65 0 2.65-2.76 2.65-2.88 0-2.88 0-2.88-2.65v-.5c0-2.65 0-2.65 2.88-2.65zM-234.64 765.1H-223v4.87h-11.64v-4.86z" fill="#fff"/><path d="M-229 768.4c2.74 0 2.74 0 2.74 2.65v.5c0 2.65 0 2.65-2.75 2.65-2.76 0-2.76 0-2.76-2.65v-.5c0-2.65 0-2.65 2.75-2.65zM-211.5 761.38h33.5v30.73h-33.5V761.4z" fill="#fff"/><path d="M-210.4 762.4h31.14v28.54h-31.13V762.4z" fill="#54bbe7"/><path d="M-289.4 780.28h11.64v4.8h-11.63v-4.8z" fill="#fff"/><path d="M-283.76 783.52c2.75 0 2.75 0 2.75 2.65v.5c0 2.65 0 2.65-2.76 2.65-2.75 0-2.75 0-2.75-2.65v-.5c0-2.65 0-2.65 2.74-2.65zM-271.5 780.28h11.6v4.8h-11.6v-4.8z" fill="#fff"/><path d="M-265.9 783.52c2.76 0 2.76 0 2.76 2.65v.5c0 2.65 0 2.65-2.75 2.65-2.74 0-2.74 0-2.74-2.65v-.5c0-2.65 0-2.65 2.75-2.65zM-252.64 780.28H-241v4.8h-11.64v-4.8z" fill="#fff"/><path d="M-247 783.52c2.74 0 2.74 0 2.74 2.65v.5c0 2.65 0 2.65-2.75 2.65-2.76 0-2.76 0-2.76-2.65v-.5c0-2.65 0-2.65 2.75-2.65zM-234.26 780.28h11.62v4.8h-11.62v-4.8z" fill="#fff"/><path d="M-228.64 783.52c2.75 0 2.75 0 2.75 2.65v.5c0 2.65 0 2.65-2.74 2.65-2.75 0-2.75 0-2.75-2.65v-.5c0-2.65 0-2.65 2.76-2.65zM-206.9 763.72l-3.1 3.06 3.24 3-.13-6.06zM-206.9 783.7l-3.1 3.06 3.1 3v-6.06zM-183 789.82l3.1-3.02-3.1-3.06v6.08zM-182.9 769.93l3.14-3.02-3.13-3.05v6.08z" fill="#fff"/><path d="M-207.14 765.52h4.75v2.43h-4.74v-2.43zM-187.14 765.74h4.63v2.43h-4.64v-2.43zM-207.14 785.5h4.63v2.43h-4.64v-2.43zM-187.26 785.68h4.62v2.43h-4.62v-2.42z" fill="#fff"/><path d="M-204.64 767.14l2.13-1.62 17.36 20.97-2.12 1.6-17.38-20.96z" fill="#fff"/><path d="M-187.14 765.74l2 1.76-17.37 20.47-2.14-1.75 17.5-20.48z" fill="#fff"/><path d="M-194.5 774.34l2 2.47-.4.28-2-2.47.4-.26zM-196.76 776.68l2 2.47-.38.27-2-2.47.38-.27z" fill="#54bbe7"/><use xlink:href="#e" transform="matrix(1,0,0,1,-328.6356633838095,803.4541621811529) translate(81.5 18.6)"/><path d="M-475.9 795.47h9v6.97h-9v-6.97zM-519.4 732.9h95.2v62.57h-95.2V732.9z" fill="#29aae1"/><path d="M-515.1 736.73h86.9v55.93h-86.9v-55.93z" fill="#fff" fill-opacity=".98"/><path d="M-515.7 802.86h86.8l-4.3 14.96H-520l4.3-14.96z" fill="#29aae1"/><path d="M-516.2 802.35h88.8l7.4 15.47h-88.8l-7.4-15.47z" fill="#29aae1"/><path d="M-486.1 813.83h31.6v3.14h-31.6v-3.14zM-503.5 804.82h2.3v1.95h-2.3v-1.95zM-499.4 804.9h2.4v1.96h-2.4v-1.96zM-494.1 808.47h2.4v1.96h-2.4v-1.96zM-494.9 804.65h2.3v2.04h-2.3v-2.05zM-490.9 804.82h2.4v1.95h-2.4v-1.95zM-487 804.65h2.4v2.04h-2.4v-2.05zM-462.5 805h2.4v2.03h-2.4V805zM-458.9 805h2.4v2.03h-2.4V805zM-455.5 805h2.4v2.03h-2.4V805zM-451.4 805h2.3v2.03h-2.3V805zM-447.7 805h2.3v2.03h-2.3V805zM-452.1 808.3h2.3v1.96h-2.3v-1.96zM-443.5 805h2.4v2.03h-2.4V805zM-489.6 808.4h2.3v1.94h-2.3v-1.95zM-485.1 808.4h2.3v1.94h-2.3v-1.95zM-455.8 808.22h2v1.95h-2v-1.95zM-459.9 808.22h2.4v1.95h-2.4v-1.95zM-482.6 804.73h2.4v2.04h-2.4v-2.04zM-478.1 804.82h2.3v2.04h-2.3v-2.04zM-474 804.73h2.3v2.04h-2.3v-2.04zM-469.5 804.73h2.3v2.04h-2.3v-2.04zM-465.8 804.82h2.3v2.04h-2.3v-2.04zM-481.1 808.3h2.4v1.96h-2.4v-1.96zM-476.6 808.3h2.3v1.96h-2.3v-1.96zM-472.5 808.4h2.4v1.94h-2.4v-1.95zM-468.4 808.4h2.3v1.94h-2.3v-1.95zM-464.2 808.22h2.3v1.95h-2.3v-1.95z" fill="#fff"/><path d="M-519.9 817.82l99.9-.34-7.1-15.13-88.5.17-4.3 15.3z" fill="none"/><path d="M-476.4 795.47h9.8v.93h-9.8v-.93zM-476 801.25h9.3v1.1h-9.3v-1.1z" fill="#fff"/><use xlink:href="#f" transform="matrix(1,0,0,1,-550,817.9062169756733) translate(68.525 18.6)"/><path d="M641.36-72.1h124.88v37.72H641.36v-37.7z" fill="#29aae1"/><path d="M647.36-30.06h112.88v2.92H647.36v-2.92z" fill="#2188b4"/><path d="M650.36-65.43h11.5v4.86h-11.5v-4.86z" fill="#fff"/><path d="M655.86-62.15c2.88 0 2.88 0 2.88 2.66v.5c0 2.66 0 2.66-2.88 2.66-2.75 0-2.75 0-2.75-2.66v-.5c0-2.65 0-2.65 2.76-2.65zM668.24-65.43h11.5v4.86h-11.5v-4.86z" fill="#fff"/><path d="M673.86-62.15c2.75 0 2.75 0 2.75 2.66v.5c0 2.66 0 2.66-2.74 2.66-2.87 0-2.87 0-2.87-2.66v-.5c0-2.65 0-2.65 2.86-2.65zM687.1-65.43h11.5v4.86h-11.5v-4.86z" fill="#fff"/><path d="M692.74-62.15c2.75 0 2.75 0 2.75 2.66v.5c0 2.66 0 2.66-2.76 2.66-2.88 0-2.88 0-2.88-2.66v-.5c0-2.65 0-2.65 2.88-2.65zM705.36-65.43H717v4.86h-11.64v-4.86z" fill="#fff"/><path d="M711-62.15c2.74 0 2.74 0 2.74 2.66v.5c0 2.66 0 2.66-2.75 2.66-2.76 0-2.76 0-2.76-2.66v-.5c0-2.65 0-2.65 2.75-2.65zM728.5-69.17H762v30.74h-33.5v-30.74z" fill="#fff"/><path d="M729.6-68.13h31.14v28.53H729.6v-28.53z" fill="#54bbe7"/><path d="M650.6-50.27h11.64v4.82H650.6v-4.82z" fill="#fff"/><path d="M656.24-47.03c2.75 0 2.75 0 2.75 2.66v.5c0 2.65 0 2.65-2.76 2.65-2.75 0-2.75 0-2.75-2.66v-.5c0-2.65 0-2.65 2.74-2.65zM668.5-50.27h11.6v4.82h-11.6v-4.82z" fill="#fff"/><path d="M674.1-47.03c2.76 0 2.76 0 2.76 2.66v.5c0 2.65 0 2.65-2.75 2.65-2.74 0-2.74 0-2.74-2.66v-.5c0-2.65 0-2.65 2.75-2.65zM687.36-50.27H699v4.82h-11.64v-4.82z" fill="#fff"/><path d="M693-47.03c2.74 0 2.74 0 2.74 2.66v.5c0 2.65 0 2.65-2.75 2.65-2.76 0-2.76 0-2.76-2.66v-.5c0-2.65 0-2.65 2.75-2.65zM705.74-50.27h11.62v4.82h-11.62v-4.82z" fill="#fff"/><path d="M711.36-47.03c2.75 0 2.75 0 2.75 2.66v.5c0 2.65 0 2.65-2.74 2.65-2.75 0-2.75 0-2.75-2.66v-.5c0-2.65 0-2.65 2.76-2.65zM733.1-66.83l-3.1 3.06 3.24 3.02-.13-6.08zM733.1-46.85L730-43.8l3.1 3.03v-6.08zM757-40.73l3.1-3-3.1-3.07v6.07zM757.1-60.62l3.14-3-3.13-3.07v6.08z" fill="#fff"/><path d="M732.86-65.03h4.75v2.43h-4.74v-2.43zM752.86-64.8h4.63v2.43h-4.64v-2.43zM732.86-45.05h4.63v2.43h-4.64v-2.43zM752.74-44.87h4.62v2.43h-4.62v-2.43z" fill="#fff"/><path d="M735.36-63.4l2.13-1.63 17.36 20.97-2.12 1.62-17.38-20.97z" fill="#fff"/><path d="M752.86-64.8l2 1.75-17.37 20.48-2.14-1.76 17.5-20.47z" fill="#fff"/><path d="M745.5-56.2l2 2.47-.4.27-2-2.48.4-.27zM743.24-53.87l2 2.48-.38.28-2-2.48.38-.27z" fill="#54bbe7"/><path d="M905.46-29.53h9v6.97h-9v-6.97z" fill="#29aae1"/><path d="M861.96-92.1h95.2v62.57h-95.2V-92.1z" fill="#29aae1"/><path d="M866.26-88.27h86.9v55.93h-86.9v-55.93z" fill="#fff" fill-opacity=".98"/><path d="M865.66-22.14h86.8l-4.3 14.96h-86.8l4.3-14.96z" fill="#29aae1"/><path d="M865.16-22.65h88.8l7.4 15.47h-88.8l-7.4-15.47z" fill="#29aae1"/><path d="M895.26-11.17h31.6v3.14h-31.6v-3.14zM877.86-20.18h2.3v1.95h-2.3v-1.95zM881.96-20.1h2.4v1.96h-2.4v-1.96zM887.26-16.53h2.4v1.96h-2.4v-1.96zM886.46-20.35h2.3v2.04h-2.3v-2.05zM890.46-20.18h2.4v1.95h-2.4v-1.95zM894.36-20.35h2.4v2.04h-2.4v-2.05zM918.86-20h2.4v2.03h-2.4V-20zM922.46-20h2.4v2.03h-2.4V-20zM925.86-20h2.4v2.03h-2.4V-20zM929.96-20h2.3v2.03h-2.3V-20zM933.66-20h2.3v2.03h-2.3V-20zM929.26-16.7h2.3v1.96h-2.3v-1.96zM937.86-20h2.4v2.03h-2.4V-20zM891.76-16.6h2.3v1.94h-2.3v-1.95zM896.26-16.6h2.3v1.94h-2.3v-1.95zM925.56-16.78h2v1.95h-2v-1.95zM921.46-16.78h2.4v1.95h-2.4v-1.95zM898.76-20.27h2.4v2.04h-2.4v-2.04zM903.26-20.18h2.3v2.04h-2.3v-2.04zM907.36-20.27h2.3v2.04h-2.3v-2.04zM911.86-20.27h2.3v2.04h-2.3v-2.04zM915.56-20.18h2.3v2.04h-2.3v-2.04zM900.26-16.7h2.4v1.96h-2.4v-1.96zM904.76-16.7h2.3v1.96h-2.3v-1.96zM908.86-16.6h2.4v1.94h-2.4v-1.95zM912.96-16.6h2.3v1.94h-2.3v-1.95zM917.16-16.78h2.3v1.95h-2.3v-1.95z" fill="#fff"/><path d="M861.46-7.18l99.9-.34-7.1-15.13-88.5.17-4.3 15.3z" fill="none"/><path d="M904.96-29.53h9.8v.93h-9.8v-.93zM905.36-23.75h9.3v1.1h-9.3v-1.1z" fill="#fff"/><use xlink:href="#g" transform="matrix(1,0,0,1,831.3643366161905,-7.093783024326768) translate(68.525 18.6)"/><path d="M-298.64-72.1h124.88v37.72h-124.88v-37.7z" fill="#29aae1"/><path d="M-292.64-30.06h112.88v2.92h-112.88v-2.92z" fill="#2188b4"/><path d="M-289.64-65.43h11.5v4.86h-11.5v-4.86z" fill="#fff"/><path d="M-284.14-62.15c2.88 0 2.88 0 2.88 2.66v.5c0 2.66 0 2.66-2.88 2.66-2.75 0-2.75 0-2.75-2.66v-.5c0-2.65 0-2.65 2.76-2.65zM-271.76-65.43h11.5v4.86h-11.5v-4.86z" fill="#fff"/><path d="M-266.14-62.15c2.75 0 2.75 0 2.75 2.66v.5c0 2.66 0 2.66-2.74 2.66-2.87 0-2.87 0-2.87-2.66v-.5c0-2.65 0-2.65 2.86-2.65zM-252.9-65.43h11.5v4.86h-11.5v-4.86z" fill="#fff"/><path d="M-247.26-62.15c2.75 0 2.75 0 2.75 2.66v.5c0 2.66 0 2.66-2.76 2.66-2.88 0-2.88 0-2.88-2.66v-.5c0-2.65 0-2.65 2.88-2.65zM-234.64-65.43H-223v4.86h-11.64v-4.86z" fill="#fff"/><path d="M-229-62.15c2.74 0 2.74 0 2.74 2.66v.5c0 2.66 0 2.66-2.75 2.66-2.76 0-2.76 0-2.76-2.66v-.5c0-2.65 0-2.65 2.75-2.65zM-211.5-69.17h33.5v30.74h-33.5v-30.74z" fill="#fff"/><path d="M-210.4-68.13h31.14v28.53h-31.13v-28.53z" fill="#54bbe7"/><path d="M-289.4-50.27h11.64v4.82h-11.63v-4.82z" fill="#fff"/><path d="M-283.76-47.03c2.75 0 2.75 0 2.75 2.66v.5c0 2.65 0 2.65-2.76 2.65-2.75 0-2.75 0-2.75-2.66v-.5c0-2.65 0-2.65 2.74-2.65zM-271.5-50.27h11.6v4.82h-11.6v-4.82z" fill="#fff"/><path d="M-265.9-47.03c2.76 0 2.76 0 2.76 2.66v.5c0 2.65 0 2.65-2.75 2.65-2.74 0-2.74 0-2.74-2.66v-.5c0-2.65 0-2.65 2.75-2.65zM-252.64-50.27H-241v4.82h-11.64v-4.82z" fill="#fff"/><path d="M-247-47.03c2.74 0 2.74 0 2.74 2.66v.5c0 2.65 0 2.65-2.75 2.65-2.76 0-2.76 0-2.76-2.66v-.5c0-2.65 0-2.65 2.75-2.65zM-234.26-50.27h11.62v4.82h-11.62v-4.82z" fill="#fff"/><path d="M-228.64-47.03c2.75 0 2.75 0 2.75 2.66v.5c0 2.65 0 2.65-2.74 2.65-2.75 0-2.75 0-2.75-2.66v-.5c0-2.65 0-2.65 2.76-2.65zM-206.9-66.83l-3.1 3.06 3.24 3.02-.13-6.08zM-206.9-46.85l-3.1 3.06 3.1 3.03v-6.08zM-183-40.73l3.1-3-3.1-3.07v6.07zM-182.9-60.62l3.14-3-3.13-3.07v6.08z" fill="#fff"/><path d="M-207.14-65.03h4.75v2.43h-4.74v-2.43zM-187.14-64.8h4.63v2.43h-4.64v-2.43zM-207.14-45.05h4.63v2.43h-4.64v-2.43zM-187.26-44.87h4.62v2.43h-4.62v-2.43z" fill="#fff"/><path d="M-204.64-63.4l2.13-1.63 17.36 20.97-2.12 1.62-17.38-20.97z" fill="#fff"/><path d="M-187.14-64.8l2 1.75-17.37 20.48-2.14-1.76 17.5-20.47z" fill="#fff"/><path d="M-194.5-56.2l2 2.47-.4.27-2-2.48.4-.27zM-196.76-53.87l2 2.48-.38.28-2-2.48.38-.27z" fill="#54bbe7"/><path d="M641.36 247.9h124.88v37.72H641.36v-37.7z" fill="#29aae1"/><path d="M647.36 289.94h112.88v2.92H647.36v-2.92z" fill="#2188b4"/><path d="M650.36 254.57h11.5v4.86h-11.5v-4.86z" fill="#fff"/><path d="M655.86 257.85c2.88 0 2.88 0 2.88 2.66v.5c0 2.66 0 2.66-2.88 2.66-2.75 0-2.75 0-2.75-2.66v-.5c0-2.65 0-2.65 2.76-2.65zM668.24 254.57h11.5v4.86h-11.5v-4.86z" fill="#fff"/><path d="M673.86 257.85c2.75 0 2.75 0 2.75 2.66v.5c0 2.66 0 2.66-2.74 2.66-2.87 0-2.87 0-2.87-2.66v-.5c0-2.65 0-2.65 2.86-2.65zM687.1 254.57h11.5v4.86h-11.5v-4.86z" fill="#fff"/><path d="M692.74 257.85c2.75 0 2.75 0 2.75 2.66v.5c0 2.66 0 2.66-2.76 2.66-2.88 0-2.88 0-2.88-2.66v-.5c0-2.65 0-2.65 2.88-2.65zM705.36 254.57H717v4.86h-11.64v-4.86z" fill="#fff"/><path d="M711 257.85c2.74 0 2.74 0 2.74 2.66v.5c0 2.66 0 2.66-2.75 2.66-2.76 0-2.76 0-2.76-2.66v-.5c0-2.65 0-2.65 2.75-2.65zM728.5 250.83H762v30.74h-33.5v-30.74z" fill="#fff"/><path d="M729.6 251.87h31.14v28.53H729.6v-28.53z" fill="#54bbe7"/><path d="M650.6 269.73h11.64v4.82H650.6v-4.82z" fill="#fff"/><path d="M656.24 272.97c2.75 0 2.75 0 2.75 2.66v.5c0 2.65 0 2.65-2.76 2.65-2.75 0-2.75 0-2.75-2.66v-.5c0-2.65 0-2.65 2.74-2.65zM668.5 269.73h11.6v4.82h-11.6v-4.82z" fill="#fff"/><path d="M674.1 272.97c2.76 0 2.76 0 2.76 2.66v.5c0 2.65 0 2.65-2.75 2.65-2.74 0-2.74 0-2.74-2.66v-.5c0-2.65 0-2.65 2.75-2.65zM687.36 269.73H699v4.82h-11.64v-4.82z" fill="#fff"/><path d="M693 272.97c2.74 0 2.74 0 2.74 2.66v.5c0 2.65 0 2.65-2.75 2.65-2.76 0-2.76 0-2.76-2.66v-.5c0-2.65 0-2.65 2.75-2.65zM705.74 269.73h11.62v4.82h-11.62v-4.82z" fill="#fff"/><path d="M711.36 272.97c2.75 0 2.75 0 2.75 2.66v.5c0 2.65 0 2.65-2.74 2.65-2.75 0-2.75 0-2.75-2.66v-.5c0-2.65 0-2.65 2.76-2.65zM733.1 253.17l-3.1 3.06 3.24 3.02-.13-6.08zM733.1 273.15l-3.1 3.06 3.1 3.03v-6.08zM757 279.27l3.1-3-3.1-3.07v6.07zM757.1 259.38l3.14-3-3.13-3.07v6.08z" fill="#fff"/><path d="M732.86 254.97h4.75v2.43h-4.74v-2.43zM752.86 255.2h4.63v2.43h-4.64v-2.43zM732.86 274.95h4.63v2.43h-4.64v-2.43zM752.74 275.13h4.62v2.43h-4.62v-2.43z" fill="#fff"/><path d="M735.36 256.6l2.13-1.63 17.36 20.97-2.12 1.62-17.38-20.97z" fill="#fff"/><path d="M752.86 255.2l2 1.75-17.37 20.48-2.14-1.76 17.5-20.47z" fill="#fff"/><path d="M745.5 263.8l2 2.47-.4.27-2-2.48.4-.27zM743.24 266.13l2 2.48-.38.28-2-2.48.38-.27z" fill="#54bbe7"/><use xlink:href="#h" transform="matrix(1,0,0,1,611.3643366161905,292.90621697567326) translate(81.5 18.6)"/><path d="M-485.3-29.53h9v6.97h-9v-6.97z" fill="#29aae1"/><path d="M-528.8-92.1h95.2v62.57h-95.2V-92.1z" fill="#29aae1"/><path d="M-524.5-88.27h86.9v55.93h-86.9v-55.93z" fill="#fff" fill-opacity=".98"/><path d="M-525.1-22.14h86.8l-4.3 14.96h-86.8l4.3-14.96z" fill="#29aae1"/><path d="M-525.6-22.65h88.8l7.4 15.47h-88.8l-7.4-15.47z" fill="#29aae1"/><path d="M-495.5-11.17h31.6v3.14h-31.6v-3.14zM-512.9-20.18h2.3v1.95h-2.3v-1.95zM-508.8-20.1h2.4v1.96h-2.4v-1.96zM-503.5-16.53h2.4v1.96h-2.4v-1.96zM-504.3-20.35h2.3v2.04h-2.3v-2.05zM-500.3-20.18h2.4v1.95h-2.4v-1.95zM-496.4-20.35h2.4v2.04h-2.4v-2.05zM-471.9-20h2.4v2.03h-2.4V-20zM-468.3-20h2.4v2.03h-2.4V-20zM-464.9-20h2.4v2.03h-2.4V-20zM-460.8-20h2.3v2.03h-2.3V-20zM-457.1-20h2.3v2.03h-2.3V-20zM-461.5-16.7h2.3v1.96h-2.3v-1.96zM-452.9-20h2.4v2.03h-2.4V-20zM-499-16.6h2.3v1.94h-2.3v-1.95zM-494.5-16.6h2.3v1.94h-2.3v-1.95zM-465.2-16.78h2v1.95h-2v-1.95zM-469.3-16.78h2.4v1.95h-2.4v-1.95zM-492-20.27h2.4v2.04h-2.4v-2.04zM-487.5-20.18h2.3v2.04h-2.3v-2.04zM-483.4-20.27h2.3v2.04h-2.3v-2.04zM-478.9-20.27h2.3v2.04h-2.3v-2.04zM-475.2-20.18h2.3v2.04h-2.3v-2.04zM-490.5-16.7h2.4v1.96h-2.4v-1.96zM-486-16.7h2.3v1.96h-2.3v-1.96zM-481.9-16.6h2.4v1.94h-2.4v-1.95zM-477.8-16.6h2.3v1.94h-2.3v-1.95zM-473.6-16.78h2.3v1.95h-2.3v-1.95z" fill="#fff"/><path d="M-529.3-7.18l99.9-.34-7.1-15.13-88.5.17-4.3 15.3z" fill="none"/><path d="M-485.8-29.53h9.8v.93h-9.8v-.93zM-485.4-23.75h9.3v1.1h-9.3v-1.1z" fill="#fff"/><use xlink:href="#i" transform="matrix(1,0,0,1,-559.3968798712601,-7.093783024326768) translate(66.025 18.6)"/><use xlink:href="#j" transform="matrix(1,0,0,1,-559.3968798712601,-7.093783024326768) translate(83.97500000000001 18.6)"/><path d="M641.43 758.45H766.3v37.7H641.43v-37.7z" fill="#29aae1"/><path d="M647.43 800.48H760.3v2.93H647.43v-2.92z" fill="#2188b4"/><path d="M650.43 765.1h11.5v4.87h-11.5v-4.86z" fill="#fff"/><path d="M655.93 768.4c2.87 0 2.87 0 2.87 2.65v.5c0 2.65 0 2.65-2.87 2.65-2.75 0-2.75 0-2.75-2.65v-.5c0-2.65 0-2.65 2.75-2.65zM668.3 765.1h11.5v4.87h-11.5v-4.86z" fill="#fff"/><path d="M673.93 768.4c2.75 0 2.75 0 2.75 2.65v.5c0 2.65 0 2.65-2.75 2.65-2.88 0-2.88 0-2.88-2.65v-.5c0-2.65 0-2.65 2.88-2.65zM687.18 765.1h11.5v4.87h-11.5v-4.86z" fill="#fff"/><path d="M692.8 768.4c2.75 0 2.75 0 2.75 2.65v.5c0 2.65 0 2.65-2.75 2.65-2.87 0-2.87 0-2.87-2.65v-.5c0-2.65 0-2.65 2.87-2.65zM705.43 765.1h11.62v4.87h-11.62v-4.86z" fill="#fff"/><path d="M711.05 768.4c2.75 0 2.75 0 2.75 2.65v.5c0 2.65 0 2.65-2.75 2.65s-2.75 0-2.75-2.65v-.5c0-2.65 0-2.65 2.75-2.65zM728.55 761.38h33.5v30.73h-33.5V761.4z" fill="#fff"/><path d="M729.68 762.4h31.12v28.54h-31.12V762.4z" fill="#54bbe7"/><path d="M650.68 780.28h11.62v4.8h-11.62v-4.8z" fill="#fff"/><path d="M656.3 783.52c2.75 0 2.75 0 2.75 2.65v.5c0 2.65 0 2.65-2.75 2.65s-2.75 0-2.75-2.65v-.5c0-2.65 0-2.65 2.75-2.65zM668.55 780.28h11.63v4.8h-11.63v-4.8z" fill="#fff"/><path d="M674.18 783.52c2.75 0 2.75 0 2.75 2.65v.5c0 2.65 0 2.65-2.75 2.65s-2.75 0-2.75-2.65v-.5c0-2.65 0-2.65 2.75-2.65zM687.43 780.28h11.62v4.8h-11.62v-4.8z" fill="#fff"/><path d="M693.05 783.52c2.75 0 2.75 0 2.75 2.65v.5c0 2.65 0 2.65-2.75 2.65s-2.75 0-2.75-2.65v-.5c0-2.65 0-2.65 2.75-2.65zM705.8 780.28h11.63v4.8H705.8v-4.8z" fill="#fff"/><path d="M711.43 783.52c2.75 0 2.75 0 2.75 2.65v.5c0 2.65 0 2.65-2.75 2.65s-2.75 0-2.75-2.65v-.5c0-2.65 0-2.65 2.75-2.65zM733.18 763.72l-3.13 3.06 3.25 3-.12-6.06zM733.18 783.7l-3.13 3.06 3.13 3v-6.06zM757.05 789.82l3.13-3.02-3.13-3.06v6.08zM757.18 769.93l3.12-3.02-3.12-3.05v6.08z" fill="#fff"/><path d="M732.93 765.52h4.75v2.43h-4.75v-2.43zM752.93 765.74h4.62v2.43h-4.62v-2.43zM732.93 785.5h4.62v2.43h-4.62v-2.43zM752.8 785.68h4.63v2.43h-4.63v-2.42z" fill="#fff"/><path d="M735.43 767.14l2.12-1.62 17.38 20.97-2.13 1.6-17.37-20.96z" fill="#fff"/><path d="M752.93 765.74l2 1.76-17.38 20.47-2.12-1.75 17.5-20.48z" fill="#fff"/><path d="M745.55 774.34l2 2.47-.37.28-2-2.47.37-.26zM743.3 776.68l2 2.47-.37.27-2-2.47.37-.27z" fill="#54bbe7"/><use xlink:href="#k" transform="matrix(1,0,0,1,611.4275957255031,803.4541621811529) translate(81.5 18.6)"/><path d="M905.46 801h9V808h-9V801zM861.96 738.45h95.2V801h-95.2v-62.55z" fill="#29aae1"/><path d="M866.26 742.28h86.9v55.93h-86.9V742.3z" fill="#fff" fill-opacity=".98"/><path d="M865.66 808.4h86.8l-4.3 14.97h-86.8l4.3-14.96z" fill="#29aae1"/><path d="M865.16 807.9h88.8l7.4 15.47h-88.8l-7.4-15.47z" fill="#29aae1"/><path d="M895.26 819.37h31.6v3.15h-31.6v-3.15zM877.86 810.36h2.3v1.96h-2.3v-1.96zM881.96 810.45h2.4v1.95h-2.4v-1.95zM887.26 814.02h2.4v1.95h-2.4v-1.95zM886.46 810.2h2.3v2.03h-2.3v-2.04zM890.46 810.36h2.4v1.96h-2.4v-1.96zM894.36 810.2h2.4v2.03h-2.4v-2.04zM918.86 810.53h2.4v2.04h-2.4v-2.04zM922.46 810.53h2.4v2.04h-2.4v-2.04zM925.86 810.53h2.4v2.04h-2.4v-2.04zM929.96 810.53h2.3v2.04h-2.3v-2.04zM933.66 810.53h2.3v2.04h-2.3v-2.04zM929.26 813.85h2.3v1.95h-2.3v-1.95zM937.86 810.53h2.4v2.04h-2.4v-2.04zM891.76 813.93h2.3v1.96h-2.3v-1.97zM896.26 813.93h2.3v1.96h-2.3v-1.97zM925.56 813.76h2v1.96h-2v-1.96zM921.46 813.76h2.4v1.96h-2.4v-1.96zM898.76 810.28h2.4v2.04h-2.4v-2.04zM903.26 810.36h2.3v2.04h-2.3v-2.04zM907.36 810.28h2.3v2.04h-2.3v-2.04zM911.86 810.28h2.3v2.04h-2.3v-2.04zM915.56 810.36h2.3v2.04h-2.3v-2.04zM900.26 813.85h2.4v1.95h-2.4v-1.95zM904.76 813.85h2.3v1.95h-2.3v-1.95zM908.86 813.93h2.4v1.96h-2.4v-1.97zM912.96 813.93h2.3v1.96h-2.3v-1.97zM917.16 813.76h2.3v1.96h-2.3v-1.96z" fill="#fff"/><path d="M861.46 823.37l99.9-.34-7.1-15.13-88.5.17-4.3 15.3z" fill="none"/><path d="M904.96 801h9.8v.95h-9.8V801zM905.36 806.8h9.3v1.1h-9.3v-1.1z" fill="#fff"/><use xlink:href="#l" transform="matrix(1,0,0,1,831.3643366161905,823.4541621811529) translate(68.525 18.6)"/><path d="M672.3 729.36v-433" stroke="#282c33" stroke-width="7" fill="none"/><path d="M672.3 747.13l-4.64-14.27h9.27z" stroke="#282c33" stroke-width="7" fill="#282c33"/><path d="M675.8 296.45h-7v-3.6h7zm0-6.5h-7v-.1h7z" stroke="#282c33" stroke-width=".05" fill="#282c33"/><path d="M-430.1-49.6h127.96" stroke="#282c33" stroke-width="7" fill="none"/><path d="M-430-46.1h-3.6v-7h3.6zM-298.64-46.1h-3.6v-7h3.6z" stroke="#282c33" stroke-width=".05" fill="#282c33"/><path d="M-420.7 775.4h118.56" stroke="#282c33" stroke-width="7" fill="none"/><path d="M-420.6 778.9h-3.6v-7h3.6zM-298.64 778.9h-3.6v-7h3.6z" stroke="#282c33" stroke-width=".05" fill="#282c33"/><path d="M769.8 780.95h88.66" stroke="#282c33" stroke-width="7" fill="none"/><path d="M769.9 784.45h-3.6v-7h3.6zM861.96 784.45h-3.6v-7h3.6z" stroke="#282c33" stroke-width=".05" fill="#282c33"/><path d="M672.3-23.64V218.8" stroke="#282c33" stroke-width="7" fill="none"/><path d="M675.8-23.55h-7v-3.6h7zm0-6.5h-7v-.1h7z" stroke="#282c33" stroke-width=".05" fill="#282c33"/><path d="M672.3 236.58l-4.64-14.27h9.27z" stroke="#282c33" stroke-width="7" fill="#282c33"/><path d="M769.74-49.6h88.72" stroke="#282c33" stroke-width="7" fill="none"/><path d="M769.83-46.1h-3.6v-7h3.6zM861.96-46.1h-3.6v-7h3.6z" stroke="#282c33" stroke-width=".05" fill="#282c33"/><path d="M-170.26-49.6h782.53" stroke="#282c33" stroke-width="7" fill="none"/><path d="M-170.17-46.1h-3.6v-7h3.6z" stroke="#282c33" stroke-width=".05" fill="#282c33"/><path d="M630.04-49.6l-14.27 4.64v-9.27z" stroke="#282c33" stroke-width="7" fill="#282c33"/><path d="M-144.67 780.95h782.6" stroke="#282c33" stroke-width="7" fill="none"/><path d="M-162.43 780.95l14.26-4.63v9.27z" stroke="#282c33" stroke-width="7" fill="#282c33"/><path d="M641.43 784.45h-3.6v-7h3.6z" stroke="#282c33" stroke-width=".05" fill="#282c33"/><path d="M-359.36-75.16h49.7v28.67h-49.7z" fill="#fff" fill-opacity="0"/><use xlink:href="#a" transform="matrix(1,0,0,1,-354.3568545766284,-70.15504725306644) translate(0 12.444444444444441)"/><use xlink:href="#m" transform="matrix(1,0,0,1,-354.3568545766284,-70.15504725306644) translate(31.067901234567895 12.444444444444441)"/><path d="M-162.62-75.16h49.7v28.67h-49.7z" fill="#fff" fill-opacity="0"/><use xlink:href="#a" transform="matrix(1,0,0,1,-157.6243487342005,-70.15504725306644) translate(0 12.444444444444441)"/><use xlink:href="#b" transform="matrix(1,0,0,1,-157.6243487342005,-70.15504725306644) translate(31.067901234567895 12.444444444444441)"/><path d="M-301.85-8.12h49.7v28.66h-49.7z" fill="#fff" fill-opacity="0"/><use xlink:href="#a" transform="matrix(1,0,0,1,-296.8455399270194,-3.1244151386966053) translate(0 12.444444444444441)"/><use xlink:href="#n" transform="matrix(1,0,0,1,-296.8455399270194,-3.1244151386966053) translate(31.067901234567895 12.444444444444441)"/><path d="M-369.65 789.24h49.7v28.67h-49.7z" fill="#fff" fill-opacity="0"/><use xlink:href="#a" transform="matrix(1,0,0,1,-364.6469780334185,794.2395503090066) translate(0 12.444444444444441)"/><use xlink:href="#m" transform="matrix(1,0,0,1,-364.6469780334185,794.2395503090066) translate(31.067901234567895 12.444444444444441)"/><path d="M-309.65 721.84h49.7v28.67h-49.7z" fill="#fff" fill-opacity="0"/><use xlink:href="#a" transform="matrix(1,0,0,1,-304.6469780334185,726.8449527469336) translate(0 12.444444444444441)"/><use xlink:href="#n" transform="matrix(1,0,0,1,-304.6469780334185,726.8449527469336) translate(31.067901234567895 12.444444444444441)"/><path d="M-162.62 789.24h49.7v28.67h-49.7z" fill="#fff" fill-opacity="0"/><use xlink:href="#a" transform="matrix(1,0,0,1,-157.6243487342005,794.2395503090066) translate(0 12.444444444444441)"/><use xlink:href="#b" transform="matrix(1,0,0,1,-157.6243487342005,794.2395503090066) translate(31.067901234567895 12.444444444444441)"/><path d="M780.64 789.24h49.7v28.67h-49.7z" fill="#fff" fill-opacity="0"/><use xlink:href="#a" transform="matrix(1,0,0,1,785.6431454233716,794.2395503090066) translate(0 12.444444444444441)"/><use xlink:href="#m" transform="matrix(1,0,0,1,785.6431454233716,794.2395503090066) translate(31.067901234567895 12.444444444444441)"/><path d="M577.5 789.24h49.7v28.67h-49.7z" fill="#fff" fill-opacity="0"/><use xlink:href="#a" transform="matrix(1,0,0,1,582.5021694844247,794.2395503090066) translate(0 12.444444444444441)"/><use xlink:href="#n" transform="matrix(1,0,0,1,582.5021694844247,794.2395503090066) translate(31.067901234567895 12.444444444444441)"/><path d="M674.64 721.84h49.7v28.67h-49.7z" fill="#fff" fill-opacity="0"/><use xlink:href="#a" transform="matrix(1,0,0,1,679.6431454233716,726.8449527469336) translate(0 12.444444444444441)"/><use xlink:href="#b" transform="matrix(1,0,0,1,679.6431454233716,726.8449527469336) translate(31.067901234567895 12.444444444444441)"/><path d="M679.07 190.84h49.7v28.67h-49.7z" fill="#fff" fill-opacity="0"/><use xlink:href="#a" transform="matrix(1,0,0,1,684.0726574538983,195.84495274693356) translate(0 12.444444444444441)"/><use xlink:href="#m" transform="matrix(1,0,0,1,684.0726574538983,195.84495274693356) translate(31.067901234567895 12.444444444444441)"/><path d="M679 341.18h49.72v28.66h-49.7z" fill="#fff" fill-opacity="0"/><use xlink:href="#a" transform="matrix(1,0,0,1,684.0093983445856,346.17828608026696) translate(0 12.444444444444441)"/><use xlink:href="#n" transform="matrix(1,0,0,1,684.0093983445856,346.17828608026696) translate(31.067901234567895 12.444444444444441)"/><path d="M771.64-78.16h49.7v28.67h-49.7z" fill="#fff" fill-opacity="0"/><use xlink:href="#a" transform="matrix(1,0,0,1,776.6431454233716,-73.15504725306644) translate(0 12.444444444444441)"/><use xlink:href="#m" transform="matrix(1,0,0,1,776.6431454233716,-73.15504725306644) translate(31.067901234567895 12.444444444444441)"/><path d="M577.5-78.16h49.7v28.67h-49.7z" fill="#fff" fill-opacity="0"/><use xlink:href="#a" transform="matrix(1,0,0,1,582.5021694844247,-73.15504725306644) translate(0 12.444444444444441)"/><use xlink:href="#n" transform="matrix(1,0,0,1,582.5021694844247,-73.15504725306644) translate(31.067901234567895 12.444444444444441)"/><path d="M-252.14-109.76h32v31.6h-32z" fill="#fff" fill-opacity="0"/><use xlink:href="#o" transform="matrix(1,0,0,1,-247.13566338380951,-104.75504725306644) translate(0 14.4)"/><path d="M685.35-102.16h32v31.6h-32z" fill="#fff" fill-opacity="0"/><use xlink:href="#p" transform="matrix(1,0,0,1,690.3530219665814,-97.15504725306644) translate(0 14.4)"/><path d="M-274.42 293.53h124.87v37.7h-124.87v-37.7z" fill="#29aae1"/><path d="M-268.42 335.56h112.87v2.93h-112.87v-2.94z" fill="#2188b4"/><path d="M-265.42 300.2h11.5v4.85h-11.5v-4.86z" fill="#fff"/><path d="M-259.92 303.48c2.87 0 2.87 0 2.87 2.65v.5c0 2.65 0 2.65-2.87 2.65-2.75 0-2.75 0-2.75-2.65v-.5c0-2.65 0-2.65 2.75-2.65zM-247.55 300.2h11.5v4.85h-11.5v-4.86z" fill="#fff"/><path d="M-241.92 303.48c2.75 0 2.75 0 2.75 2.65v.5c0 2.65 0 2.65-2.75 2.65-2.88 0-2.88 0-2.88-2.65v-.5c0-2.65 0-2.65 2.88-2.65zM-228.67 300.2h11.5v4.85h-11.5v-4.86z" fill="#fff"/><path d="M-223.05 303.48c2.75 0 2.75 0 2.75 2.65v.5c0 2.65 0 2.65-2.75 2.65-2.87 0-2.87 0-2.87-2.65v-.5c0-2.65 0-2.65 2.87-2.65zM-210.42 300.2h11.62v4.85h-11.62v-4.86z" fill="#fff"/><path d="M-204.8 303.48c2.75 0 2.75 0 2.75 2.65v.5c0 2.65 0 2.65-2.75 2.65s-2.75 0-2.75-2.65v-.5c0-2.65 0-2.65 2.75-2.65zM-187.3 296.46h33.5v30.73h-33.5v-30.74z" fill="#fff"/><path d="M-186.17 297.5h31.12V326h-31.12V297.5z" fill="#54bbe7"/><path d="M-265.17 315.36h11.62v4.8h-11.62v-4.8z" fill="#fff"/><path d="M-259.55 318.6c2.75 0 2.75 0 2.75 2.65v.5c0 2.65 0 2.65-2.75 2.65s-2.75 0-2.75-2.65v-.5c0-2.65 0-2.65 2.75-2.65zM-247.3 315.36h11.63v4.8h-11.63v-4.8z" fill="#fff"/><path d="M-241.67 318.6c2.75 0 2.75 0 2.75 2.65v.5c0 2.65 0 2.65-2.75 2.65s-2.75 0-2.75-2.65v-.5c0-2.65 0-2.65 2.75-2.65zM-228.42 315.36h11.62v4.8h-11.62v-4.8z" fill="#fff"/><path d="M-222.8 318.6c2.75 0 2.75 0 2.75 2.65v.5c0 2.65 0 2.65-2.75 2.65s-2.75 0-2.75-2.65v-.5c0-2.65 0-2.65 2.75-2.65zM-210.05 315.36h11.63v4.8h-11.63v-4.8z" fill="#fff"/><path d="M-204.42 318.6c2.75 0 2.75 0 2.75 2.65v.5c0 2.65 0 2.65-2.75 2.65s-2.75 0-2.75-2.65v-.5c0-2.65 0-2.65 2.75-2.65zM-182.67 298.8l-3.13 3.06 3.25 3-.12-6.06zM-182.67 318.78l-3.13 3.06 3.13 3v-6.06zM-158.8 324.9l3.13-3.02-3.13-3.06v6.08zM-158.67 305l3.12-3-3.12-3.07V305z" fill="#fff"/><path d="M-182.92 300.6h4.75v2.43h-4.75v-2.43zM-162.92 300.82h4.62v2.43h-4.62v-2.43zM-182.92 320.58h4.62V323h-4.62v-2.42zM-163.05 320.76h4.63v2.43h-4.63v-2.44z" fill="#fff"/><path d="M-180.42 302.22l2.12-1.62 17.38 20.97-2.13 1.62-17.37-20.98z" fill="#fff"/><path d="M-162.92 300.82l2 1.76-17.38 20.47-2.12-1.75 17.5-20.48z" fill="#fff"/><path d="M-170.3 309.42l2 2.47-.37.26-2-2.47.37-.28zM-172.55 311.76l2 2.47-.37.27-2-2.47.37-.27z" fill="#54bbe7"/><use xlink:href="#q" transform="matrix(1,0,0,1,-304.42465484281524,338.5305842604693) translate(79 18.6)"/><use xlink:href="#r" transform="matrix(1,0,0,1,-304.42465484281524,338.5305842604693) translate(96 18.6)"/><path d="M-485.3 336.1h9v6.96h-9v-6.97zM-528.8 273.53h95.2v62.56h-95.2v-62.57z" fill="#29aae1"/><path d="M-524.5 277.36h86.9v55.93h-86.9v-55.94z" fill="#fff" fill-opacity=".98"/><path d="M-525.1 343.5h86.8l-4.3 14.95h-86.8l4.3-14.96z" fill="#29aae1"/><path d="M-525.6 342.98h88.8l7.4 15.47h-88.8l-7.4-15.47z" fill="#29aae1"/><path d="M-495.5 354.45h31.6v3.15h-31.6v-3.15zM-512.9 345.44h2.3v1.96h-2.3v-1.96zM-508.8 345.53h2.4v1.95h-2.4v-1.95zM-503.5 349.1h2.4v1.95h-2.4v-1.95zM-504.3 345.27h2.3v2.04h-2.3v-2.03zM-500.3 345.44h2.4v1.96h-2.4v-1.96zM-496.4 345.27h2.4v2.04h-2.4v-2.03zM-471.9 345.6h2.4v2.05h-2.4v-2.04zM-468.3 345.6h2.4v2.05h-2.4v-2.04zM-464.9 345.6h2.4v2.05h-2.4v-2.04zM-460.8 345.6h2.3v2.05h-2.3v-2.04zM-457.1 345.6h2.3v2.05h-2.3v-2.04zM-461.5 348.93h2.3v1.95h-2.3v-1.95zM-452.9 345.6h2.4v2.05h-2.4v-2.04zM-499 349h2.3v1.97h-2.3V349zM-494.5 349h2.3v1.97h-2.3V349zM-465.2 348.84h2v1.96h-2v-1.96zM-469.3 348.84h2.4v1.96h-2.4v-1.96zM-492 345.36h2.4v2.04h-2.4v-2.04zM-487.5 345.44h2.3v2.04h-2.3v-2.04zM-483.4 345.36h2.3v2.04h-2.3v-2.04zM-478.9 345.36h2.3v2.04h-2.3v-2.04zM-475.2 345.44h2.3v2.04h-2.3v-2.04zM-490.5 348.93h2.4v1.95h-2.4v-1.95zM-486 348.93h2.3v1.95h-2.3v-1.95zM-481.9 349h2.4v1.97h-2.4V349zM-477.8 349h2.3v1.97h-2.3V349zM-473.6 348.84h2.3v1.96h-2.3v-1.96z" fill="#fff"/><path d="M-529.3 358.45l99.9-.34-7.1-15.12-88.5.17-4.3 15.3z" fill="none"/><path d="M-485.8 336.1h9.8v.93h-9.8v-.94zM-485.4 341.87h9.3v1.1h-9.3v-1.1z" fill="#fff"/><g><use xlink:href="#i" transform="matrix(1,0,0,1,-559.3968798712601,358.5305842604693) translate(66.025 18.6)"/><use xlink:href="#r" transform="matrix(1,0,0,1,-559.3968798712601,358.5305842604693) translate(83.97500000000001 18.6)"/></g><path d="M-430.1 316.03h152.18" stroke="#282c33" stroke-width="7" fill="none"/><path d="M-430 319.53h-3.6v-7h3.6zM-274.42 319.53h-3.6v-7h3.6z" stroke="#282c33" stroke-width=".05" fill="#282c33"/><path d="M-243.55 290.03V1.95" stroke="#282c33" stroke-width="7" fill="none"/><path d="M-240.05 293.53h-7v-3.6h7z" stroke="#282c33" stroke-width=".05" fill="#282c33"/><path d="M-243.55-15.8l4.63 14.25h-9.27z" stroke="#282c33" stroke-width="7" fill="#282c33"/><path d="M-243.5 367.58v387.37" stroke="#282c33" stroke-width="7" fill="none"/><path d="M-243.5 349.8l4.64 14.28h-9.27z" stroke="#282c33" stroke-width="7" fill="#282c33"/><path d="M-240 758.45h-7v-3.6h7z" stroke="#282c33" stroke-width=".05" fill="#282c33"/><path d="M-429.4 279.53a6 6 0 0 1 6-6h228a6 6 0 0 1 6 6v48a6 6 0 0 1-6 6h-228a6 6 0 0 1-6-6z" stroke="#000" stroke-opacity="0" stroke-width="2" fill="#fff" fill-opacity="0"/><g><use xlink:href="#a" transform="matrix(1,0,0,1,-424.3968798712601,278.53058426046925) translate(95.14506172839506 28.069444444444443)"/><use xlink:href="#m" transform="matrix(1,0,0,1,-424.3968798712601,278.53058426046925) translate(126.21296296296296 28.069444444444443)"/></g><path d="M-236.78 257.47h49.7v28.67h-49.7z" fill="#fff" fill-opacity="0"/><g><use xlink:href="#a" transform="matrix(1,0,0,1,-231.7795931144201,262.4693200317296) translate(0 12.444444444444441)"/><use xlink:href="#n" transform="matrix(1,0,0,1,-231.7795931144201,262.4693200317296) translate(31.067901234567895 12.444444444444441)"/></g><path d="M-236.78 377.47h49.7v47.33h-49.7z" fill="#fff" fill-opacity="0"/><g><use xlink:href="#a" transform="matrix(1,0,0,1,-231.7795931144201,382.46932003172964) translate(0 12.444444444444441)"/><use xlink:href="#b" transform="matrix(1,0,0,1,-231.7795931144201,382.46932003172964) translate(31.067901234567895 12.444444444444441)"/></g><defs><path fill="#333" d="M115-194c55 1 70 41 70 98S169 2 115 4C84 4 66-9 55-30l1 105H24l-1-265h31l2 30c10-21 28-34 59-34zm-8 174c40 0 45-34 45-75s-6-73-45-74c-42 0-51 32-51 76 0 43 10 73 51 73" id="s"/><path fill="#333" d="M100-194c62-1 85 37 85 99 1 63-27 99-86 99S16-35 15-95c0-66 28-99 85-99zM99-20c44 1 53-31 53-75 0-43-8-75-51-75s-53 32-53 75 10 74 51 75" id="t"/><path fill="#333" d="M114-163C36-179 61-72 57 0H25l-1-190h30c1 12-1 29 2 39 6-27 23-49 58-41v29" id="u"/><path fill="#333" d="M59-47c-2 24 18 29 38 22v24C64 9 27 4 27-40v-127H5v-23h24l9-43h21v43h35v23H59v120" id="v"/><g id="a"><use transform="matrix(0.04320987654320986,0,0,0.04320987654320986,0,0)" xlink:href="#s"/><use transform="matrix(0.04320987654320986,0,0,0.04320987654320986,8.641975308641973,0)" xlink:href="#t"/><use transform="matrix(0.04320987654320986,0,0,0.04320987654320986,17.283950617283946,0)" xlink:href="#u"/><use transform="matrix(0.04320987654320986,0,0,0.04320987654320986,22.425925925925924,0)" xlink:href="#v"/></g><path fill="#333" d="M126-127c33 6 58 20 58 59 0 88-139 92-164 29-3-8-5-16-6-25l32-3c6 27 21 44 54 44 32 0 52-15 52-46 0-38-36-46-79-43v-28c39 1 72-4 72-42 0-27-17-43-46-43-28 0-47 15-49 41l-32-3c6-42 35-63 81-64 48-1 79 21 79 65 0 36-21 52-52 59" id="w"/><use transform="matrix(0.04320987654320986,0,0,0.04320987654320986,0,0)" xlink:href="#w" id="b"/><path fill="#333" d="M233-177c-1 41-23 64-60 70L243 0h-38l-65-103H63V0H30v-248c88 3 205-21 203 71zM63-129c60-2 137 13 137-47 0-61-80-42-137-45v92" id="x"/><path fill="#333" d="M33 0v-248h34V0H33" id="y"/><path fill="#333" d="M190 0L58-211 59 0H30v-248h39L202-35l-2-213h31V0h-41" id="z"/><path fill="#333" d="M143 4C61 4 22-44 18-125c-5-107 100-154 193-111 17 8 29 25 37 43l-32 9c-13-25-37-40-76-40-61 0-88 39-88 99 0 61 29 100 91 101 35 0 62-11 79-27v-45h-74v-28h105v86C228-13 192 4 143 4" id="A"/><g id="c"><use transform="matrix(0.19197530864197512,0,0,0.19197530864197512,0,0)" xlink:href="#x"/><use transform="matrix(0.19197530864197512,0,0,0.19197530864197512,49.721604938271554,0)" xlink:href="#y"/><use transform="matrix(0.19197530864197512,0,0,0.19197530864197512,68.91913580246907,0)" xlink:href="#z"/><use transform="matrix(0.19197530864197512,0,0,0.19197530864197512,118.64074074074063,0)" xlink:href="#A"/></g><path fill="#333" d="M127-220V0H93v-220H8v-28h204v28h-85" id="B"/><path fill="#333" d="M140-251c81 0 123 46 123 126C263-46 219 4 140 4 59 4 17-45 17-125s42-126 123-126zm0 227c63 0 89-41 89-101s-29-99-89-99c-61 0-89 39-89 99S79-25 140-24" id="C"/><path fill="#333" d="M30-248c87 1 191-15 191 75 0 78-77 80-158 76V0H30v-248zm33 125c57 0 124 11 124-50 0-59-68-47-124-48v98" id="D"/><path fill="#333" d="M30 0v-248h33v221h125V0H30" id="E"/><path fill="#333" d="M137-103V0h-34v-103L8-248h37l75 118 75-118h37" id="F"/><g id="d"><use transform="matrix(0.19197530864197512,0,0,0.19197530864197512,0,0)" xlink:href="#B"/><use transform="matrix(0.19197530864197512,0,0,0.19197530864197512,40.69876543209873,0)" xlink:href="#C"/><use transform="matrix(0.19197530864197512,0,0,0.19197530864197512,94.45185185185176,0)" xlink:href="#D"/><use transform="matrix(0.19197530864197512,0,0,0.19197530864197512,140.52592592592578,0)" xlink:href="#C"/><use transform="matrix(0.19197530864197512,0,0,0.19197530864197512,194.2790123456788,0)" xlink:href="#E"/><use transform="matrix(0.19197530864197512,0,0,0.19197530864197512,232.67407407407384,0)" xlink:href="#C"/><use transform="matrix(0.19197530864197512,0,0,0.19197530864197512,286.4271604938269,0)" xlink:href="#A"/><use transform="matrix(0.19197530864197512,0,0,0.19197530864197512,340.18024691357994,0)" xlink:href="#F"/></g><path fill="#333" d="M185-189c-5-48-123-54-124 2 14 75 158 14 163 119 3 78-121 87-175 55-17-10-28-26-33-46l33-7c5 56 141 63 141-1 0-78-155-14-162-118-5-82 145-84 179-34 5 7 8 16 11 25" id="G"/><g id="e"><use transform="matrix(0.05,0,0,0.05,0,0)" xlink:href="#G"/><use transform="matrix(0.05,0,0,0.05,12,0)" xlink:href="#w"/></g><path fill="#333" d="M197 0v-115H63V0H30v-248h33v105h134v-105h34V0h-34" id="H"/><g id="f"><use transform="matrix(0.05,0,0,0.05,0,0)" xlink:href="#H"/><use transform="matrix(0.05,0,0,0.05,12.950000000000001,0)" xlink:href="#w"/></g><path fill="#333" d="M155-56V0h-30v-56H8v-25l114-167h33v167h35v25h-35zm-30-156c-27 46-58 90-88 131h88v-131" id="I"/><g id="g"><use transform="matrix(0.05,0,0,0.05,0,0)" xlink:href="#H"/><use transform="matrix(0.05,0,0,0.05,12.950000000000001,0)" xlink:href="#I"/></g><path fill="#333" d="M134-131c28 9 52 24 51 62-1 50-34 73-85 73S17-19 16-69c0-36 21-54 49-61-75-25-45-126 34-121 46 3 78 18 79 63 0 33-17 51-44 57zm-34-11c31 1 46-15 46-44 0-28-17-43-47-42-29 0-46 13-45 42 1 28 16 44 46 44zm1 122c35 0 51-18 51-52 0-30-18-46-53-46-33 0-51 17-51 47 0 34 19 51 53 51" id="J"/><g id="h"><use transform="matrix(0.05,0,0,0.05,0,0)" xlink:href="#G"/><use transform="matrix(0.05,0,0,0.05,12,0)" xlink:href="#J"/></g><use transform="matrix(0.05,0,0,0.05,0,0)" xlink:href="#H" id="i"/><path fill="#333" d="M101-251c82-7 93 87 43 132L82-64C71-53 59-42 53-27h129V0H18c2-99 128-94 128-182 0-28-16-43-45-43s-46 15-49 41l-32-3c6-41 34-60 81-64" id="K"/><use transform="matrix(0.05,0,0,0.05,0,0)" xlink:href="#K" id="j"/><path fill="#333" d="M54-142c48-35 137-8 131 61C196 18 31 33 14-55l32-4c7 23 22 37 52 37 35-1 51-22 54-58 4-55-73-65-99-34H22l8-134h141v27H59" id="L"/><g id="k"><use transform="matrix(0.05,0,0,0.05,0,0)" xlink:href="#G"/><use transform="matrix(0.05,0,0,0.05,12,0)" xlink:href="#L"/></g><g id="l"><use transform="matrix(0.05,0,0,0.05,0,0)" xlink:href="#H"/><use transform="matrix(0.05,0,0,0.05,12.950000000000001,0)" xlink:href="#L"/></g><path fill="#333" d="M27 0v-27h64v-190l-56 39v-29l58-41h29v221h61V0H27" id="M"/><use transform="matrix(0.04320987654320986,0,0,0.04320987654320986,0,0)" xlink:href="#M" id="m"/><use transform="matrix(0.04320987654320986,0,0,0.04320987654320986,0,0)" xlink:href="#K" id="n"/><g id="o"><use transform="matrix(0.05,0,0,0.05,0,0)" xlink:href="#G"/><use transform="matrix(0.05,0,0,0.05,12,0)" xlink:href="#K"/></g><g id="p"><use transform="matrix(0.05,0,0,0.05,0,0)" xlink:href="#G"/><use transform="matrix(0.05,0,0,0.05,12,0)" xlink:href="#I"/></g><use transform="matrix(0.05,0,0,0.05,0,0)" xlink:href="#G" id="q"/><use transform="matrix(0.05,0,0,0.05,0,0)" xlink:href="#M" id="r"/></defs></g></svg>