<svg xmlns="http://www.w3.org/2000/svg" xmlns:xlink="http://www.w3.org/1999/xlink" xmlns:lucid="lucid" width="2169.97" height="997.74"><g transform="translate(916.6078884122544 180)" lucid:page-tab-id="0_0"><path d="M-1806.87-1258.83h3677.74v2581.66h-3677.74z" fill="#fff"/><path d="M493.35-60h240V0h-240z" fill="none"/><use xlink:href="#a" transform="matrix(1,0,0,1,493.3530219665814,-60) translate(100.14506172839506 33.111111111111114)"/><use xlink:href="#b" transform="matrix(1,0,0,1,493.3530219665814,-60) translate(131.21296296296296 33.111111111111114)"/><path d="M-556.6-160h849.24V23.87H-556.6z" fill="none"/><use xlink:href="#c" transform="matrix(1,0,0,1,-556.6078884122544,-160) translate(132.90956790123482 105.82222222222221)"/><use xlink:href="#d" transform="matrix(1,0,0,1,-556.6078884122544,-160) translate(330.83611111111117 105.82222222222221)"/><path d="M-641.64 201h124.88v37.7h-124.88V201z" fill="#29aae1"/><path d="M-635.64 243.02h112.88v2.92h-112.88v-2.92z" fill="#2188b4"/><path d="M-632.64 207.65h11.5v4.86h-11.5v-4.85z" fill="#fff"/><path d="M-627.14 210.93c2.88 0 2.88 0 2.88 2.66v.48c0 2.66 0 2.66-2.88 2.66-2.75 0-2.75 0-2.75-2.66v-.5c0-2.65 0-2.65 2.76-2.65zM-614.76 207.65h11.5v4.86h-11.5v-4.85z" fill="#fff"/><path d="M-609.14 210.93c2.75 0 2.75 0 2.75 2.66v.48c0 2.66 0 2.66-2.74 2.66-2.87 0-2.87 0-2.87-2.66v-.5c0-2.65 0-2.65 2.86-2.65zM-595.9 207.65h11.5v4.86h-11.5v-4.85z" fill="#fff"/><path d="M-590.26 210.93c2.75 0 2.75 0 2.75 2.66v.48c0 2.66 0 2.66-2.76 2.66-2.88 0-2.88 0-2.88-2.66v-.5c0-2.65 0-2.65 2.88-2.65zM-577.64 207.65H-566v4.86h-11.64v-4.85z" fill="#fff"/><path d="M-572 210.93c2.74 0 2.74 0 2.74 2.66v.48c0 2.66 0 2.66-2.75 2.66-2.76 0-2.76 0-2.76-2.66v-.5c0-2.65 0-2.65 2.75-2.65zM-554.5 203.9h33.5v30.75h-33.5V203.9z" fill="#fff"/><path d="M-553.4 204.95h31.14v28.53h-31.13v-28.53z" fill="#54bbe7"/><path d="M-632.4 222.8h11.64v4.83h-11.63v-4.82z" fill="#fff"/><path d="M-626.76 226.05c2.75 0 2.75 0 2.75 2.66v.5c0 2.66 0 2.66-2.76 2.66-2.75 0-2.75 0-2.75-2.66v-.5c0-2.65 0-2.65 2.74-2.65zM-614.5 222.8h11.6v4.83h-11.6v-4.82z" fill="#fff"/><path d="M-608.9 226.05c2.76 0 2.76 0 2.76 2.66v.5c0 2.66 0 2.66-2.75 2.66-2.74 0-2.74 0-2.74-2.66v-.5c0-2.65 0-2.65 2.75-2.65zM-595.64 222.8H-584v4.83h-11.64v-4.82z" fill="#fff"/><path d="M-590 226.05c2.74 0 2.74 0 2.74 2.66v.5c0 2.66 0 2.66-2.75 2.66-2.76 0-2.76 0-2.76-2.66v-.5c0-2.65 0-2.65 2.75-2.65zM-577.26 222.8h11.62v4.83h-11.62v-4.82z" fill="#fff"/><path d="M-571.64 226.05c2.75 0 2.75 0 2.75 2.66v.5c0 2.66 0 2.66-2.74 2.66-2.75 0-2.75 0-2.75-2.66v-.5c0-2.65 0-2.65 2.76-2.65zM-549.9 206.25l-3.1 3.06 3.24 3.03-.13-6.08zM-549.9 226.23l-3.1 3.06 3.1 3v-6.07zM-526 232.35l3.1-3-3.1-3.07v6.07zM-525.9 212.46l3.14-3-3.13-3.07v6.06z" fill="#fff"/><path d="M-550.14 208.05h4.75v2.43h-4.74v-2.43zM-530.14 208.28h4.63v2.43h-4.64v-2.42zM-550.14 228.03h4.63v2.43h-4.64v-2.43zM-530.26 228.2h4.62v2.44h-4.62v-2.43z" fill="#fff"/><path d="M-547.64 209.67l2.13-1.62 17.36 20.97-2.12 1.62-17.38-20.97z" fill="#fff"/><path d="M-530.14 208.28l2 1.75-17.37 20.48-2.14-1.75 17.5-20.47z" fill="#fff"/><path d="M-537.5 216.87l2 2.48-.4.27-2-2.48.4-.27zM-539.76 219.2l2 2.5-.38.26-2-2.48.38-.27z" fill="#54bbe7"/><use xlink:href="#e" transform="matrix(1,0,0,1,-671.6356633838095,245.98999284496333) translate(79 18.6)"/><use xlink:href="#f" transform="matrix(1,0,0,1,-671.6356633838095,245.98999284496333) translate(96 18.6)"/><path d="M-852.5 243.55h9v6.97h-9v-6.97zM-896 181h95.2v62.55H-896V181z" fill="#29aae1"/><path d="M-891.7 184.8h86.9v55.94h-86.9V184.8z" fill="#fff" fill-opacity=".98"/><path d="M-892.3 250.94h86.8l-4.3 14.96h-86.8l4.3-14.96z" fill="#29aae1"/><path d="M-892.8 250.43h88.8l7.4 15.47h-88.8l-7.4-15.47z" fill="#29aae1"/><path d="M-862.7 261.9h31.6v3.15h-31.6v-3.14zM-880.1 252.9h2.3v1.95h-2.3v-1.95zM-876 252.98h2.4v1.96h-2.4v-1.96zM-870.7 256.55h2.4v1.96h-2.4v-1.95zM-871.5 252.73h2.3v2.04h-2.3v-2.04zM-867.5 252.9h2.4v1.95h-2.4v-1.95zM-863.6 252.73h2.4v2.04h-2.4v-2.04zM-839.1 253.07h2.4v2.04h-2.4v-2.03zM-835.5 253.07h2.4v2.04h-2.4v-2.03zM-832.1 253.07h2.4v2.04h-2.4v-2.03zM-828 253.07h2.3v2.04h-2.3v-2.03zM-824.3 253.07h2.3v2.04h-2.3v-2.03zM-828.7 256.38h2.3v1.96h-2.3v-1.96zM-820.1 253.07h2.4v2.04h-2.4v-2.03zM-866.2 256.47h2.3v1.95h-2.3v-1.95zM-861.7 256.47h2.3v1.95h-2.3v-1.95zM-832.4 256.3h2v1.95h-2v-1.95zM-836.5 256.3h2.4v1.95h-2.4v-1.95zM-859.2 252.8h2.4v2.05h-2.4v-2.04zM-854.7 252.9h2.3v2.04h-2.3v-2.04zM-850.6 252.8h2.3v2.05h-2.3v-2.04zM-846.1 252.8h2.3v2.05h-2.3v-2.04zM-842.4 252.9h2.3v2.04h-2.3v-2.04zM-857.7 256.38h2.4v1.96h-2.4v-1.96zM-853.2 256.38h2.3v1.96h-2.3v-1.96zM-849.1 256.47h2.4v1.95h-2.4v-1.95zM-845 256.47h2.3v1.95h-2.3v-1.95zM-840.8 256.3h2.3v1.95h-2.3v-1.95z" fill="#fff"/><path d="M-896.5 265.9l99.9-.34-7.1-15.13-88.5.17-4.3 15.3z" fill="none"/><path d="M-853 243.55h9.8v.93h-9.8v-.93zM-852.6 249.33h9.3v1.1h-9.3v-1.1z" fill="#fff"/><use xlink:href="#g" transform="matrix(1,0,0,1,-926.6078884122544,265.98999284496335) translate(66.025 18.6)"/><use xlink:href="#f" transform="matrix(1,0,0,1,-926.6078884122544,265.98999284496335) translate(83.97500000000001 18.6)"/><path d="M-797.3 223.5h152.16" stroke="#282c33" stroke-width="7" fill="none"/><path d="M-797.22 227h-3.6v-7h3.6zM-641.64 227h-3.6v-7h3.6z" stroke="#282c33" stroke-width=".05" fill="#282c33"/><path d="M553.36-119h124.88v37.7H553.36V-119z" fill="#29aae1"/><path d="M559.36-76.98h112.88v2.92H559.36v-2.92z" fill="#2188b4"/><path d="M562.36-112.35h11.5v4.86h-11.5v-4.85z" fill="#fff"/><path d="M567.86-109.07c2.88 0 2.88 0 2.88 2.66v.48c0 2.66 0 2.66-2.88 2.66-2.75 0-2.75 0-2.75-2.66v-.5c0-2.65 0-2.65 2.76-2.65zM580.24-112.35h11.5v4.86h-11.5v-4.85z" fill="#fff"/><path d="M585.86-109.07c2.75 0 2.75 0 2.75 2.66v.48c0 2.66 0 2.66-2.74 2.66-2.87 0-2.87 0-2.87-2.66v-.5c0-2.65 0-2.65 2.86-2.65zM599.1-112.35h11.5v4.86h-11.5v-4.85z" fill="#fff"/><path d="M604.74-109.07c2.75 0 2.75 0 2.75 2.66v.48c0 2.66 0 2.66-2.76 2.66-2.88 0-2.88 0-2.88-2.66v-.5c0-2.65 0-2.65 2.88-2.65zM617.36-112.35H629v4.86h-11.64v-4.85z" fill="#fff"/><path d="M623-109.07c2.74 0 2.74 0 2.74 2.66v.48c0 2.66 0 2.66-2.75 2.66-2.76 0-2.76 0-2.76-2.66v-.5c0-2.65 0-2.65 2.75-2.65zM640.5-116.1H674v30.75h-33.5v-30.74z" fill="#fff"/><path d="M641.6-115.05h31.14v28.53H641.6v-28.53z" fill="#54bbe7"/><path d="M562.6-97.2h11.64v4.83H562.6v-4.82z" fill="#fff"/><path d="M568.24-93.95c2.75 0 2.75 0 2.75 2.66v.5c0 2.66 0 2.66-2.76 2.66-2.75 0-2.75 0-2.75-2.66v-.5c0-2.65 0-2.65 2.74-2.65zM580.5-97.2h11.6v4.83h-11.6v-4.82z" fill="#fff"/><path d="M586.1-93.95c2.76 0 2.76 0 2.76 2.66v.5c0 2.66 0 2.66-2.75 2.66-2.74 0-2.74 0-2.74-2.66v-.5c0-2.65 0-2.65 2.75-2.65zM599.36-97.2H611v4.83h-11.64v-4.82z" fill="#fff"/><path d="M605-93.95c2.74 0 2.74 0 2.74 2.66v.5c0 2.66 0 2.66-2.75 2.66-2.76 0-2.76 0-2.76-2.66v-.5c0-2.65 0-2.65 2.75-2.65zM617.74-97.2h11.62v4.83h-11.62v-4.82z" fill="#fff"/><path d="M623.36-93.95c2.75 0 2.75 0 2.75 2.66v.5c0 2.66 0 2.66-2.74 2.66-2.75 0-2.75 0-2.75-2.66v-.5c0-2.65 0-2.65 2.76-2.65zM645.1-113.75l-3.1 3.06 3.24 3.03-.13-6.08zM645.1-93.77L642-90.7l3.1 3v-6.07zM669-87.65l3.1-3-3.1-3.07v6.07zM669.1-107.54l3.14-3-3.13-3.07v6.06z" fill="#fff"/><path d="M644.86-111.95h4.75v2.43h-4.74v-2.43zM664.86-111.72h4.63v2.43h-4.64v-2.42zM644.86-91.97h4.63v2.43h-4.64v-2.43zM664.74-91.8h4.62v2.44h-4.62v-2.43z" fill="#fff"/><path d="M647.36-110.33l2.13-1.62 17.36 20.97-2.12 1.62-17.38-20.97z" fill="#fff"/><path d="M664.86-111.72l2 1.75L649.5-89.5l-2.14-1.75 17.5-20.47z" fill="#fff"/><path d="M657.5-103.13l2 2.48-.4.27-2-2.48.4-.27zM655.24-100.8l2 2.5-.38.26-2-2.48.38-.27z" fill="#54bbe7"/><path d="M817.46-76.45h9v6.97h-9v-6.97zM773.96-139h95.2v62.55h-95.2V-139z" fill="#29aae1"/><path d="M778.26-135.2h86.9v55.94h-86.9v-55.93z" fill="#fff" fill-opacity=".98"/><path d="M777.66-69.06h86.8l-4.3 14.96h-86.8l4.3-14.96z" fill="#29aae1"/><path d="M777.16-69.57h88.8l7.4 15.47h-88.8l-7.4-15.47z" fill="#29aae1"/><path d="M807.26-58.1h31.6v3.15h-31.6v-3.14zM789.86-67.1h2.3v1.95h-2.3v-1.95zM793.96-67.02h2.4v1.96h-2.4v-1.96zM799.26-63.45h2.4v1.96h-2.4v-1.95zM798.46-67.27h2.3v2.04h-2.3v-2.04zM802.46-67.1h2.4v1.95h-2.4v-1.95zM806.36-67.27h2.4v2.04h-2.4v-2.04zM830.86-66.93h2.4v2.04h-2.4v-2.03zM834.46-66.93h2.4v2.04h-2.4v-2.03zM837.86-66.93h2.4v2.04h-2.4v-2.03zM841.96-66.93h2.3v2.04h-2.3v-2.03zM845.66-66.93h2.3v2.04h-2.3v-2.03zM841.26-63.62h2.3v1.96h-2.3v-1.96zM849.86-66.93h2.4v2.04h-2.4v-2.03zM803.76-63.53h2.3v1.95h-2.3v-1.95zM808.26-63.53h2.3v1.95h-2.3v-1.95zM837.56-63.7h2v1.95h-2v-1.95zM833.46-63.7h2.4v1.95h-2.4v-1.95zM810.76-67.2h2.4v2.05h-2.4v-2.04zM815.26-67.1h2.3v2.04h-2.3v-2.04zM819.36-67.2h2.3v2.05h-2.3v-2.04zM823.86-67.2h2.3v2.05h-2.3v-2.04zM827.56-67.1h2.3v2.04h-2.3v-2.04zM812.26-63.62h2.4v1.96h-2.4v-1.96zM816.76-63.62h2.3v1.96h-2.3v-1.96zM820.86-63.53h2.4v1.95h-2.4v-1.95zM824.96-63.53h2.3v1.95h-2.3v-1.95zM829.16-63.7h2.3v1.95h-2.3v-1.95z" fill="#fff"/><path d="M773.46-54.1l99.9-.34-7.1-15.13-88.5.17-4.3 15.3z" fill="none"/><path d="M816.96-76.45h9.8v.93h-9.8v-.93zM817.36-70.67h9.3v1.1h-9.3v-1.1z" fill="#fff"/><use xlink:href="#h" transform="matrix(1,0,0,1,743.3643366161905,-54.010007155036675) translate(68.525 18.6)"/><path d="M893.36 201h124.88v37.7H893.36V201z" fill="#29aae1"/><path d="M899.36 243.02h112.88v2.92H899.36v-2.92z" fill="#2188b4"/><path d="M902.36 207.65h11.5v4.86h-11.5v-4.85z" fill="#fff"/><path d="M907.86 210.93c2.88 0 2.88 0 2.88 2.66v.48c0 2.66 0 2.66-2.88 2.66-2.75 0-2.75 0-2.75-2.66v-.5c0-2.65 0-2.65 2.76-2.65zM920.24 207.65h11.5v4.86h-11.5v-4.85z" fill="#fff"/><path d="M925.86 210.93c2.75 0 2.75 0 2.75 2.66v.48c0 2.66 0 2.66-2.74 2.66-2.87 0-2.87 0-2.87-2.66v-.5c0-2.65 0-2.65 2.86-2.65zM939.1 207.65h11.5v4.86h-11.5v-4.85z" fill="#fff"/><path d="M944.74 210.93c2.75 0 2.75 0 2.75 2.66v.48c0 2.66 0 2.66-2.76 2.66-2.88 0-2.88 0-2.88-2.66v-.5c0-2.65 0-2.65 2.88-2.65zM957.36 207.65H969v4.86h-11.64v-4.85z" fill="#fff"/><path d="M963 210.93c2.74 0 2.74 0 2.74 2.66v.48c0 2.66 0 2.66-2.75 2.66-2.76 0-2.76 0-2.76-2.66v-.5c0-2.65 0-2.65 2.75-2.65zM980.5 203.9h33.5v30.75h-33.5V203.9z" fill="#fff"/><path d="M981.6 204.95h31.14v28.53H981.6v-28.53z" fill="#54bbe7"/><path d="M902.6 222.8h11.64v4.83H902.6v-4.82z" fill="#fff"/><path d="M908.24 226.05c2.75 0 2.75 0 2.75 2.66v.5c0 2.66 0 2.66-2.76 2.66-2.75 0-2.75 0-2.75-2.66v-.5c0-2.65 0-2.65 2.74-2.65zM920.5 222.8h11.6v4.83h-11.6v-4.82z" fill="#fff"/><path d="M926.1 226.05c2.76 0 2.76 0 2.76 2.66v.5c0 2.66 0 2.66-2.75 2.66-2.74 0-2.74 0-2.74-2.66v-.5c0-2.65 0-2.65 2.75-2.65zM939.36 222.8H951v4.83h-11.64v-4.82z" fill="#fff"/><path d="M945 226.05c2.74 0 2.74 0 2.74 2.66v.5c0 2.66 0 2.66-2.75 2.66-2.76 0-2.76 0-2.76-2.66v-.5c0-2.65 0-2.65 2.75-2.65zM957.74 222.8h11.62v4.83h-11.62v-4.82z" fill="#fff"/><path d="M963.36 226.05c2.75 0 2.75 0 2.75 2.66v.5c0 2.66 0 2.66-2.74 2.66-2.75 0-2.75 0-2.75-2.66v-.5c0-2.65 0-2.65 2.76-2.65zM985.1 206.25l-3.1 3.06 3.24 3.03-.13-6.08zM985.1 226.23l-3.1 3.06 3.1 3v-6.07zM1009 232.35l3.1-3-3.1-3.07v6.07zM1009.1 212.46l3.14-3-3.13-3.07v6.06z" fill="#fff"/><path d="M984.86 208.05h4.75v2.43h-4.74v-2.43zM1004.86 208.28h4.63v2.43h-4.64v-2.42zM984.86 228.03h4.63v2.43h-4.64v-2.43zM1004.74 228.2h4.62v2.44h-4.62v-2.43z" fill="#fff"/><path d="M987.36 209.67l2.13-1.62 17.36 20.97-2.12 1.62-17.38-20.97z" fill="#fff"/><path d="M1004.86 208.28l2 1.75-17.37 20.48-2.14-1.75 17.5-20.47z" fill="#fff"/><path d="M997.5 216.87l2 2.48-.4.27-2-2.48.4-.27zM995.24 219.2l2 2.5-.38.26-2-2.48.38-.27z" fill="#54bbe7"/><use xlink:href="#i" transform="matrix(1,0,0,1,863.3643366161905,245.98999284496333) translate(81.5 18.6)"/><path d="M1177.46 243.55h9v6.97h-9v-6.97zM1133.96 181h95.2v62.55h-95.2V181z" fill="#29aae1"/><path d="M1138.26 184.8h86.9v55.94h-86.9V184.8z" fill="#fff" fill-opacity=".98"/><path d="M1137.66 250.94h86.8l-4.3 14.96h-86.8l4.3-14.96z" fill="#29aae1"/><path d="M1137.16 250.43h88.8l7.4 15.47h-88.8l-7.4-15.47z" fill="#29aae1"/><path d="M1167.26 261.9h31.6v3.15h-31.6v-3.14zM1149.86 252.9h2.3v1.95h-2.3v-1.95zM1153.96 252.98h2.4v1.96h-2.4v-1.96zM1159.26 256.55h2.4v1.96h-2.4v-1.95zM1158.46 252.73h2.3v2.04h-2.3v-2.04zM1162.46 252.9h2.4v1.95h-2.4v-1.95zM1166.36 252.73h2.4v2.04h-2.4v-2.04zM1190.86 253.07h2.4v2.04h-2.4v-2.03zM1194.46 253.07h2.4v2.04h-2.4v-2.03zM1197.86 253.07h2.4v2.04h-2.4v-2.03zM1201.96 253.07h2.3v2.04h-2.3v-2.03zM1205.66 253.07h2.3v2.04h-2.3v-2.03zM1201.26 256.38h2.3v1.96h-2.3v-1.96zM1209.86 253.07h2.4v2.04h-2.4v-2.03zM1163.76 256.47h2.3v1.95h-2.3v-1.95zM1168.26 256.47h2.3v1.95h-2.3v-1.95zM1197.56 256.3h2v1.95h-2v-1.95zM1193.46 256.3h2.4v1.95h-2.4v-1.95zM1170.76 252.8h2.4v2.05h-2.4v-2.04zM1175.26 252.9h2.3v2.04h-2.3v-2.04zM1179.36 252.8h2.3v2.05h-2.3v-2.04zM1183.86 252.8h2.3v2.05h-2.3v-2.04zM1187.56 252.9h2.3v2.04h-2.3v-2.04zM1172.26 256.38h2.4v1.96h-2.4v-1.96zM1176.76 256.38h2.3v1.96h-2.3v-1.96zM1180.86 256.47h2.4v1.95h-2.4v-1.95zM1184.96 256.47h2.3v1.95h-2.3v-1.95zM1189.16 256.3h2.3v1.95h-2.3v-1.95z" fill="#fff"/><path d="M1133.46 265.9l99.9-.34-7.1-15.13-88.5.17-4.3 15.3z" fill="none"/><path d="M1176.96 243.55h9.8v.93h-9.8v-.93zM1177.36 249.33h9.3v1.1h-9.3v-1.1z" fill="#fff"/><use xlink:href="#j" transform="matrix(1,0,0,1,1103.3643366161905,265.98999284496335) translate(68.525 18.6)"/><path d="M553.36 201h124.88v37.7H553.36V201z" fill="#29aae1"/><path d="M559.36 243.02h112.88v2.92H559.36v-2.92z" fill="#2188b4"/><path d="M562.36 207.65h11.5v4.86h-11.5v-4.85z" fill="#fff"/><path d="M567.86 210.93c2.88 0 2.88 0 2.88 2.66v.48c0 2.66 0 2.66-2.88 2.66-2.75 0-2.75 0-2.75-2.66v-.5c0-2.65 0-2.65 2.76-2.65zM580.24 207.65h11.5v4.86h-11.5v-4.85z" fill="#fff"/><path d="M585.86 210.93c2.75 0 2.75 0 2.75 2.66v.48c0 2.66 0 2.66-2.74 2.66-2.87 0-2.87 0-2.87-2.66v-.5c0-2.65 0-2.65 2.86-2.65zM599.1 207.65h11.5v4.86h-11.5v-4.85z" fill="#fff"/><path d="M604.74 210.93c2.75 0 2.75 0 2.75 2.66v.48c0 2.66 0 2.66-2.76 2.66-2.88 0-2.88 0-2.88-2.66v-.5c0-2.65 0-2.65 2.88-2.65zM617.36 207.65H629v4.86h-11.64v-4.85z" fill="#fff"/><path d="M623 210.93c2.74 0 2.74 0 2.74 2.66v.48c0 2.66 0 2.66-2.75 2.66-2.76 0-2.76 0-2.76-2.66v-.5c0-2.65 0-2.65 2.75-2.65zM640.5 203.9H674v30.75h-33.5V203.9z" fill="#fff"/><path d="M641.6 204.95h31.14v28.53H641.6v-28.53z" fill="#54bbe7"/><path d="M562.6 222.8h11.64v4.83H562.6v-4.82z" fill="#fff"/><path d="M568.24 226.05c2.75 0 2.75 0 2.75 2.66v.5c0 2.66 0 2.66-2.76 2.66-2.75 0-2.75 0-2.75-2.66v-.5c0-2.65 0-2.65 2.74-2.65zM580.5 222.8h11.6v4.83h-11.6v-4.82z" fill="#fff"/><path d="M586.1 226.05c2.76 0 2.76 0 2.76 2.66v.5c0 2.66 0 2.66-2.75 2.66-2.74 0-2.74 0-2.74-2.66v-.5c0-2.65 0-2.65 2.75-2.65zM599.36 222.8H611v4.83h-11.64v-4.82z" fill="#fff"/><path d="M605 226.05c2.74 0 2.74 0 2.74 2.66v.5c0 2.66 0 2.66-2.75 2.66-2.76 0-2.76 0-2.76-2.66v-.5c0-2.65 0-2.65 2.75-2.65zM617.74 222.8h11.62v4.83h-11.62v-4.82z" fill="#fff"/><path d="M623.36 226.05c2.75 0 2.75 0 2.75 2.66v.5c0 2.66 0 2.66-2.74 2.66-2.75 0-2.75 0-2.75-2.66v-.5c0-2.65 0-2.65 2.76-2.65zM645.1 206.25l-3.1 3.06 3.24 3.03-.13-6.08zM645.1 226.23l-3.1 3.06 3.1 3v-6.07zM669 232.35l3.1-3-3.1-3.07v6.07zM669.1 212.46l3.14-3-3.13-3.07v6.06z" fill="#fff"/><path d="M644.86 208.05h4.75v2.43h-4.74v-2.43zM664.86 208.28h4.63v2.43h-4.64v-2.42zM644.86 228.03h4.63v2.43h-4.64v-2.43zM664.74 228.2h4.62v2.44h-4.62v-2.43z" fill="#fff"/><path d="M647.36 209.67l2.13-1.62 17.36 20.97-2.12 1.62-17.38-20.97z" fill="#fff"/><path d="M664.86 208.28l2 1.75-17.37 20.48-2.14-1.75 17.5-20.47z" fill="#fff"/><path d="M657.5 216.87l2 2.48-.4.27-2-2.48.4-.27zM655.24 219.2l2 2.5-.38.26-2-2.48.38-.27z" fill="#54bbe7"/><use xlink:href="#k" transform="matrix(1,0,0,1,523.3643366161905,245.98999284496333) translate(81.5 18.6)"/><path d="M13.36 201h124.88v37.7H13.36V201z" fill="#29aae1"/><path d="M19.36 243.02h112.88v2.92H19.36v-2.92z" fill="#2188b4"/><path d="M22.36 207.65h11.5v4.86h-11.5v-4.85z" fill="#fff"/><path d="M27.86 210.93c2.88 0 2.88 0 2.88 2.66v.48c0 2.66 0 2.66-2.88 2.66-2.75 0-2.75 0-2.75-2.66v-.5c0-2.65 0-2.65 2.76-2.65zM40.24 207.65h11.5v4.86h-11.5v-4.85z" fill="#fff"/><path d="M45.86 210.93c2.75 0 2.75 0 2.75 2.66v.48c0 2.66 0 2.66-2.74 2.66-2.87 0-2.87 0-2.87-2.66v-.5c0-2.65 0-2.65 2.86-2.65zM59.1 207.65h11.5v4.86H59.1v-4.85z" fill="#fff"/><path d="M64.74 210.93c2.75 0 2.75 0 2.75 2.66v.48c0 2.66 0 2.66-2.76 2.66-2.88 0-2.88 0-2.88-2.66v-.5c0-2.65 0-2.65 2.88-2.65zM77.36 207.65H89v4.86H77.35v-4.85z" fill="#fff"/><path d="M83 210.93c2.74 0 2.74 0 2.74 2.66v.48c0 2.66 0 2.66-2.75 2.66-2.76 0-2.76 0-2.76-2.66v-.5c0-2.65 0-2.65 2.75-2.65zM100.5 203.9H134v30.75h-33.5V203.9z" fill="#fff"/><path d="M101.6 204.95h31.14v28.53H101.6v-28.53z" fill="#54bbe7"/><path d="M22.6 222.8h11.64v4.83H22.6v-4.82z" fill="#fff"/><path d="M28.24 226.05c2.75 0 2.75 0 2.75 2.66v.5c0 2.66 0 2.66-2.76 2.66-2.75 0-2.75 0-2.75-2.66v-.5c0-2.65 0-2.65 2.74-2.65zM40.5 222.8h11.6v4.83H40.5v-4.82z" fill="#fff"/><path d="M46.1 226.05c2.76 0 2.76 0 2.76 2.66v.5c0 2.66 0 2.66-2.75 2.66-2.74 0-2.74 0-2.74-2.66v-.5c0-2.65 0-2.65 2.75-2.65zM59.36 222.8H71v4.83H59.35v-4.82z" fill="#fff"/><path d="M65 226.05c2.74 0 2.74 0 2.74 2.66v.5c0 2.66 0 2.66-2.75 2.66-2.76 0-2.76 0-2.76-2.66v-.5c0-2.65 0-2.65 2.75-2.65zM77.74 222.8h11.62v4.83H77.74v-4.82z" fill="#fff"/><path d="M83.36 226.05c2.75 0 2.75 0 2.75 2.66v.5c0 2.66 0 2.66-2.74 2.66-2.75 0-2.75 0-2.75-2.66v-.5c0-2.65 0-2.65 2.76-2.65zM105.1 206.25l-3.1 3.06 3.24 3.03-.13-6.08zM105.1 226.23l-3.1 3.06 3.1 3v-6.07zM129 232.35l3.1-3-3.1-3.07v6.07zM129.1 212.46l3.14-3-3.13-3.07v6.06z" fill="#fff"/><path d="M104.86 208.05h4.75v2.43h-4.74v-2.43zM124.86 208.28h4.63v2.43h-4.64v-2.42zM104.86 228.03h4.63v2.43h-4.64v-2.43zM124.74 228.2h4.62v2.44h-4.62v-2.43z" fill="#fff"/><path d="M107.36 209.67l2.13-1.62 17.36 20.97-2.12 1.62-17.38-20.97z" fill="#fff"/><path d="M124.86 208.28l2 1.75-17.37 20.48-2.14-1.75 17.5-20.47z" fill="#fff"/><path d="M117.5 216.87l2 2.48-.4.27-2-2.48.4-.27zM115.24 219.2l2 2.5-.38.26-2-2.48.38-.27z" fill="#54bbe7"/><use xlink:href="#l" transform="matrix(1,0,0,1,-16.635663383809515,245.98999284496333) translate(76.5 18.6)"/><path d="M-347.36 201h124.88v37.7h-124.88V201z" fill="#29aae1"/><path d="M-341.36 243.02h112.88v2.92h-112.88v-2.92z" fill="#2188b4"/><path d="M-338.36 207.65h11.5v4.86h-11.5v-4.85z" fill="#fff"/><path d="M-332.86 210.93c2.88 0 2.88 0 2.88 2.66v.48c0 2.66 0 2.66-2.88 2.66-2.75 0-2.75 0-2.75-2.66v-.5c0-2.65 0-2.65 2.74-2.65zM-320.48 207.65h11.5v4.86h-11.5v-4.85z" fill="#fff"/><path d="M-314.86 210.93c2.75 0 2.75 0 2.75 2.66v.48c0 2.66 0 2.66-2.76 2.66-2.87 0-2.87 0-2.87-2.66v-.5c0-2.65 0-2.65 2.87-2.65zM-301.6 207.65h11.5v4.86h-11.5v-4.85z" fill="#fff"/><path d="M-295.98 210.93c2.75 0 2.75 0 2.75 2.66v.48c0 2.66 0 2.66-2.75 2.66-2.88 0-2.88 0-2.88-2.66v-.5c0-2.65 0-2.65 2.88-2.65zM-283.36 207.65h11.63v4.86h-11.63v-4.85z" fill="#fff"/><path d="M-277.73 210.93c2.75 0 2.75 0 2.75 2.66v.48c0 2.66 0 2.66-2.75 2.66s-2.75 0-2.75-2.66v-.5c0-2.65 0-2.65 2.75-2.65zM-260.23 203.9h33.5v30.75h-33.5V203.9z" fill="#fff"/><path d="M-259.1 204.95H-228v28.53h-31.13v-28.53z" fill="#54bbe7"/><path d="M-338.1 222.8h11.62v4.83h-11.63v-4.82z" fill="#fff"/><path d="M-332.48 226.05c2.75 0 2.75 0 2.75 2.66v.5c0 2.66 0 2.66-2.75 2.66s-2.75 0-2.75-2.66v-.5c0-2.65 0-2.65 2.75-2.65zM-320.23 222.8h11.62v4.83h-11.63v-4.82z" fill="#fff"/><path d="M-314.6 226.05c2.74 0 2.74 0 2.74 2.66v.5c0 2.66 0 2.66-2.75 2.66-2.76 0-2.76 0-2.76-2.66v-.5c0-2.65 0-2.65 2.75-2.65zM-301.36 222.8h11.63v4.83h-11.63v-4.82z" fill="#fff"/><path d="M-295.73 226.05c2.75 0 2.75 0 2.75 2.66v.5c0 2.66 0 2.66-2.75 2.66s-2.75 0-2.75-2.66v-.5c0-2.65 0-2.65 2.75-2.65zM-282.98 222.8h11.62v4.83h-11.62v-4.82z" fill="#fff"/><path d="M-277.36 226.05c2.75 0 2.75 0 2.75 2.66v.5c0 2.66 0 2.66-2.76 2.66-2.75 0-2.75 0-2.75-2.66v-.5c0-2.65 0-2.65 2.74-2.65zM-255.6 206.25l-3.13 3.06 3.25 3.03-.13-6.08zM-255.6 226.23l-3.13 3.06 3.12 3v-6.07zM-231.73 232.35l3.12-3-3.13-3.07v6.07zM-231.6 212.46l3.12-3-3.13-3.07v6.06z" fill="#fff"/><path d="M-255.86 208.05h4.75v2.43h-4.76v-2.43zM-235.86 208.28h4.63v2.43h-4.63v-2.42zM-255.86 228.03h4.63v2.43h-4.63v-2.43zM-235.98 228.2h4.62v2.44h-4.62v-2.43z" fill="#fff"/><path d="M-253.36 209.67l2.13-1.62 17.37 20.97-2.12 1.62-17.38-20.97z" fill="#fff"/><path d="M-235.86 208.28l2 1.75-17.37 20.48-2.13-1.75 17.5-20.47z" fill="#fff"/><path d="M-243.23 216.87l2 2.48-.38.27-2-2.48.37-.27zM-245.48 219.2l2 2.5-.38.26-2-2.48.38-.27z" fill="#54bbe7"/><use xlink:href="#m" transform="matrix(1,0,0,1,-377.3568545766284,245.98999284496333) translate(81.5 18.6)"/><path d="M-513.26 223.5h162.4" stroke="#282c33" stroke-width="7" fill="none"/><path d="M-513.17 227h-3.6v-7h3.6zM-347.36 227h-3.6v-7h3.6z" stroke="#282c33" stroke-width=".05" fill="#282c33"/><path d="M-218.98 223.5H9.86" stroke="#282c33" stroke-width="7" fill="none"/><path d="M-218.9 227h-3.58v-7h3.6zM13.36 227h-3.6v-7h3.6z" stroke="#282c33" stroke-width=".05" fill="#282c33"/><path d="M553.43 711.54H678.3v37.7H553.43v-37.7z" fill="#29aae1"/><path d="M559.43 753.57H672.3v2.92H559.43v-2.93z" fill="#2188b4"/><path d="M562.43 718.2h11.5v4.86h-11.5v-4.86z" fill="#fff"/><path d="M567.93 721.48c2.87 0 2.87 0 2.87 2.66v.5c0 2.65 0 2.65-2.87 2.65-2.75 0-2.75 0-2.75-2.67v-.5c0-2.65 0-2.65 2.75-2.65zM580.3 718.2h11.5v4.86h-11.5v-4.86z" fill="#fff"/><path d="M585.93 721.48c2.75 0 2.75 0 2.75 2.66v.5c0 2.65 0 2.65-2.75 2.65-2.88 0-2.88 0-2.88-2.67v-.5c0-2.65 0-2.65 2.88-2.65zM599.18 718.2h11.5v4.86h-11.5v-4.86z" fill="#fff"/><path d="M604.8 721.48c2.75 0 2.75 0 2.75 2.66v.5c0 2.65 0 2.65-2.75 2.65-2.87 0-2.87 0-2.87-2.67v-.5c0-2.65 0-2.65 2.87-2.65zM617.43 718.2h11.62v4.86h-11.62v-4.86z" fill="#fff"/><path d="M623.05 721.48c2.75 0 2.75 0 2.75 2.66v.5c0 2.65 0 2.65-2.75 2.65s-2.75 0-2.75-2.67v-.5c0-2.65 0-2.65 2.75-2.65zM640.55 714.46h33.5v30.74h-33.5v-30.74z" fill="#fff"/><path d="M641.68 715.5h31.12v28.53h-31.12V715.5z" fill="#54bbe7"/><path d="M562.68 733.36h11.62v4.82h-11.62v-4.82z" fill="#fff"/><path d="M568.3 736.6c2.75 0 2.75 0 2.75 2.66v.5c0 2.65 0 2.65-2.75 2.65s-2.75 0-2.75-2.65v-.5c0-2.65 0-2.65 2.75-2.65zM580.55 733.36h11.63v4.82h-11.63v-4.82z" fill="#fff"/><path d="M586.18 736.6c2.75 0 2.75 0 2.75 2.66v.5c0 2.65 0 2.65-2.75 2.65s-2.75 0-2.75-2.65v-.5c0-2.65 0-2.65 2.75-2.65zM599.43 733.36h11.62v4.82h-11.62v-4.82z" fill="#fff"/><path d="M605.05 736.6c2.75 0 2.75 0 2.75 2.66v.5c0 2.65 0 2.65-2.75 2.65s-2.75 0-2.75-2.65v-.5c0-2.65 0-2.65 2.75-2.65zM617.8 733.36h11.63v4.82H617.8v-4.82z" fill="#fff"/><path d="M623.43 736.6c2.75 0 2.75 0 2.75 2.66v.5c0 2.65 0 2.65-2.75 2.65s-2.75 0-2.75-2.65v-.5c0-2.65 0-2.65 2.75-2.65zM645.18 716.8l-3.13 3.06 3.25 3.02-.12-6.08zM645.18 736.78l-3.13 3.06 3.13 3.02v-6.08zM669.05 742.9l3.13-3-3.13-3.07v6.07zM669.18 723l3.12-3-3.12-3.06V723z" fill="#fff"/><path d="M644.93 718.6h4.75v2.43h-4.75v-2.43zM664.93 718.83h4.62v2.43h-4.62v-2.43zM644.93 738.58h4.62V741h-4.62v-2.42zM664.8 738.76h4.63v2.43h-4.63v-2.44z" fill="#fff"/><path d="M647.43 720.22l2.12-1.62 17.38 20.97-2.13 1.62-17.37-20.98z" fill="#fff"/><path d="M664.93 718.83l2 1.75-17.38 20.48-2.12-1.76 17.5-20.47z" fill="#fff"/><path d="M657.55 727.42l2 2.48-.37.27-2-2.48.37-.28zM655.3 729.76l2 2.48-.37.27-2-2.47.37-.27z" fill="#54bbe7"/><use xlink:href="#n" transform="matrix(1,0,0,1,523.4275957255031,756.537938050443) translate(81.5 18.6)"/><path d="M817.46 754.1h9v6.97h-9v-6.97zM773.96 691.54h95.2v62.56h-95.2v-62.56z" fill="#29aae1"/><path d="M778.26 695.36h86.9v55.93h-86.9v-55.94z" fill="#fff" fill-opacity=".98"/><path d="M777.66 761.5h86.8l-4.3 14.95h-86.8l4.3-14.96z" fill="#29aae1"/><path d="M777.16 760.98h88.8l7.4 15.47h-88.8l-7.4-15.47z" fill="#29aae1"/><path d="M807.26 772.46h31.6v3.14h-31.6v-3.14zM789.86 763.45h2.3v1.95h-2.3v-1.95zM793.96 763.53h2.4v1.96h-2.4v-1.97zM799.26 767.1h2.4v1.96h-2.4v-1.96zM798.46 763.28h2.3v2.04h-2.3v-2.04zM802.46 763.45h2.4v1.95h-2.4v-1.95zM806.36 763.28h2.4v2.04h-2.4v-2.04zM830.86 763.62h2.4v2.04h-2.4v-2.04zM834.46 763.62h2.4v2.04h-2.4v-2.04zM837.86 763.62h2.4v2.04h-2.4v-2.04zM841.96 763.62h2.3v2.04h-2.3v-2.04zM845.66 763.62h2.3v2.04h-2.3v-2.04zM841.26 766.93h2.3v1.96h-2.3v-1.97zM849.86 763.62h2.4v2.04h-2.4v-2.04zM803.76 767.02h2.3v1.95h-2.3v-1.95zM808.26 767.02h2.3v1.95h-2.3v-1.95zM837.56 766.85h2v1.95h-2v-1.95zM833.46 766.85h2.4v1.95h-2.4v-1.95zM810.76 763.36h2.4v2.04h-2.4v-2.04zM815.26 763.45h2.3v2.04h-2.3v-2.05zM819.36 763.36h2.3v2.04h-2.3v-2.04zM823.86 763.36h2.3v2.04h-2.3v-2.04zM827.56 763.45h2.3v2.04h-2.3v-2.05zM812.26 766.93h2.4v1.96h-2.4v-1.97zM816.76 766.93h2.3v1.96h-2.3v-1.97zM820.86 767.02h2.4v1.95h-2.4v-1.95zM824.96 767.02h2.3v1.95h-2.3v-1.95zM829.16 766.85h2.3v1.95h-2.3v-1.95z" fill="#fff"/><path d="M773.46 776.45l99.9-.34-7.1-15.12-88.5.17-4.3 15.3z" fill="none"/><path d="M816.96 754.1h9.8v.93h-9.8v-.93zM817.36 759.88h9.3v1.1h-9.3v-1.1z" fill="#fff"/><use xlink:href="#o" transform="matrix(1,0,0,1,743.3643366161905,776.537938050443) translate(68.525 18.6)"/><path d="M584.3 708.04v-458.6" stroke="#282c33" stroke-width="7" fill="none"/><path d="M587.8 711.54h-7v-3.6h7zM587.8 249.54h-7v-3.6h7zm0-6.52h-7v-.07h7z" stroke="#282c33" stroke-width=".05" fill="#282c33"/><path d="M141.74 223.5h408.12" stroke="#282c33" stroke-width="7" fill="none"/><path d="M141.83 227h-3.6v-7h3.6zM553.36 227h-3.6v-7h3.6z" stroke="#282c33" stroke-width=".05" fill="#282c33"/><path d="M1021.74 223.5h108.72" stroke="#282c33" stroke-width="7" fill="none"/><path d="M1021.83 227h-3.6v-7h3.6zM1133.96 227h-3.6v-7h3.6z" stroke="#282c33" stroke-width=".05" fill="#282c33"/><path d="M681.74 223.5h208.12" stroke="#282c33" stroke-width="7" fill="none"/><path d="M681.83 227h-3.6v-7h3.6zM893.36 227h-3.6v-7h3.6z" stroke="#282c33" stroke-width=".05" fill="#282c33"/><path d="M681.8 734.04h88.66" stroke="#282c33" stroke-width="7" fill="none"/><path d="M681.9 737.54h-3.6v-7h3.6zM773.96 737.54h-3.6v-7h3.6z" stroke="#282c33" stroke-width=".05" fill="#282c33"/><path d="M584.3-70.56V197.5" stroke="#282c33" stroke-width="7" fill="none"/><path d="M587.8-70.47h-7v-3.6h7zm0-6.5h-7v-.1h7zM587.8 201h-7v-3.6h7z" stroke="#282c33" stroke-width=".05" fill="#282c33"/><path d="M681.74-96.5h88.72" stroke="#282c33" stroke-width="7" fill="none"/><path d="M681.83-93h-3.6v-7h3.6zM773.96-93h-3.6v-7h3.6z" stroke="#282c33" stroke-width=".05" fill="#282c33"/><path d="M-796.6 187a6 6 0 0 1 6-6h228a6 6 0 0 1 6 6v48a6 6 0 0 1-6 6h-228a6 6 0 0 1-6-6z" stroke="#000" stroke-opacity="0" stroke-width="2" fill="#fff" fill-opacity="0"/><use xlink:href="#a" transform="matrix(1,0,0,1,-791.6078884122544,185.98999284496333) translate(95.14506172839506 28.069444444444443)"/><use xlink:href="#p" transform="matrix(1,0,0,1,-791.6078884122544,185.98999284496333) translate(126.21296296296296 28.069444444444443)"/><path d="M-507.36 196.66h49.7v28.66h-49.7z" fill="#fff" fill-opacity="0"/><use xlink:href="#a" transform="matrix(1,0,0,1,-502.3568545766284,201.65665951163) translate(0 12.444444444444441)"/><use xlink:href="#q" transform="matrix(1,0,0,1,-502.3568545766284,201.65665951163) translate(31.067901234567895 12.444444444444441)"/><path d="M-401.64 196.66h49.7v28.66h-49.7z" fill="#fff" fill-opacity="0"/><use xlink:href="#a" transform="matrix(1,0,0,1,-396.6356633838095,201.65665951163) translate(0 12.444444444444441)"/><use xlink:href="#p" transform="matrix(1,0,0,1,-396.6356633838095,201.65665951163) translate(31.067901234567895 12.444444444444441)"/><path d="M-217.8 196.66h49.72v28.66h-49.7z" fill="#fff" fill-opacity="0"/><use xlink:href="#a" transform="matrix(1,0,0,1,-212.78792231265714,201.65665951162998) translate(0 12.444444444444441)"/><use xlink:href="#q" transform="matrix(1,0,0,1,-212.78792231265714,201.65665951162998) translate(31.067901234567895 12.444444444444441)"/><path d="M154.64 194.93h49.7v28.67h-49.7z" fill="#fff" fill-opacity="0"/><use xlink:href="#a" transform="matrix(1,0,0,1,159.6431454233716,199.92872861622365) translate(0 12.444444444444441)"/><use xlink:href="#p" transform="matrix(1,0,0,1,159.6431454233716,199.92872861622365) translate(31.067901234567895 12.444444444444441)"/><path d="M-52.62 194.93h49.7v28.67h-49.7z" fill="#fff" fill-opacity="0"/><use xlink:href="#a" transform="matrix(1,0,0,1,-47.62434873420051,199.92872861622368) translate(0 12.444444444444441)"/><use xlink:href="#r" transform="matrix(1,0,0,1,-47.62434873420051,199.92872861622368) translate(31.067901234567895 12.444444444444441)"/><path d="M692.64 742.32h49.7V771h-49.7z" fill="#fff" fill-opacity="0"/><use xlink:href="#a" transform="matrix(1,0,0,1,697.6431454233716,747.3233261782967) translate(0 12.444444444444441)"/><use xlink:href="#p" transform="matrix(1,0,0,1,697.6431454233716,747.3233261782967) translate(31.067901234567895 12.444444444444441)"/><path d="M586.64 674.93h49.7v28.67h-49.7z" fill="#fff" fill-opacity="0"/><use xlink:href="#a" transform="matrix(1,0,0,1,591.6431454233716,679.9287286162237) translate(0 12.444444444444441)"/><use xlink:href="#b" transform="matrix(1,0,0,1,591.6431454233716,679.9287286162237) translate(31.067901234567895 12.444444444444441)"/><path d="M692.64 181h49.7v28.66h-49.7z" fill="#fff" fill-opacity="0"/><use xlink:href="#a" transform="matrix(1,0,0,1,697.6431454233716,185.98999284496333) translate(0 12.444444444444441)"/><use xlink:href="#b" transform="matrix(1,0,0,1,697.6431454233716,185.98999284496333) translate(31.067901234567895 12.444444444444441)"/><path d="M480 186.93h49.7v28.67H480z" fill="#fff" fill-opacity="0"/><use xlink:href="#a" transform="matrix(1,0,0,1,485,191.92872861622365) translate(0 12.444444444444441)"/><use xlink:href="#q" transform="matrix(1,0,0,1,485,191.92872861622365) translate(31.067901234567895 12.444444444444441)"/><path d="M591.07 152.72h49.7v28.66h-49.7z" fill="#fff" fill-opacity="0"/><g><use xlink:href="#a" transform="matrix(1,0,0,1,596.0726574538983,157.7179237403696) translate(0 12.444444444444441)"/><use xlink:href="#p" transform="matrix(1,0,0,1,596.0726574538983,157.7179237403696) translate(31.067901234567895 12.444444444444441)"/></g><path d="M591 280h49.72v28.67h-49.7z" fill="#fff" fill-opacity="0"/><g><use xlink:href="#a" transform="matrix(1,0,0,1,596.0093983445856,285) translate(0 12.444444444444441)"/><use xlink:href="#r" transform="matrix(1,0,0,1,596.0093983445856,285) translate(31.067901234567895 12.444444444444441)"/></g><path d="M683.64-125.07h49.7v28.67h-49.7z" fill="#fff" fill-opacity="0"/><g><use xlink:href="#a" transform="matrix(1,0,0,1,688.6431454233716,-120.07127138377635) translate(0 12.444444444444441)"/><use xlink:href="#p" transform="matrix(1,0,0,1,688.6431454233716,-120.07127138377635) translate(31.067901234567895 12.444444444444441)"/></g><path d="M1029.38 186.93h49.7v28.67h-49.7z" fill="#fff" fill-opacity="0"/><g><use xlink:href="#a" transform="matrix(1,0,0,1,1034.3756512657997,191.92872861622365) translate(0 12.444444444444441)"/><use xlink:href="#p" transform="matrix(1,0,0,1,1034.3756512657997,191.92872861622365) translate(31.067901234567895 12.444444444444441)"/></g><path d="M832.64 186.93h49.7v28.67h-49.7z" fill="#fff" fill-opacity="0"/><g><use xlink:href="#a" transform="matrix(1,0,0,1,837.6431454233716,191.92872861622362) translate(0 12.444444444444441)"/><use xlink:href="#b" transform="matrix(1,0,0,1,837.6431454233716,191.92872861622362) translate(31.067901234567895 12.444444444444441)"/></g><path d="M597.35-149.07h32v31.6h-32z" fill="#fff" fill-opacity="0"/><g><use xlink:href="#s" transform="matrix(1,0,0,1,602.3530219665814,-144.07127138377635) translate(0 14.4)"/></g><defs><path fill="#333" d="M115-194c55 1 70 41 70 98S169 2 115 4C84 4 66-9 55-30l1 105H24l-1-265h31l2 30c10-21 28-34 59-34zm-8 174c40 0 45-34 45-75s-6-73-45-74c-42 0-51 32-51 76 0 43 10 73 51 73" id="t"/><path fill="#333" d="M100-194c62-1 85 37 85 99 1 63-27 99-86 99S16-35 15-95c0-66 28-99 85-99zM99-20c44 1 53-31 53-75 0-43-8-75-51-75s-53 32-53 75 10 74 51 75" id="u"/><path fill="#333" d="M114-163C36-179 61-72 57 0H25l-1-190h30c1 12-1 29 2 39 6-27 23-49 58-41v29" id="v"/><path fill="#333" d="M59-47c-2 24 18 29 38 22v24C64 9 27 4 27-40v-127H5v-23h24l9-43h21v43h35v23H59v120" id="w"/><g id="a"><use transform="matrix(0.04320987654320986,0,0,0.04320987654320986,0,0)" xlink:href="#t"/><use transform="matrix(0.04320987654320986,0,0,0.04320987654320986,8.641975308641973,0)" xlink:href="#u"/><use transform="matrix(0.04320987654320986,0,0,0.04320987654320986,17.283950617283946,0)" xlink:href="#v"/><use transform="matrix(0.04320987654320986,0,0,0.04320987654320986,22.425925925925924,0)" xlink:href="#w"/></g><path fill="#333" d="M126-127c33 6 58 20 58 59 0 88-139 92-164 29-3-8-5-16-6-25l32-3c6 27 21 44 54 44 32 0 52-15 52-46 0-38-36-46-79-43v-28c39 1 72-4 72-42 0-27-17-43-46-43-28 0-47 15-49 41l-32-3c6-42 35-63 81-64 48-1 79 21 79 65 0 36-21 52-52 59" id="x"/><use transform="matrix(0.04320987654320986,0,0,0.04320987654320986,0,0)" xlink:href="#x" id="b"/><path fill="#333" d="M185-189c-5-48-123-54-124 2 14 75 158 14 163 119 3 78-121 87-175 55-17-10-28-26-33-46l33-7c5 56 141 63 141-1 0-78-155-14-162-118-5-82 145-84 179-34 5 7 8 16 11 25" id="y"/><path fill="#333" d="M127-220V0H93v-220H8v-28h204v28h-85" id="z"/><path fill="#333" d="M205 0l-28-72H64L36 0H1l101-248h38L239 0h-34zm-38-99l-47-123c-12 45-31 82-46 123h93" id="A"/><path fill="#333" d="M233-177c-1 41-23 64-60 70L243 0h-38l-65-103H63V0H30v-248c88 3 205-21 203 71zM63-129c60-2 137 13 137-47 0-61-80-42-137-45v92" id="B"/><g id="c"><use transform="matrix(0.19197530864197512,0,0,0.19197530864197512,0,0)" xlink:href="#y"/><use transform="matrix(0.19197530864197512,0,0,0.19197530864197512,46.074074074074026,0)" xlink:href="#z"/><use transform="matrix(0.19197530864197512,0,0,0.19197530864197512,82.93333333333325,0)" xlink:href="#A"/><use transform="matrix(0.19197530864197512,0,0,0.19197530864197512,129.00740740740727,0)" xlink:href="#B"/></g><path fill="#333" d="M140-251c81 0 123 46 123 126C263-46 219 4 140 4 59 4 17-45 17-125s42-126 123-126zm0 227c63 0 89-41 89-101s-29-99-89-99c-61 0-89 39-89 99S79-25 140-24" id="C"/><path fill="#333" d="M30-248c87 1 191-15 191 75 0 78-77 80-158 76V0H30v-248zm33 125c57 0 124 11 124-50 0-59-68-47-124-48v98" id="D"/><path fill="#333" d="M30 0v-248h33v221h125V0H30" id="E"/><path fill="#333" d="M143 4C61 4 22-44 18-125c-5-107 100-154 193-111 17 8 29 25 37 43l-32 9c-13-25-37-40-76-40-61 0-88 39-88 99 0 61 29 100 91 101 35 0 62-11 79-27v-45h-74v-28h105v86C228-13 192 4 143 4" id="F"/><path fill="#333" d="M137-103V0h-34v-103L8-248h37l75 118 75-118h37" id="G"/><g id="d"><use transform="matrix(0.19197530864197512,0,0,0.19197530864197512,0,0)" xlink:href="#z"/><use transform="matrix(0.19197530864197512,0,0,0.19197530864197512,40.69876543209873,0)" xlink:href="#C"/><use transform="matrix(0.19197530864197512,0,0,0.19197530864197512,94.45185185185176,0)" xlink:href="#D"/><use transform="matrix(0.19197530864197512,0,0,0.19197530864197512,140.52592592592578,0)" xlink:href="#C"/><use transform="matrix(0.19197530864197512,0,0,0.19197530864197512,194.2790123456788,0)" xlink:href="#E"/><use transform="matrix(0.19197530864197512,0,0,0.19197530864197512,232.67407407407384,0)" xlink:href="#C"/><use transform="matrix(0.19197530864197512,0,0,0.19197530864197512,286.4271604938269,0)" xlink:href="#F"/><use transform="matrix(0.19197530864197512,0,0,0.19197530864197512,340.18024691357994,0)" xlink:href="#G"/></g><use transform="matrix(0.05,0,0,0.05,0,0)" xlink:href="#y" id="e"/><path fill="#333" d="M27 0v-27h64v-190l-56 39v-29l58-41h29v221h61V0H27" id="H"/><use transform="matrix(0.05,0,0,0.05,0,0)" xlink:href="#H" id="f"/><path fill="#333" d="M197 0v-115H63V0H30v-248h33v105h134v-105h34V0h-34" id="I"/><use transform="matrix(0.05,0,0,0.05,0,0)" xlink:href="#I" id="g"/><path fill="#333" d="M155-56V0h-30v-56H8v-25l114-167h33v167h35v25h-35zm-30-156c-27 46-58 90-88 131h88v-131" id="J"/><g id="h"><use transform="matrix(0.05,0,0,0.05,0,0)" xlink:href="#I"/><use transform="matrix(0.05,0,0,0.05,12.950000000000001,0)" xlink:href="#J"/></g><path fill="#333" d="M110-160c48 1 74 30 74 79 0 53-28 85-80 85-65 0-83-55-86-122-5-90 50-162 133-122 14 7 22 21 27 39l-31 6c-5-40-67-38-82-6-9 19-15 44-15 74 11-20 30-34 60-33zm-7 138c34 0 49-23 49-58s-16-56-50-56c-29 0-50 16-49 49 1 36 15 65 50 65" id="K"/><g id="i"><use transform="matrix(0.05,0,0,0.05,0,0)" xlink:href="#y"/><use transform="matrix(0.05,0,0,0.05,12,0)" xlink:href="#K"/></g><g id="j"><use transform="matrix(0.05,0,0,0.05,0,0)" xlink:href="#I"/><use transform="matrix(0.05,0,0,0.05,12.950000000000001,0)" xlink:href="#K"/></g><path fill="#333" d="M134-131c28 9 52 24 51 62-1 50-34 73-85 73S17-19 16-69c0-36 21-54 49-61-75-25-45-126 34-121 46 3 78 18 79 63 0 33-17 51-44 57zm-34-11c31 1 46-15 46-44 0-28-17-43-47-42-29 0-46 13-45 42 1 28 16 44 46 44zm1 122c35 0 51-18 51-52 0-30-18-46-53-46-33 0-51 17-51 47 0 34 19 51 53 51" id="L"/><g id="k"><use transform="matrix(0.05,0,0,0.05,0,0)" xlink:href="#y"/><use transform="matrix(0.05,0,0,0.05,12,0)" xlink:href="#L"/></g><path fill="#333" d="M101-251c68 0 85 55 85 127S166 4 100 4C33 4 14-52 14-124c0-73 17-127 87-127zm-1 229c47 0 54-49 54-102s-4-102-53-102c-51 0-55 48-55 102 0 53 5 102 54 102" id="M"/><g id="l"><use transform="matrix(0.05,0,0,0.05,0,0)" xlink:href="#y"/><use transform="matrix(0.05,0,0,0.05,12,0)" xlink:href="#H"/><use transform="matrix(0.05,0,0,0.05,22,0)" xlink:href="#M"/></g><path fill="#333" d="M99-251c64 0 84 50 84 122C183-37 130 33 47-8c-14-7-20-23-25-40l30-5c6 39 69 39 84 7 9-19 16-44 16-74-10 22-31 35-62 35-49 0-73-33-73-83 0-54 28-83 82-83zm-1 141c31-1 51-18 51-49 0-36-14-67-51-67-34 0-49 23-49 58 0 34 15 58 49 58" id="N"/><g id="m"><use transform="matrix(0.05,0,0,0.05,0,0)" xlink:href="#y"/><use transform="matrix(0.05,0,0,0.05,12,0)" xlink:href="#N"/></g><path fill="#333" d="M54-142c48-35 137-8 131 61C196 18 31 33 14-55l32-4c7 23 22 37 52 37 35-1 51-22 54-58 4-55-73-65-99-34H22l8-134h141v27H59" id="O"/><g id="n"><use transform="matrix(0.05,0,0,0.05,0,0)" xlink:href="#y"/><use transform="matrix(0.05,0,0,0.05,12,0)" xlink:href="#O"/></g><g id="o"><use transform="matrix(0.05,0,0,0.05,0,0)" xlink:href="#I"/><use transform="matrix(0.05,0,0,0.05,12.950000000000001,0)" xlink:href="#O"/></g><use transform="matrix(0.04320987654320986,0,0,0.04320987654320986,0,0)" xlink:href="#H" id="p"/><use transform="matrix(0.04320987654320986,0,0,0.04320987654320986,0,0)" xlink:href="#J" id="q"/><path fill="#333" d="M101-251c82-7 93 87 43 132L82-64C71-53 59-42 53-27h129V0H18c2-99 128-94 128-182 0-28-16-43-45-43s-46 15-49 41l-32-3c6-41 34-60 81-64" id="P"/><use transform="matrix(0.04320987654320986,0,0,0.04320987654320986,0,0)" xlink:href="#P" id="r"/><g id="s"><use transform="matrix(0.05,0,0,0.05,0,0)" xlink:href="#y"/><use transform="matrix(0.05,0,0,0.05,12,0)" xlink:href="#J"/></g></defs></g></svg>